<svg width="128" height="128" viewBox="0 0 128 128" fill="none" xmlns="http://www.w3.org/2000/svg">
<g clip-path="url(#clip0_120_2)">
<path d="M46 46C37.5 46 41.5 55 46.5 53.5" stroke="white" stroke-width="2"/>
<path d="M47 55V43C47.3042 40.6054 47.8022 40.2372 49 40.5C57.6897 43.4593 59.0637 40.3654 69 35C73.8322 32.9318 76.4571 32.6703 80.5 39V55C74.5 77.5 49 71 47 55Z" stroke="white" stroke-width="2"/>
<path d="M81.5 45.5C87.5 45.5 88.5 53.5 81.5 53.5" stroke="white" stroke-width="2"/>
<path d="M56.5 68.5C56.3983 71.6291 55.44 73.1233 51 75L41 78.5C37.5483 79.7135 36.306 81.5877 35 86.5L32 104C31.5269 107.834 34.2609 109.471 37.5 109.5H91C96.5 109.5 97 106.5 96.5 104L92.5 84.5C91.3224 80.5277 89.1313 79.186 84 77.5L77 75C72.5913 73.1487 71.8733 71.5777 71.5 68.5" stroke="white" stroke-width="2"/>
<circle cx="64" cy="91" r="1" fill="white"/>
<circle cx="64" cy="95" r="1" fill="white"/>
<circle cx="64" cy="99" r="1" fill="white"/>
<circle cx="64" cy="103" r="1" fill="white"/>
<path d="M45 93C45 92.4477 44.5523 92 44 92C43.4477 92 43 92.4477 43 93H45ZM45 109V93H43V109H45Z" fill="white"/>
<path d="M85 92.5C85 91.9477 84.5523 91.5 84 91.5C83.4477 91.5 83 91.9477 83 92.5H85ZM85 109C85 108.998 85 108.997 85 108.995C85 108.994 85 108.992 85 108.99C85 108.988 85 108.987 85 108.985C85 108.983 85 108.981 85 108.979C85 108.978 85 108.976 85 108.974C85 108.972 85 108.97 85 108.968C85 108.966 85 108.964 85 108.962C85 108.96 85 108.958 85 108.955C85 108.953 85 108.951 85 108.949C85 108.947 85 108.944 85 108.942C85 108.94 85 108.937 85 108.935C85 108.933 85 108.93 85 108.928C85 108.925 85 108.923 85 108.92C85 108.918 85 108.915 85 108.913C85 108.91 85 108.908 85 108.905C85 108.902 85 108.9 85 108.897C85 108.894 85 108.891 85 108.889C85 108.886 85 108.883 85 108.88C85 108.877 85 108.874 85 108.871C85 108.869 85 108.866 85 108.863C85 108.86 85 108.857 85 108.853C85 108.85 85 108.847 85 108.844C85 108.841 85 108.838 85 108.835C85 108.831 85 108.828 85 108.825C85 108.822 85 108.818 85 108.815C85 108.812 85 108.808 85 108.805C85 108.801 85 108.798 85 108.794C85 108.791 85 108.787 85 108.784C85 108.78 85 108.777 85 108.773C85 108.77 85 108.766 85 108.762C85 108.758 85 108.755 85 108.751C85 108.747 85 108.743 85 108.74C85 108.736 85 108.732 85 108.728C85 108.724 85 108.72 85 108.716C85 108.712 85 108.708 85 108.704C85 108.7 85 108.696 85 108.692C85 108.688 85 108.684 85 108.68C85 108.676 85 108.671 85 108.667C85 108.663 85 108.659 85 108.654C85 108.65 85 108.646 85 108.641C85 108.637 85 108.633 85 108.628C85 108.624 85 108.619 85 108.615C85 108.61 85 108.606 85 108.601C85 108.597 85 108.592 85 108.588C85 108.583 85 108.578 85 108.574C85 108.569 85 108.564 85 108.56C85 108.555 85 108.55 85 108.545C85 108.541 85 108.536 85 108.531C85 108.526 85 108.521 85 108.516C85 108.511 85 108.506 85 108.501C85 108.496 85 108.491 85 108.486C85 108.481 85 108.476 85 108.471C85 108.466 85 108.461 85 108.455C85 108.45 85 108.445 85 108.44C85 108.435 85 108.429 85 108.424C85 108.419 85 108.413 85 108.408C85 108.403 85 108.397 85 108.392C85 108.386 85 108.381 85 108.375C85 108.37 85 108.364 85 108.359C85 108.353 85 108.348 85 108.342C85 108.336 85 108.331 85 108.325C85 108.319 85 108.314 85 108.308C85 108.302 85 108.297 85 108.291C85 108.285 85 108.279 85 108.273C85 108.267 85 108.262 85 108.256C85 108.25 85 108.244 85 108.238C85 108.232 85 108.226 85 108.22C85 108.214 85 108.208 85 108.202C85 108.195 85 108.189 85 108.183C85 108.177 85 108.171 85 108.165C85 108.158 85 108.152 85 108.146C85 108.14 85 108.133 85 108.127C85 108.121 85 108.114 85 108.108C85 108.102 85 108.095 85 108.089C85 108.082 85 108.076 85 108.069C85 108.063 85 108.056 85 108.05C85 108.043 85 108.037 85 108.03C85 108.023 85 108.017 85 108.01C85 108.003 85 107.997 85 107.99C85 107.983 85 107.976 85 107.97C85 107.963 85 107.956 85 107.949C85 107.942 85 107.936 85 107.929C85 107.922 85 107.915 85 107.908C85 107.901 85 107.894 85 107.887C85 107.88 85 107.873 85 107.866C85 107.859 85 107.852 85 107.845C85 107.837 85 107.83 85 107.823C85 107.816 85 107.809 85 107.802C85 107.794 85 107.787 85 107.78C85 107.773 85 107.765 85 107.758C85 107.751 85 107.743 85 107.736C85 107.728 85 107.721 85 107.714C85 107.706 85 107.699 85 107.691C85 107.684 85 107.676 85 107.669C85 107.661 85 107.653 85 107.646C85 107.638 85 107.631 85 107.623C85 107.615 85 107.608 85 107.6C85 107.592 85 107.584 85 107.577C85 107.569 85 107.561 85 107.553C85 107.546 85 107.538 85 107.53C85 107.522 85 107.514 85 107.506C85 107.498 85 107.49 85 107.482C85 107.474 85 107.466 85 107.458C85 107.45 85 107.442 85 107.434C85 107.426 85 107.418 85 107.41C85 107.402 85 107.394 85 107.386C85 107.377 85 107.369 85 107.361C85 107.353 85 107.344 85 107.336C85 107.328 85 107.32 85 107.311C85 107.303 85 107.295 85 107.286C85 107.278 85 107.27 85 107.261C85 107.253 85 107.244 85 107.236C85 107.227 85 107.219 85 107.21C85 107.202 85 107.193 85 107.185C85 107.176 85 107.168 85 107.159C85 107.15 85 107.142 85 107.133C85 107.124 85 107.116 85 107.107C85 107.098 85 107.089 85 107.081C85 107.072 85 107.063 85 107.054C85 107.046 85 107.037 85 107.028C85 107.019 85 107.01 85 107.001C85 106.992 85 106.983 85 106.974C85 106.966 85 106.957 85 106.948C85 106.939 85 106.93 85 106.921C85 106.911 85 106.902 85 106.893C85 106.884 85 106.875 85 106.866C85 106.857 85 106.848 85 106.839C85 106.829 85 106.82 85 106.811C85 106.802 85 106.792 85 106.783C85 106.774 85 106.765 85 106.755C85 106.746 85 106.737 85 106.727C85 106.718 85 106.709 85 106.699C85 106.69 85 106.68 85 106.671C85 106.661 85 106.652 85 106.642C85 106.633 85 106.623 85 106.614C85 106.604 85 106.595 85 106.585C85 106.576 85 106.566 85 106.556C85 106.547 85 106.537 85 106.527C85 106.518 85 106.508 85 106.498C85 106.489 85 106.479 85 106.469C85 106.459 85 106.45 85 106.44C85 106.43 85 106.42 85 106.41C85 106.401 85 106.391 85 106.381C85 106.371 85 106.361 85 106.351C85 106.341 85 106.331 85 106.321C85 106.311 85 106.301 85 106.291C85 106.281 85 106.271 85 106.261C85 106.251 85 106.241 85 106.231C85 106.221 85 106.211 85 106.201C85 106.191 85 106.18 85 106.17C85 106.16 85 106.15 85 106.14C85 106.13 85 106.119 85 106.109C85 106.099 85 106.089 85 106.078C85 106.068 85 106.058 85 106.047C85 106.037 85 106.027 85 106.016C85 106.006 85 105.996 85 105.985C85 105.975 85 105.964 85 105.954C85 105.943 85 105.933 85 105.922C85 105.912 85 105.901 85 105.891C85 105.88 85 105.87 85 105.859C85 105.849 85 105.838 85 105.828C85 105.817 85 105.806 85 105.796C85 105.785 85 105.774 85 105.764C85 105.753 85 105.742 85 105.732C85 105.721 85 105.71 85 105.699C85 105.689 85 105.678 85 105.667C85 105.656 85 105.645 85 105.635C85 105.624 85 105.613 85 105.602C85 105.591 85 105.58 85 105.569C85 105.559 85 105.548 85 105.537C85 105.526 85 105.515 85 105.504C85 105.493 85 105.482 85 105.471C85 105.46 85 105.449 85 105.438C85 105.427 85 105.416 85 105.405C85 105.394 85 105.382 85 105.371C85 105.36 85 105.349 85 105.338C85 105.327 85 105.316 85 105.304C85 105.293 85 105.282 85 105.271C85 105.26 85 105.248 85 105.237C85 105.226 85 105.215 85 105.203C85 105.192 85 105.181 85 105.169C85 105.158 85 105.147 85 105.135C85 105.124 85 105.113 85 105.101C85 105.09 85 105.079 85 105.067C85 105.056 85 105.044 85 105.033C85 105.021 85 105.01 85 104.998C85 104.987 85 104.975 85 104.964C85 104.952 85 104.941 85 104.929C85 104.918 85 104.906 85 104.895C85 104.883 85 104.872 85 104.86C85 104.848 85 104.837 85 104.825C85 104.813 85 104.802 85 104.79C85 104.778 85 104.767 85 104.755C85 104.743 85 104.732 85 104.72C85 104.708 85 104.696 85 104.685C85 104.673 85 104.661 85 104.649C85 104.637 85 104.626 85 104.614C85 104.602 85 104.59 85 104.578C85 104.566 85 104.555 85 104.543C85 104.531 85 104.519 85 104.507C85 104.495 85 104.483 85 104.471C85 104.459 85 104.447 85 104.435C85 104.423 85 104.411 85 104.399C85 104.387 85 104.375 85 104.363C85 104.351 85 104.339 85 104.327C85 104.315 85 104.303 85 104.291C85 104.279 85 104.267 85 104.255C85 104.243 85 104.23 85 104.218C85 104.206 85 104.194 85 104.182C85 104.17 85 104.157 85 104.145C85 104.133 85 104.121 85 104.109C85 104.096 85 104.084 85 104.072C85 104.06 85 104.047 85 104.035C85 104.023 85 104.011 85 103.998C85 103.986 85 103.974 85 103.961C85 103.949 85 103.937 85 103.924C85 103.912 85 103.9 85 103.887C85 103.875 85 103.862 85 103.85C85 103.838 85 103.825 85 103.813C85 103.8 85 103.788 85 103.775C85 103.763 85 103.751 85 103.738C85 103.726 85 103.713 85 103.701C85 103.688 85 103.676 85 103.663C85 103.651 85 103.638 85 103.625C85 103.613 85 103.6 85 103.588C85 103.575 85 103.563 85 103.55C85 103.537 85 103.525 85 103.512C85 103.5 85 103.487 85 103.474C85 103.462 85 103.449 85 103.436C85 103.424 85 103.411 85 103.398C85 103.386 85 103.373 85 103.36C85 103.347 85 103.335 85 103.322C85 103.309 85 103.296 85 103.284C85 103.271 85 103.258 85 103.245C85 103.233 85 103.22 85 103.207C85 103.194 85 103.181 85 103.169C85 103.156 85 103.143 85 103.13C85 103.117 85 103.104 85 103.092C85 103.079 85 103.066 85 103.053C85 103.04 85 103.027 85 103.014C85 103.001 85 102.988 85 102.975C85 102.963 85 102.95 85 102.937C85 102.924 85 102.911 85 102.898C85 102.885 85 102.872 85 102.859C85 102.846 85 102.833 85 102.82C85 102.807 85 102.794 85 102.781C85 102.768 85 102.755 85 102.742C85 102.729 85 102.716 85 102.703C85 102.69 85 102.677 85 102.663C85 102.65 85 102.637 85 102.624C85 102.611 85 102.598 85 102.585C85 102.572 85 102.559 85 102.545C85 102.532 85 102.519 85 102.506C85 102.493 85 102.48 85 102.467C85 102.453 85 102.44 85 102.427C85 102.414 85 102.401 85 102.387C85 102.374 85 102.361 85 102.348C85 102.335 85 102.321 85 102.308C85 102.295 85 102.282 85 102.268C85 102.255 85 102.242 85 102.229C85 102.215 85 102.202 85 102.189C85 102.176 85 102.162 85 102.149C85 102.136 85 102.122 85 102.109C85 102.096 85 102.082 85 102.069C85 102.056 85 102.043 85 102.029C85 102.016 85 102.002 85 101.989C85 101.976 85 101.962 85 101.949C85 101.936 85 101.922 85 101.909C85 101.896 85 101.882 85 101.869C85 101.855 85 101.842 85 101.829C85 101.815 85 101.802 85 101.788C85 101.775 85 101.761 85 101.748C85 101.735 85 101.721 85 101.708C85 101.694 85 101.681 85 101.667C85 101.654 85 101.64 85 101.627C85 101.613 85 101.6 85 101.586C85 101.573 85 101.559 85 101.546C85 101.532 85 101.519 85 101.505C85 101.492 85 101.478 85 101.465C85 101.451 85 101.438 85 101.424C85 101.411 85 101.397 85 101.384C85 101.37 85 101.357 85 101.343C85 101.329 85 101.316 85 101.302C85 101.289 85 101.275 85 101.262C85 101.248 85 101.234 85 101.221C85 101.207 85 101.194 85 101.18C85 101.166 85 101.153 85 101.139C85 101.126 85 101.112 85 101.098C85 101.085 85 101.071 85 101.058C85 101.044 85 101.03 85 101.017C85 101.003 85 100.989 85 100.976C85 100.962 85 100.948 85 100.935C85 100.921 85 100.907 85 100.894C85 100.88 85 100.866 85 100.853C85 100.839 85 100.825 85 100.812C85 100.798 85 100.784 85 100.771C85 100.757 85 100.743 85 100.73C85 100.716 85 100.702 85 100.689C85 100.675 85 100.661 85 100.647C85 100.634 85 100.62 85 100.606C85 100.593 85 100.579 85 100.565C85 100.551 85 100.538 85 100.524C85 100.51 85 100.497 85 100.483C85 100.469 85 100.455 85 100.442C85 100.428 85 100.414 85 100.4C85 100.387 85 100.373 85 100.359C85 100.345 85 100.332 85 100.318C85 100.304 85 100.29 85 100.277C85 100.263 85 100.249 85 100.235C85 100.222 85 100.208 85 100.194C85 100.18 85 100.166 85 100.153C85 100.139 85 100.125 85 100.111C85 100.098 85 100.084 85 100.07C85 100.056 85 100.042 85 100.029C85 100.015 85 100.001 85 99.9873C85 99.9735 85 99.9597 85 99.9459C85 99.9321 85 99.9183 85 99.9045C85 99.8907 85 99.8769 85 99.8631C85 99.8493 85 99.8355 85 99.8217C85 99.8079 85 99.7941 85 99.7803C85 99.7665 85 99.7527 85 99.7389C85 99.725 85 99.7112 85 99.6974C85 99.6836 85 99.6698 85 99.656C85 99.6422 85 99.6284 85 99.6146C85 99.6008 85 99.5869 85 99.5731C85 99.5593 85 99.5455 85 99.5317C85 99.5179 85 99.5041 85 99.4902C85 99.4764 85 99.4626 85 99.4488C85 99.435 85 99.4212 85 99.4073C85 99.3935 85 99.3797 85 99.3659C85 99.3521 85 99.3383 85 99.3244C85 99.3106 85 99.2968 85 99.283C85 99.2692 85 99.2554 85 99.2415C85 99.2277 85 99.2139 85 99.2001C85 99.1863 85 99.1725 85 99.1587C85 99.1448 85 99.131 85 99.1172C85 99.1034 85 99.0896 85 99.0758C85 99.062 85 99.0482 85 99.0344C85 99.0205 85 99.0067 85 98.9929C85 98.9791 85 98.9653 85 98.9515C85 98.9377 85 98.9239 85 98.9101C85 98.8963 85 98.8825 85 98.8687C85 98.8549 85 98.8411 85 98.8273C85 98.8135 85 98.7997 85 98.7859C85 98.7721 85 98.7583 85 98.7445C85 98.7307 85 98.7169 85 98.7032C85 98.6894 85 98.6756 85 98.6618C85 98.648 85 98.6342 85 98.6205C85 98.6067 85 98.5929 85 98.5791C85 98.5653 85 98.5516 85 98.5378C85 98.524 85 98.5103 85 98.4965C85 98.4827 85 98.469 85 98.4552C85 98.4414 85 98.4277 85 98.4139C85 98.4002 85 98.3864 85 98.3727C85 98.3589 85 98.3452 85 98.3314C85 98.3177 85 98.3039 85 98.2902C85 98.2764 85 98.2627 85 98.249C85 98.2352 85 98.2215 85 98.2078C85 98.194 85 98.1803 85 98.1666C85 98.1529 85 98.1392 85 98.1254C85 98.1117 85 98.098 85 98.0843C85 98.0706 85 98.0569 85 98.0432C85 98.0295 85 98.0158 85 98.0021C85 97.9884 85 97.9747 85 97.961C85 97.9473 85 97.9337 85 97.92C85 97.9063 85 97.8926 85 97.879C85 97.8653 85 97.8516 85 97.838C85 97.8243 85 97.8106 85 97.797C85 97.7833 85 97.7697 85 97.756C85 97.7424 85 97.7287 85 97.7151C85 97.7015 85 97.6878 85 97.6742C85 97.6606 85 97.647 85 97.6333C85 97.6197 85 97.6061 85 97.5925C85 97.5789 85 97.5653 85 97.5517C85 97.5381 85 97.5245 85 97.5109C85 97.4973 85 97.4837 85 97.4702C85 97.4566 85 97.443 85 97.4294C85 97.4159 85 97.4023 85 97.3887C85 97.3752 85 97.3616 85 97.3481C85 97.3345 85 97.321 85 97.3075C85 97.2939 85 97.2804 85 97.2669C85 97.2533 85 97.2398 85 97.2263C85 97.2128 85 97.1993 85 97.1858C85 97.1723 85 97.1588 85 97.1453C85 97.1318 85 97.1183 85 97.1049C85 97.0914 85 97.0779 85 97.0645C85 97.051 85 97.0375 85 97.0241C85 97.0106 85 96.9972 85 96.9837C85 96.9703 85 96.9569 85 96.9435C85 96.93 85 96.9166 85 96.9032C85 96.8898 85 96.8764 85 96.863C85 96.8496 85 96.8362 85 96.8228C85 96.8094 85 96.796 85 96.7827C85 96.7693 85 96.7559 85 96.7426C85 96.7292 85 96.7159 85 96.7025C85 96.6892 85 96.6759 85 96.6625C85 96.6492 85 96.6359 85 96.6226C85 96.6093 85 96.596 85 96.5827C85 96.5694 85 96.5561 85 96.5428C85 96.5295 85 96.5162 85 96.503C85 96.4897 85 96.4765 85 96.4632C85 96.45 85 96.4367 85 96.4235C85 96.4102 85 96.397 85 96.3838C85 96.3706 85 96.3574 85 96.3442C85 96.331 85 96.3178 85 96.3046C85 96.2914 85 96.2782 85 96.2651C85 96.2519 85 96.2387 85 96.2256C85 96.2124 85 96.1993 85 96.1862C85 96.173 85 96.1599 85 96.1468C85 96.1337 85 96.1206 85 96.1075C85 96.0944 85 96.0813 85 96.0682C85 96.0551 85 96.0421 85 96.029C85 96.0159 85 96.0029 85 95.9899C85 95.9768 85 95.9638 85 95.9508C85 95.9377 85 95.9247 85 95.9117C85 95.8987 85 95.8857 85 95.8727C85 95.8597 85 95.8468 85 95.8338C85 95.8208 85 95.8079 85 95.7949C85 95.782 85 95.7691 85 95.7561C85 95.7432 85 95.7303 85 95.7174C85 95.7045 85 95.6916 85 95.6787C85 95.6658 85 95.6529 85 95.6401C85 95.6272 85 95.6143 85 95.6015C85 95.5887 85 95.5758 85 95.563C85 95.5502 85 95.5374 85 95.5246C85 95.5118 85 95.499 85 95.4862C85 95.4734 85 95.4606 85 95.4479C85 95.4351 85 95.4224 85 95.4096C85 95.3969 85 95.3842 85 95.3715C85 95.3588 85 95.346 85 95.3334C85 95.3207 85 95.308 85 95.2953C85 95.2826 85 95.27 85 95.2573C85 95.2447 85 95.2321 85 95.2194C85 95.2068 85 95.1942 85 95.1816C85 95.169 85 95.1564 85 95.1438C85 95.1313 85 95.1187 85 95.1061C85 95.0936 85 95.081 85 95.0685C85 95.056 85 95.0435 85 95.031C85 95.0185 85 95.006 85 94.9935C85 94.981 85 94.9685 85 94.9561C85 94.9436 85 94.9312 85 94.9187C85 94.9063 85 94.8939 85 94.8815C85 94.8691 85 94.8567 85 94.8443C85 94.8319 85 94.8196 85 94.8072C85 94.7949 85 94.7825 85 94.7702C85 94.7579 85 94.7455 85 94.7332C85 94.7209 85 94.7086 85 94.6964C85 94.6841 85 94.6718 85 94.6596C85 94.6473 85 94.6351 85 94.6229C85 94.6106 85 94.5984 85 94.5862C85 94.574 85 94.5618 85 94.5497C85 94.5375 85 94.5253 85 94.5132C85 94.5011 85 94.4889 85 94.4768C85 94.4647 85 94.4526 85 94.4405C85 94.4284 85 94.4164 85 94.4043C85 94.3922 85 94.3802 85 94.3682C85 94.3561 85 94.3441 85 94.3321C85 94.3201 85 94.3081 85 94.2961C85 94.2842 85 94.2722 85 94.2603C85 94.2483 85 94.2364 85 94.2245C85 94.2126 85 94.2007 85 94.1888C85 94.1769 85 94.165 85 94.1532C85 94.1413 85 94.1295 85 94.1176C85 94.1058 85 94.094 85 94.0822C85 94.0704 85 94.0586 85 94.0468C85 94.0351 85 94.0233 85 94.0116C85 93.9998 85 93.9881 85 93.9764C85 93.9647 85 93.953 85 93.9414C85 93.9297 85 93.918 85 93.9064C85 93.8947 85 93.8831 85 93.8715C85 93.8599 85 93.8483 85 93.8367C85 93.8251 85 93.8136 85 93.802C85 93.7905 85 93.7789 85 93.7674C85 93.7559 85 93.7444 85 93.7329C85 93.7214 85 93.7099 85 93.6985C85 93.687 85 93.6756 85 93.6642C85 93.6528 85 93.6414 85 93.63C85 93.6186 85 93.6072 85 93.5959C85 93.5845 85 93.5732 85 93.5619C85 93.5505 85 93.5392 85 93.528C85 93.5167 85 93.5054 85 93.4941C85 93.4829 85 93.4717 85 93.4604C85 93.4492 85 93.438 85 93.4268C85 93.4157 85 93.4045 85 93.3933C85 93.3822 85 93.3711 85 93.3599C85 93.3488 85 93.3377 85 93.3266C85 93.3156 85 93.3045 85 93.2935C85 93.2824 85 93.2714 85 93.2604C85 93.2494 85 93.2384 85 93.2274C85 93.2164 85 93.2055 85 93.1945C85 93.1836 85 93.1727 85 93.1618C85 93.1509 85 93.14 85 93.1291C85 93.1183 85 93.1074 85 93.0966C85 93.0858 85 93.075 85 93.0642C85 93.0534 85 93.0426 85 93.0318C85 93.0211 85 93.0104 85 92.9996C85 92.9889 85 92.9782 85 92.9675C85 92.9569 85 92.9462 85 92.9356C85 92.9249 85 92.9143 85 92.9037C85 92.8931 85 92.8825 85 92.8719C85 92.8614 85 92.8508 85 92.8403C85 92.8298 85 92.8193 85 92.8088C85 92.7983 85 92.7878 85 92.7774C85 92.7669 85 92.7565 85 92.7461C85 92.7356 85 92.7253 85 92.7149C85 92.7045 85 92.6942 85 92.6838C85 92.6735 85 92.6632 85 92.6529C85 92.6426 85 92.6323 85 92.6221C85 92.6118 85 92.6016 85 92.5914C85 92.5812 85 92.571 85 92.5608C85 92.5506 85 92.5405 85 92.5303C85 92.5202 85 92.5101 85 92.5H83C83 92.5101 83 92.5202 83 92.5303C83 92.5405 83 92.5506 83 92.5608C83 92.571 83 92.5812 83 92.5914C83 92.6016 83 92.6118 83 92.6221C83 92.6323 83 92.6426 83 92.6529C83 92.6632 83 92.6735 83 92.6838C83 92.6942 83 92.7045 83 92.7149C83 92.7253 83 92.7356 83 92.7461C83 92.7565 83 92.7669 83 92.7774C83 92.7878 83 92.7983 83 92.8088C83 92.8193 83 92.8298 83 92.8403C83 92.8508 83 92.8614 83 92.8719C83 92.8825 83 92.8931 83 92.9037C83 92.9143 83 92.9249 83 92.9356C83 92.9462 83 92.9569 83 92.9675C83 92.9782 83 92.9889 83 92.9996C83 93.0104 83 93.0211 83 93.0318C83 93.0426 83 93.0534 83 93.0642C83 93.075 83 93.0858 83 93.0966C83 93.1074 83 93.1183 83 93.1291C83 93.14 83 93.1509 83 93.1618C83 93.1727 83 93.1836 83 93.1945C83 93.2055 83 93.2164 83 93.2274C83 93.2384 83 93.2494 83 93.2604C83 93.2714 83 93.2824 83 93.2935C83 93.3045 83 93.3156 83 93.3266C83 93.3377 83 93.3488 83 93.3599C83 93.3711 83 93.3822 83 93.3933C83 93.4045 83 93.4157 83 93.4268C83 93.438 83 93.4492 83 93.4604C83 93.4717 83 93.4829 83 93.4941C83 93.5054 83 93.5167 83 93.528C83 93.5392 83 93.5505 83 93.5619C83 93.5732 83 93.5845 83 93.5959C83 93.6072 83 93.6186 83 93.63C83 93.6414 83 93.6528 83 93.6642C83 93.6756 83 93.687 83 93.6985C83 93.7099 83 93.7214 83 93.7329C83 93.7444 83 93.7559 83 93.7674C83 93.7789 83 93.7905 83 93.802C83 93.8136 83 93.8251 83 93.8367C83 93.8483 83 93.8599 83 93.8715C83 93.8831 83 93.8947 83 93.9064C83 93.918 83 93.9297 83 93.9414C83 93.953 83 93.9647 83 93.9764C83 93.9881 83 93.9998 83 94.0116C83 94.0233 83 94.0351 83 94.0468C83 94.0586 83 94.0704 83 94.0822C83 94.094 83 94.1058 83 94.1176C83 94.1295 83 94.1413 83 94.1532C83 94.165 83 94.1769 83 94.1888C83 94.2007 83 94.2126 83 94.2245C83 94.2364 83 94.2483 83 94.2603C83 94.2722 83 94.2842 83 94.2961C83 94.3081 83 94.3201 83 94.3321C83 94.3441 83 94.3561 83 94.3682C83 94.3802 83 94.3922 83 94.4043C83 94.4164 83 94.4284 83 94.4405C83 94.4526 83 94.4647 83 94.4768C83 94.4889 83 94.5011 83 94.5132C83 94.5253 83 94.5375 83 94.5497C83 94.5618 83 94.574 83 94.5862C83 94.5984 83 94.6106 83 94.6229C83 94.6351 83 94.6473 83 94.6596C83 94.6718 83 94.6841 83 94.6964C83 94.7086 83 94.7209 83 94.7332C83 94.7455 83 94.7579 83 94.7702C83 94.7825 83 94.7949 83 94.8072C83 94.8196 83 94.8319 83 94.8443C83 94.8567 83 94.8691 83 94.8815C83 94.8939 83 94.9063 83 94.9187C83 94.9312 83 94.9436 83 94.9561C83 94.9685 83 94.981 83 94.9935C83 95.006 83 95.0185 83 95.031C83 95.0435 83 95.056 83 95.0685C83 95.081 83 95.0936 83 95.1061C83 95.1187 83 95.1313 83 95.1438C83 95.1564 83 95.169 83 95.1816C83 95.1942 83 95.2068 83 95.2194C83 95.2321 83 95.2447 83 95.2573C83 95.27 83 95.2826 83 95.2953C83 95.308 83 95.3207 83 95.3334C83 95.346 83 95.3588 83 95.3715C83 95.3842 83 95.3969 83 95.4096C83 95.4224 83 95.4351 83 95.4479C83 95.4606 83 95.4734 83 95.4862C83 95.499 83 95.5118 83 95.5246C83 95.5374 83 95.5502 83 95.563C83 95.5758 83 95.5887 83 95.6015C83 95.6143 83 95.6272 83 95.6401C83 95.6529 83 95.6658 83 95.6787C83 95.6916 83 95.7045 83 95.7174C83 95.7303 83 95.7432 83 95.7561C83 95.7691 83 95.782 83 95.7949C83 95.8079 83 95.8208 83 95.8338C83 95.8468 83 95.8597 83 95.8727C83 95.8857 83 95.8987 83 95.9117C83 95.9247 83 95.9377 83 95.9508C83 95.9638 83 95.9768 83 95.9899C83 96.0029 83 96.0159 83 96.029C83 96.0421 83 96.0551 83 96.0682C83 96.0813 83 96.0944 83 96.1075C83 96.1206 83 96.1337 83 96.1468C83 96.1599 83 96.173 83 96.1862C83 96.1993 83 96.2124 83 96.2256C83 96.2387 83 96.2519 83 96.2651C83 96.2782 83 96.2914 83 96.3046C83 96.3178 83 96.331 83 96.3442C83 96.3574 83 96.3706 83 96.3838C83 96.397 83 96.4102 83 96.4235C83 96.4367 83 96.45 83 96.4632C83 96.4765 83 96.4897 83 96.503C83 96.5162 83 96.5295 83 96.5428C83 96.5561 83 96.5694 83 96.5827C83 96.596 83 96.6093 83 96.6226C83 96.6359 83 96.6492 83 96.6625C83 96.6759 83 96.6892 83 96.7025C83 96.7159 83 96.7292 83 96.7426C83 96.7559 83 96.7693 83 96.7827C83 96.796 83 96.8094 83 96.8228C83 96.8362 83 96.8496 83 96.863C83 96.8764 83 96.8898 83 96.9032C83 96.9166 83 96.93 83 96.9435C83 96.9569 83 96.9703 83 96.9837C83 96.9972 83 97.0106 83 97.0241C83 97.0375 83 97.051 83 97.0645C83 97.0779 83 97.0914 83 97.1049C83 97.1183 83 97.1318 83 97.1453C83 97.1588 83 97.1723 83 97.1858C83 97.1993 83 97.2128 83 97.2263C83 97.2398 83 97.2533 83 97.2669C83 97.2804 83 97.2939 83 97.3075C83 97.321 83 97.3345 83 97.3481C83 97.3616 83 97.3752 83 97.3887C83 97.4023 83 97.4159 83 97.4294C83 97.443 83 97.4566 83 97.4702C83 97.4837 83 97.4973 83 97.5109C83 97.5245 83 97.5381 83 97.5517C83 97.5653 83 97.5789 83 97.5925C83 97.6061 83 97.6197 83 97.6333C83 97.647 83 97.6606 83 97.6742C83 97.6878 83 97.7015 83 97.7151C83 97.7287 83 97.7424 83 97.756C83 97.7697 83 97.7833 83 97.797C83 97.8106 83 97.8243 83 97.838C83 97.8516 83 97.8653 83 97.879C83 97.8926 83 97.9063 83 97.92C83 97.9337 83 97.9473 83 97.961C83 97.9747 83 97.9884 83 98.0021C83 98.0158 83 98.0295 83 98.0432C83 98.0569 83 98.0706 83 98.0843C83 98.098 83 98.1117 83 98.1254C83 98.1392 83 98.1529 83 98.1666C83 98.1803 83 98.194 83 98.2078C83 98.2215 83 98.2352 83 98.249C83 98.2627 83 98.2764 83 98.2902C83 98.3039 83 98.3177 83 98.3314C83 98.3452 83 98.3589 83 98.3727C83 98.3864 83 98.4002 83 98.4139C83 98.4277 83 98.4414 83 98.4552C83 98.469 83 98.4827 83 98.4965C83 98.5103 83 98.524 83 98.5378C83 98.5516 83 98.5653 83 98.5791C83 98.5929 83 98.6067 83 98.6205C83 98.6342 83 98.648 83 98.6618C83 98.6756 83 98.6894 83 98.7032C83 98.7169 83 98.7307 83 98.7445C83 98.7583 83 98.7721 83 98.7859C83 98.7997 83 98.8135 83 98.8273C83 98.8411 83 98.8549 83 98.8687C83 98.8825 83 98.8963 83 98.9101C83 98.9239 83 98.9377 83 98.9515C83 98.9653 83 98.9791 83 98.9929C83 99.0067 83 99.0205 83 99.0344C83 99.0482 83 99.062 83 99.0758C83 99.0896 83 99.1034 83 99.1172C83 99.131 83 99.1448 83 99.1587C83 99.1725 83 99.1863 83 99.2001C83 99.2139 83 99.2277 83 99.2415C83 99.2554 83 99.2692 83 99.283C83 99.2968 83 99.3106 83 99.3244C83 99.3383 83 99.3521 83 99.3659C83 99.3797 83 99.3935 83 99.4073C83 99.4212 83 99.435 83 99.4488C83 99.4626 83 99.4764 83 99.4902C83 99.5041 83 99.5179 83 99.5317C83 99.5455 83 99.5593 83 99.5731C83 99.5869 83 99.6008 83 99.6146C83 99.6284 83 99.6422 83 99.656C83 99.6698 83 99.6836 83 99.6974C83 99.7112 83 99.725 83 99.7389C83 99.7527 83 99.7665 83 99.7803C83 99.7941 83 99.8079 83 99.8217C83 99.8355 83 99.8493 83 99.8631C83 99.8769 83 99.8907 83 99.9045C83 99.9183 83 99.9321 83 99.9459C83 99.9597 83 99.9735 83 99.9873C83 100.001 83 100.015 83 100.029C83 100.042 83 100.056 83 100.07C83 100.084 83 100.098 83 100.111C83 100.125 83 100.139 83 100.153C83 100.166 83 100.18 83 100.194C83 100.208 83 100.222 83 100.235C83 100.249 83 100.263 83 100.277C83 100.29 83 100.304 83 100.318C83 100.332 83 100.345 83 100.359C83 100.373 83 100.387 83 100.4C83 100.414 83 100.428 83 100.442C83 100.455 83 100.469 83 100.483C83 100.497 83 100.51 83 100.524C83 100.538 83 100.551 83 100.565C83 100.579 83 100.593 83 100.606C83 100.62 83 100.634 83 100.647C83 100.661 83 100.675 83 100.689C83 100.702 83 100.716 83 100.73C83 100.743 83 100.757 83 100.771C83 100.784 83 100.798 83 100.812C83 100.825 83 100.839 83 100.853C83 100.866 83 100.88 83 100.894C83 100.907 83 100.921 83 100.935C83 100.948 83 100.962 83 100.976C83 100.989 83 101.003 83 101.017C83 101.03 83 101.044 83 101.058C83 101.071 83 101.085 83 101.098C83 101.112 83 101.126 83 101.139C83 101.153 83 101.166 83 101.18C83 101.194 83 101.207 83 101.221C83 101.234 83 101.248 83 101.262C83 101.275 83 101.289 83 101.302C83 101.316 83 101.329 83 101.343C83 101.357 83 101.37 83 101.384C83 101.397 83 101.411 83 101.424C83 101.438 83 101.451 83 101.465C83 101.478 83 101.492 83 101.505C83 101.519 83 101.532 83 101.546C83 101.559 83 101.573 83 101.586C83 101.6 83 101.613 83 101.627C83 101.64 83 101.654 83 101.667C83 101.681 83 101.694 83 101.708C83 101.721 83 101.735 83 101.748C83 101.761 83 101.775 83 101.788C83 101.802 83 101.815 83 101.829C83 101.842 83 101.855 83 101.869C83 101.882 83 101.896 83 101.909C83 101.922 83 101.936 83 101.949C83 101.962 83 101.976 83 101.989C83 102.002 83 102.016 83 102.029C83 102.043 83 102.056 83 102.069C83 102.082 83 102.096 83 102.109C83 102.122 83 102.136 83 102.149C83 102.162 83 102.176 83 102.189C83 102.202 83 102.215 83 102.229C83 102.242 83 102.255 83 102.268C83 102.282 83 102.295 83 102.308C83 102.321 83 102.335 83 102.348C83 102.361 83 102.374 83 102.387C83 102.401 83 102.414 83 102.427C83 102.44 83 102.453 83 102.467C83 102.48 83 102.493 83 102.506C83 102.519 83 102.532 83 102.545C83 102.559 83 102.572 83 102.585C83 102.598 83 102.611 83 102.624C83 102.637 83 102.65 83 102.663C83 102.677 83 102.69 83 102.703C83 102.716 83 102.729 83 102.742C83 102.755 83 102.768 83 102.781C83 102.794 83 102.807 83 102.82C83 102.833 83 102.846 83 102.859C83 102.872 83 102.885 83 102.898C83 102.911 83 102.924 83 102.937C83 102.95 83 102.963 83 102.975C83 102.988 83 103.001 83 103.014C83 103.027 83 103.04 83 103.053C83 103.066 83 103.079 83 103.092C83 103.104 83 103.117 83 103.13C83 103.143 83 103.156 83 103.169C83 103.181 83 103.194 83 103.207C83 103.22 83 103.233 83 103.245C83 103.258 83 103.271 83 103.284C83 103.296 83 103.309 83 103.322C83 103.335 83 103.347 83 103.36C83 103.373 83 103.386 83 103.398C83 103.411 83 103.424 83 103.436C83 103.449 83 103.462 83 103.474C83 103.487 83 103.5 83 103.512C83 103.525 83 103.537 83 103.55C83 103.563 83 103.575 83 103.588C83 103.6 83 103.613 83 103.625C83 103.638 83 103.651 83 103.663C83 103.676 83 103.688 83 103.701C83 103.713 83 103.726 83 103.738C83 103.751 83 103.763 83 103.775C83 103.788 83 103.8 83 103.813C83 103.825 83 103.838 83 103.85C83 103.862 83 103.875 83 103.887C83 103.9 83 103.912 83 103.924C83 103.937 83 103.949 83 103.961C83 103.974 83 103.986 83 103.998C83 104.011 83 104.023 83 104.035C83 104.047 83 104.06 83 104.072C83 104.084 83 104.096 83 104.109C83 104.121 83 104.133 83 104.145C83 104.157 83 104.17 83 104.182C83 104.194 83 104.206 83 104.218C83 104.23 83 104.243 83 104.255C83 104.267 83 104.279 83 104.291C83 104.303 83 104.315 83 104.327C83 104.339 83 104.351 83 104.363C83 104.375 83 104.387 83 104.399C83 104.411 83 104.423 83 104.435C83 104.447 83 104.459 83 104.471C83 104.483 83 104.495 83 104.507C83 104.519 83 104.531 83 104.543C83 104.555 83 104.566 83 104.578C83 104.59 83 104.602 83 104.614C83 104.626 83 104.637 83 104.649C83 104.661 83 104.673 83 104.685C83 104.696 83 104.708 83 104.72C83 104.732 83 104.743 83 104.755C83 104.767 83 104.778 83 104.79C83 104.802 83 104.813 83 104.825C83 104.837 83 104.848 83 104.86C83 104.872 83 104.883 83 104.895C83 104.906 83 104.918 83 104.929C83 104.941 83 104.952 83 104.964C83 104.975 83 104.987 83 104.998C83 105.01 83 105.021 83 105.033C83 105.044 83 105.056 83 105.067C83 105.079 83 105.09 83 105.101C83 105.113 83 105.124 83 105.135C83 105.147 83 105.158 83 105.169C83 105.181 83 105.192 83 105.203C83 105.215 83 105.226 83 105.237C83 105.248 83 105.26 83 105.271C83 105.282 83 105.293 83 105.304C83 105.316 83 105.327 83 105.338C83 105.349 83 105.36 83 105.371C83 105.382 83 105.394 83 105.405C83 105.416 83 105.427 83 105.438C83 105.449 83 105.46 83 105.471C83 105.482 83 105.493 83 105.504C83 105.515 83 105.526 83 105.537C83 105.548 83 105.559 83 105.569C83 105.58 83 105.591 83 105.602C83 105.613 83 105.624 83 105.635C83 105.645 83 105.656 83 105.667C83 105.678 83 105.689 83 105.699C83 105.71 83 105.721 83 105.732C83 105.742 83 105.753 83 105.764C83 105.774 83 105.785 83 105.796C83 105.806 83 105.817 83 105.828C83 105.838 83 105.849 83 105.859C83 105.87 83 105.88 83 105.891C83 105.901 83 105.912 83 105.922C83 105.933 83 105.943 83 105.954C83 105.964 83 105.975 83 105.985C83 105.996 83 106.006 83 106.016C83 106.027 83 106.037 83 106.047C83 106.058 83 106.068 83 106.078C83 106.089 83 106.099 83 106.109C83 106.119 83 106.13 83 106.14C83 106.15 83 106.16 83 106.17C83 106.18 83 106.191 83 106.201C83 106.211 83 106.221 83 106.231C83 106.241 83 106.251 83 106.261C83 106.271 83 106.281 83 106.291C83 106.301 83 106.311 83 106.321C83 106.331 83 106.341 83 106.351C83 106.361 83 106.371 83 106.381C83 106.391 83 106.401 83 106.41C83 106.42 83 106.43 83 106.44C83 106.45 83 106.459 83 106.469C83 106.479 83 106.489 83 106.498C83 106.508 83 106.518 83 106.527C83 106.537 83 106.547 83 106.556C83 106.566 83 106.576 83 106.585C83 106.595 83 106.604 83 106.614C83 106.623 83 106.633 83 106.642C83 106.652 83 106.661 83 106.671C83 106.68 83 106.69 83 106.699C83 106.709 83 106.718 83 106.727C83 106.737 83 106.746 83 106.755C83 106.765 83 106.774 83 106.783C83 106.792 83 106.802 83 106.811C83 106.82 83 106.829 83 106.839C83 106.848 83 106.857 83 106.866C83 106.875 83 106.884 83 106.893C83 106.902 83 106.911 83 106.921C83 106.93 83 106.939 83 106.948C83 106.957 83 106.966 83 106.974C83 106.983 83 106.992 83 107.001C83 107.01 83 107.019 83 107.028C83 107.037 83 107.046 83 107.054C83 107.063 83 107.072 83 107.081C83 107.089 83 107.098 83 107.107C83 107.116 83 107.124 83 107.133C83 107.142 83 107.15 83 107.159C83 107.168 83 107.176 83 107.185C83 107.193 83 107.202 83 107.21C83 107.219 83 107.227 83 107.236C83 107.244 83 107.253 83 107.261C83 107.27 83 107.278 83 107.286C83 107.295 83 107.303 83 107.311C83 107.32 83 107.328 83 107.336C83 107.344 83 107.353 83 107.361C83 107.369 83 107.377 83 107.386C83 107.394 83 107.402 83 107.41C83 107.418 83 107.426 83 107.434C83 107.442 83 107.45 83 107.458C83 107.466 83 107.474 83 107.482C83 107.49 83 107.498 83 107.506C83 107.514 83 107.522 83 107.53C83 107.538 83 107.546 83 107.553C83 107.561 83 107.569 83 107.577C83 107.584 83 107.592 83 107.6C83 107.608 83 107.615 83 107.623C83 107.631 83 107.638 83 107.646C83 107.653 83 107.661 83 107.669C83 107.676 83 107.684 83 107.691C83 107.699 83 107.706 83 107.714C83 107.721 83 107.728 83 107.736C83 107.743 83 107.751 83 107.758C83 107.765 83 107.773 83 107.78C83 107.787 83 107.794 83 107.802C83 107.809 83 107.816 83 107.823C83 107.83 83 107.837 83 107.845C83 107.852 83 107.859 83 107.866C83 107.873 83 107.88 83 107.887C83 107.894 83 107.901 83 107.908C83 107.915 83 107.922 83 107.929C83 107.936 83 107.942 83 107.949C83 107.956 83 107.963 83 107.97C83 107.976 83 107.983 83 107.99C83 107.997 83 108.003 83 108.01C83 108.017 83 108.023 83 108.03C83 108.037 83 108.043 83 108.05C83 108.056 83 108.063 83 108.069C83 108.076 83 108.082 83 108.089C83 108.095 83 108.102 83 108.108C83 108.114 83 108.121 83 108.127C83 108.133 83 108.14 83 108.146C83 108.152 83 108.158 83 108.165C83 108.171 83 108.177 83 108.183C83 108.189 83 108.195 83 108.202C83 108.208 83 108.214 83 108.22C83 108.226 83 108.232 83 108.238C83 108.244 83 108.25 83 108.256C83 108.262 83 108.267 83 108.273C83 108.279 83 108.285 83 108.291C83 108.297 83 108.302 83 108.308C83 108.314 83 108.319 83 108.325C83 108.331 83 108.336 83 108.342C83 108.348 83 108.353 83 108.359C83 108.364 83 108.37 83 108.375C83 108.381 83 108.386 83 108.392C83 108.397 83 108.403 83 108.408C83 108.413 83 108.419 83 108.424C83 108.429 83 108.435 83 108.44C83 108.445 83 108.45 83 108.455C83 108.461 83 108.466 83 108.471C83 108.476 83 108.481 83 108.486C83 108.491 83 108.496 83 108.501C83 108.506 83 108.511 83 108.516C83 108.521 83 108.526 83 108.531C83 108.536 83 108.541 83 108.545C83 108.55 83 108.555 83 108.56C83 108.564 83 108.569 83 108.574C83 108.578 83 108.583 83 108.588C83 108.592 83 108.597 83 108.601C83 108.606 83 108.61 83 108.615C83 108.619 83 108.624 83 108.628C83 108.633 83 108.637 83 108.641C83 108.646 83 108.65 83 108.654C83 108.659 83 108.663 83 108.667C83 108.671 83 108.676 83 108.68C83 108.684 83 108.688 83 108.692C83 108.696 83 108.7 83 108.704C83 108.708 83 108.712 83 108.716C83 108.72 83 108.724 83 108.728C83 108.732 83 108.736 83 108.74C83 108.743 83 108.747 83 108.751C83 108.755 83 108.758 83 108.762C83 108.766 83 108.77 83 108.773C83 108.777 83 108.78 83 108.784C83 108.787 83 108.791 83 108.794C83 108.798 83 108.801 83 108.805C83 108.808 83 108.812 83 108.815C83 108.818 83 108.822 83 108.825C83 108.828 83 108.831 83 108.835C83 108.838 83 108.841 83 108.844C83 108.847 83 108.85 83 108.853C83 108.857 83 108.86 83 108.863C83 108.866 83 108.869 83 108.871C83 108.874 83 108.877 83 108.88C83 108.883 83 108.886 83 108.889C83 108.891 83 108.894 83 108.897C83 108.9 83 108.902 83 108.905C83 108.908 83 108.91 83 108.913C83 108.915 83 108.918 83 108.92C83 108.923 83 108.925 83 108.928C83 108.93 83 108.933 83 108.935C83 108.937 83 108.94 83 108.942C83 108.944 83 108.947 83 108.949C83 108.951 83 108.953 83 108.955C83 108.958 83 108.96 83 108.962C83 108.964 83 108.966 83 108.968C83 108.97 83 108.972 83 108.974C83 108.976 83 108.978 83 108.979C83 108.981 83 108.983 83 108.985C83 108.987 83 108.988 83 108.99C83 108.992 83 108.994 83 108.995C83 108.997 83 108.998 83 109H85Z" fill="white"/>
<path d="M64 84L63.1679 84.5547C63.3534 84.8329 63.6656 85 64 85C64.3344 85 64.6466 84.8329 64.8321 84.5547L64 84ZM71.1679 71.4453L63.1679 83.4453L64.8321 84.5547L72.8321 72.5547L71.1679 71.4453ZM64.8321 83.4453L56.8321 71.4453L55.1679 72.5547L63.1679 84.5547L64.8321 83.4453Z" fill="white"/>
<path d="M52 75.5L55.5 83.5C56.1565 84.7208 56.672 85.0221 58 84.5L61.5 82" stroke="white" stroke-width="2"/>
<path d="M76 75L72 83.5C71.3435 84.7208 70.828 85.0221 69.5 84.5L66 82" stroke="white" stroke-width="2"/>
<path d="M71 93.5C70.1716 93.5 69.5 94.1716 69.5 95C69.5 95.8284 70.1716 96.5 71 96.5V93.5ZM77 96.5C77.8284 96.5 78.5 95.8284 78.5 95C78.5 94.1716 77.8284 93.5 77 93.5V96.5ZM71 96.5H77V93.5H71V96.5Z" fill="white"/>
<path d="M85 46.5C85 33 84.5001 28 78.5001 25C70.5001 15.5 56.5001 15.5 47.5001 25.5C44.3501 29 41.5001 34 42.0001 47.5" stroke="white" stroke-width="2" stroke-linejoin="round"/>
</g>
<defs>
<clipPath id="clip0_120_2">
<rect width="94" height="94" fill="white" transform="translate(17 17)"/>
</clipPath>
</defs>
</svg>
