<svg width="128" height="128" viewBox="0 0 128 128" fill="none" xmlns="http://www.w3.org/2000/svg">
<path d="M92.6087 18H44.5869C42.8941 18 41.5217 19.3723 41.5217 21.0652V28.5M92.6087 18V33.3261C92.6087 35.019 93.981 36.3913 95.6739 36.3913H111M92.6087 18L111 36.3913M111 36.3913V106.891C111 108.584 109.628 109.957 107.935 109.957H44.5869C42.8941 109.957 41.5217 108.584 41.5217 106.891V66" stroke="white" stroke-width="2"/>
<mask id="path-2-inside-1_120_22" fill="white">
<path d="M55.5483 57.0899C53.8666 60.3101 51.3568 63.0238 48.2774 64.9515C45.198 66.8791 41.6604 67.9509 38.029 68.0566C34.3975 68.1622 30.8036 67.2978 27.6174 65.5525C24.4312 63.8071 21.7678 61.2439 19.9018 58.1268C18.0357 55.0097 17.0343 51.4515 17.0009 47.8187C16.9674 44.1859 17.903 40.6099 19.7113 37.4589C21.5196 34.308 24.1353 31.6961 27.2888 29.8923C30.4423 28.0886 34.0197 27.1581 37.6525 27.1968L37.4348 47.6304L55.5483 57.0899Z"/>
</mask>
<path d="M55.5483 57.0899C53.8666 60.3101 51.3568 63.0238 48.2774 64.9515C45.198 66.8791 41.6604 67.9509 38.029 68.0566C34.3975 68.1622 30.8036 67.2978 27.6174 65.5525C24.4312 63.8071 21.7678 61.2439 19.9018 58.1268C18.0357 55.0097 17.0343 51.4515 17.0009 47.8187C16.9674 44.1859 17.903 40.6099 19.7113 37.4589C21.5196 34.308 24.1353 31.6961 27.2888 29.8923C30.4423 28.0886 34.0197 27.1581 37.6525 27.1968L37.4348 47.6304L55.5483 57.0899Z" stroke="white" stroke-width="4.08696" mask="url(#path-2-inside-1_120_22)"/>
<path d="M86.0331 44.5703C91.0014 44.5703 95.9696 44.5703 100.916 44.5703C102.076 44.5703 102.754 45.0597 102.82 45.9366C102.886 46.7319 102.404 47.3845 101.573 47.568C101.288 47.6292 100.982 47.6292 100.675 47.6292C90.8919 47.6292 81.0868 47.6292 71.3035 47.6292C70.9533 47.6292 70.6031 47.6496 70.253 47.5272C69.5088 47.2825 69.0492 46.6299 69.1149 45.9366C69.2024 45.2229 69.7715 44.6723 70.5375 44.5907C70.8439 44.5499 71.1284 44.5703 71.4348 44.5703C76.3374 44.5703 81.1962 44.5703 86.0331 44.5703Z" fill="white"/>
<path d="M75.283 33.3312C78.5951 33.3312 81.9073 33.3312 85.2049 33.3312C85.9782 33.3312 86.4305 33.8206 86.4743 34.6975C86.5181 35.4928 86.1971 36.1453 85.6426 36.3288C85.4529 36.39 85.2486 36.39 85.0444 36.39C78.5222 36.39 71.9854 36.39 65.4632 36.39C65.2298 36.39 64.9963 36.4104 64.7629 36.2881C64.2668 36.0434 63.9604 35.3908 64.0041 34.6975C64.0625 33.9837 64.4419 33.4331 64.9526 33.3516C65.1568 33.3108 65.3465 33.3312 65.5508 33.3312C68.8192 33.3312 72.0584 33.3312 75.283 33.3312Z" fill="white"/>
<path d="M75.283 26.179C78.5951 26.179 81.9073 26.179 85.2049 26.179C85.9782 26.179 86.4305 26.6684 86.4743 27.5453C86.5181 28.3406 86.1971 28.9931 85.6426 29.1767C85.4529 29.2378 85.2486 29.2378 85.0444 29.2378C78.5222 29.2378 71.9854 29.2378 65.4632 29.2378C65.2298 29.2378 64.9963 29.2582 64.7629 29.1359C64.2668 28.8912 63.9604 28.2386 64.0041 27.5453C64.0625 26.8316 64.4419 26.281 64.9526 26.1994C65.1568 26.1586 65.3465 26.179 65.5508 26.179C68.8192 26.179 72.0584 26.179 75.283 26.179Z" fill="white"/>
<path d="M86.0844 51.7265C91.0496 51.7265 96.0149 51.7265 100.958 51.7265C101.943 51.7265 102.577 52.136 102.774 52.8527C103.014 53.7741 102.402 54.6137 101.396 54.757C101.155 54.798 100.915 54.7775 100.652 54.7775C90.8746 54.7775 81.0753 54.7775 71.2979 54.7775C71.1011 54.7775 70.9261 54.7775 70.7292 54.7775C69.7668 54.6956 69.0668 54.0199 69.1106 53.1803C69.1543 52.3613 69.8543 51.747 70.7948 51.7265C72.7634 51.706 74.7102 51.7265 76.6788 51.7265C79.8067 51.7265 82.9565 51.7265 86.0844 51.7265Z" fill="white"/>
<circle cx="65.5326" cy="46.0978" r="1.53261" fill="white"/>
<circle cx="65.5326" cy="53.25" r="1.53261" fill="white"/>
<path d="M86.0844 58.8787C91.0496 58.8787 96.0149 58.8787 100.958 58.8787C101.943 58.8787 102.577 59.2882 102.774 60.0049C103.014 60.9263 102.402 61.7659 101.396 61.9092C101.155 61.9501 100.915 61.9297 100.652 61.9297C90.8746 61.9297 81.0753 61.9297 71.2979 61.9297C71.1011 61.9297 70.9261 61.9297 70.7292 61.9297C69.7668 61.8478 69.0668 61.172 69.1106 60.3325C69.1543 59.5134 69.8543 58.8991 70.7948 58.8787C72.7634 58.8582 74.7102 58.8787 76.6788 58.8787C79.8067 58.8787 82.9565 58.8787 86.0844 58.8787Z" fill="white"/>
<circle cx="65.5326" cy="60.4022" r="1.53261" fill="white"/>
<circle cx="52.7609" cy="93.6087" r="4.08696" fill="white"/>
<circle cx="67.0652" cy="79.3043" r="4.08696" fill="white"/>
<circle cx="79.3261" cy="93.6087" r="4.08696" fill="white"/>
<circle cx="98.7392" cy="72.1522" r="4.08696" fill="white"/>
<path d="M58.7854 85.8199C60.8481 83.6051 62.9017 81.4001 64.9644 79.1853C65.4938 78.6169 66.0271 78.528 66.4796 78.9129C66.8742 79.2438 66.9543 79.7576 66.6659 80.2027C66.5666 80.3481 66.4484 80.4942 66.3206 80.6314C62.2591 84.9924 58.1976 89.3534 54.136 93.7143C53.5154 94.3807 52.9359 94.4998 52.4631 94.0595C51.9811 93.6289 52.0679 93.0326 52.6794 92.376C54.7147 90.1906 56.7501 88.0052 58.7854 85.8199Z" fill="white"/>
<path d="M73.366 87.6711C71.4552 85.324 69.5529 82.9872 67.6422 80.6401C67.1518 80.0377 67.1369 79.4973 67.5802 79.1019C67.9621 78.7564 68.4821 78.7476 68.8834 79.0943C69.0137 79.2127 69.1423 79.3498 69.2607 79.4952C73.023 84.1167 76.7854 88.7383 80.5477 93.3599C81.1226 94.0661 81.1611 94.6564 80.66 95.0644C80.1674 95.4827 79.5887 95.3149 79.0222 94.619C77.1368 92.3031 75.2514 89.9871 73.366 87.6711Z" fill="white"/>
<path d="M89.3672 81.649C91.995 78.8111 94.6111 75.9858 97.2388 73.1479C97.9132 72.4196 98.5271 72.2418 98.9858 72.6198C99.3864 72.9441 99.4073 73.5232 99.0216 74.0757C98.8898 74.2568 98.7367 74.4416 98.5739 74.6174C93.3999 80.2053 88.2258 85.7931 83.0517 91.381C82.2611 92.2349 81.5909 92.454 81.1168 92.015C80.631 91.5885 80.8097 90.891 81.5887 90.0497C84.1815 87.2494 86.7744 84.4492 89.3672 81.649Z" fill="white"/>
<mask id="path-18-inside-2_120_22" fill="white">
<path fill-rule="evenodd" clip-rule="evenodd" d="M53.6364 56.4326C50.5122 62.1709 44.4283 66.0652 37.4348 66.0652C27.2535 66.0652 19 57.8117 19 47.6304C19 37.4704 27.2192 29.2301 37.3711 29.1958L37.3697 29.0005C40.5999 28.9777 43.7797 29.8011 46.5928 31.3888C49.4059 32.9764 51.7543 35.273 53.4043 38.05C55.0543 40.8269 55.9485 43.9876 55.9978 47.2174C56.0472 50.4472 55.25 53.6337 53.6856 56.4598L53.6364 56.4326ZM57.8696 47.6304C57.8696 58.9162 48.7206 68.0652 37.4348 68.0652C26.149 68.0652 17 58.9162 17 47.6304C17 36.3446 26.149 27.1956 37.4348 27.1956C48.7206 27.1956 57.8696 36.3446 57.8696 47.6304Z"/>
</mask>
<path d="M53.6364 56.4326L54.6051 54.6828L52.843 53.7073L51.8799 55.4762L53.6364 56.4326ZM37.3711 29.1958L37.3779 31.1957L39.3852 31.189L39.3711 29.1817L37.3711 29.1958ZM37.3697 29.0005L37.3557 27.0005L35.3557 27.0146L35.3698 29.0145L37.3697 29.0005ZM46.5928 31.3888L45.6098 33.1305L45.6098 33.1305L46.5928 31.3888ZM55.9978 47.2174L53.9981 47.2479L55.9978 47.2174ZM53.6856 56.4598L52.7169 58.2095L54.4667 59.1782L55.4354 57.4284L53.6856 56.4598ZM37.4348 68.0652C45.1897 68.0652 51.9326 63.7447 55.393 57.3889L51.8799 55.4762C49.0918 60.5972 43.6669 64.0652 37.4348 64.0652V68.0652ZM17 47.6304C17 58.9162 26.149 68.0652 37.4348 68.0652V64.0652C28.3581 64.0652 21 56.7071 21 47.6304H17ZM37.3644 27.1958C26.1108 27.2338 17 36.3681 17 47.6304H21C21 38.5727 28.3275 31.2263 37.3779 31.1957L37.3644 27.1958ZM35.3698 29.0145L35.3712 29.2098L39.3711 29.1817L39.3697 28.9864L35.3698 29.0145ZM47.5758 29.647C44.4585 27.8877 40.935 26.9753 37.3557 27.0005L37.3838 31.0004C40.2647 30.9801 43.1008 31.7145 45.6098 33.1305L47.5758 29.647ZM55.1237 37.0283C53.2953 33.9511 50.693 31.4063 47.5758 29.647L45.6098 33.1305C48.1188 34.5465 50.2133 36.5948 51.6849 39.0716L55.1237 37.0283ZM57.9976 47.1868C57.9429 43.6078 56.9521 40.1055 55.1237 37.0283L51.6849 39.0716C53.1566 41.5484 53.9541 44.3673 53.9981 47.2479L57.9976 47.1868ZM55.4354 57.4284C57.1689 54.2968 58.0523 50.7658 57.9976 47.1868L53.9981 47.2479C54.0421 50.1286 53.3311 52.9706 51.9358 55.4911L55.4354 57.4284ZM52.6678 58.1823L52.7169 58.2095L54.6542 54.71L54.6051 54.6828L52.6678 58.1823ZM37.4348 70.0652C49.8252 70.0652 59.8696 60.0208 59.8696 47.6304H55.8696C55.8696 57.8117 47.616 66.0652 37.4348 66.0652V70.0652ZM15 47.6304C15 60.0208 25.0444 70.0652 37.4348 70.0652V66.0652C27.2535 66.0652 19 57.8117 19 47.6304H15ZM37.4348 25.1956C25.0444 25.1956 15 35.24 15 47.6304H19C19 37.4492 27.2535 29.1956 37.4348 29.1956V25.1956ZM59.8696 47.6304C59.8696 35.24 49.8252 25.1956 37.4348 25.1956V29.1956C47.616 29.1956 55.8696 37.4492 55.8696 47.6304H59.8696Z" fill="white" mask="url(#path-18-inside-2_120_22)"/>
</svg>
