<svg width="128" height="128" viewBox="0 0 128 128" fill="none" xmlns="http://www.w3.org/2000/svg">
<path d="M25 108.537C24.4535 108.537 24.0105 108.98 24.0105 109.526C24.0105 110.073 24.4535 110.516 25 110.516V108.537ZM102.179 110.516C102.725 110.516 103.168 110.073 103.168 109.526C103.168 108.98 102.725 108.537 102.179 108.537V110.516ZM97.7263 110.516H102.179V108.537H97.7263V110.516ZM98.7158 109.526V53.6211H96.7368V109.526H98.7158ZM95.7474 50.6526H83.3789V52.6316H95.7474V50.6526ZM83.3789 110.516H97.7263V108.537H83.3789V110.516ZM82.3895 51.6421V109.526H84.3684V51.6421H82.3895ZM25 110.516H30.9368V108.537H25V110.516ZM31.9263 109.526V66.4842H29.9474V109.526H31.9263ZM32.9158 65.4947H42.8105V63.5158H32.9158V65.4947ZM30.9368 110.516H42.8105V108.537H30.9368V110.516ZM41.8211 64.5053V109.526H43.8V64.5053H41.8211ZM43.8 64.5053V29.3789H41.8211V64.5053H43.8ZM82.3895 29.3789V51.6421H84.3684V29.3789H82.3895ZM77.9368 28.3895H81.4V26.4105H77.9368V28.3895ZM78.9263 27.4V19.9789H76.9474V27.4H78.9263ZM75.9579 17.0105H50.7263V18.9895H75.9579V17.0105ZM44.7895 28.3895H48.7474V26.4105H44.7895V28.3895ZM48.7474 28.3895H77.9368V26.4105H48.7474V28.3895ZM47.7579 19.9789V27.4H49.7368V19.9789H47.7579ZM49.2421 38.2842V42.7368H51.2211V38.2842H49.2421ZM52.2105 45.7053H57.1579V43.7263H52.2105V45.7053ZM60.1263 42.7368V38.2842H58.1474V42.7368H60.1263ZM57.1579 35.3158H52.2105V37.2947H57.1579V35.3158ZM66.5579 38.2842V42.7368H68.5368V38.2842H66.5579ZM69.5263 45.7053H73.9789V43.7263H69.5263V45.7053ZM76.9474 42.7368V38.2842H74.9684V42.7368H76.9474ZM73.9789 35.3158H69.5263V37.2947H73.9789V35.3158ZM49.2421 57.0842V61.5368H51.2211V57.0842H49.2421ZM52.2105 64.5053H57.1579V62.5263H52.2105V64.5053ZM60.1263 61.5368V57.0842H58.1474V61.5368H60.1263ZM57.1579 54.1158H52.2105V56.0947H57.1579V54.1158ZM66.5579 57.0842V61.5368H68.5368V57.0842H66.5579ZM69.5263 64.5053H73.9789V62.5263H69.5263V64.5053ZM76.9474 61.5368V57.0842H74.9684V61.5368H76.9474ZM73.9789 54.1158H69.5263V56.0947H73.9789V54.1158ZM49.2421 76.3789V80.8316H51.2211V76.3789H49.2421ZM52.2105 83.8H57.1579V81.8211H52.2105V83.8ZM60.1263 80.8316V76.3789H58.1474V80.8316H60.1263ZM57.1579 73.4105H52.2105V75.3895H57.1579V73.4105ZM66.5579 76.3789V80.8316H68.5368V76.3789H66.5579ZM69.5263 83.8H73.9789V81.8211H69.5263V83.8ZM76.9474 80.8316V76.3789H74.9684V80.8316H76.9474ZM73.9789 73.4105H69.5263V75.3895H73.9789V73.4105ZM42.8105 110.516H56.1684V108.537H42.8105V110.516ZM57.1579 109.526V97.6526H55.1789V109.526H57.1579ZM58.1474 96.6632H68.5368V94.6842H58.1474V96.6632ZM56.1684 110.516H70.5158V108.537H56.1684V110.516ZM70.5158 110.516H83.3789V108.537H70.5158V110.516ZM69.5263 97.6526V109.526H71.5053V97.6526H69.5263ZM68.5368 96.6632C69.0833 96.6632 69.5263 97.1062 69.5263 97.6526H71.5053C71.5053 96.0132 70.1763 94.6842 68.5368 94.6842V96.6632ZM57.1579 97.6526C57.1579 97.1062 57.6009 96.6632 58.1474 96.6632V94.6842C56.508 94.6842 55.1789 96.0132 55.1789 97.6526H57.1579ZM76.9474 76.3789C76.9474 74.7395 75.6184 73.4105 73.9789 73.4105V75.3895C74.5254 75.3895 74.9684 75.8325 74.9684 76.3789H76.9474ZM73.9789 83.8C75.6184 83.8 76.9474 82.471 76.9474 80.8316H74.9684C74.9684 81.378 74.5254 81.8211 73.9789 81.8211V83.8ZM66.5579 80.8316C66.5579 82.471 67.8869 83.8 69.5263 83.8V81.8211C68.9798 81.8211 68.5368 81.378 68.5368 80.8316H66.5579ZM68.5368 76.3789C68.5368 75.8325 68.9798 75.3895 69.5263 75.3895V73.4105C67.8869 73.4105 66.5579 74.7395 66.5579 76.3789H68.5368ZM60.1263 76.3789C60.1263 74.7395 58.7973 73.4105 57.1579 73.4105V75.3895C57.7044 75.3895 58.1474 75.8325 58.1474 76.3789H60.1263ZM57.1579 83.8C58.7973 83.8 60.1263 82.471 60.1263 80.8316H58.1474C58.1474 81.378 57.7044 81.8211 57.1579 81.8211V83.8ZM49.2421 80.8316C49.2421 82.471 50.5711 83.8 52.2105 83.8V81.8211C51.6641 81.8211 51.2211 81.378 51.2211 80.8316H49.2421ZM51.2211 76.3789C51.2211 75.8325 51.6641 75.3895 52.2105 75.3895V73.4105C50.5711 73.4105 49.2421 74.7395 49.2421 76.3789H51.2211ZM76.9474 57.0842C76.9474 55.4448 75.6184 54.1158 73.9789 54.1158V56.0947C74.5254 56.0947 74.9684 56.5377 74.9684 57.0842H76.9474ZM66.5579 61.5368C66.5579 63.1763 67.8869 64.5053 69.5263 64.5053V62.5263C68.9798 62.5263 68.5368 62.0833 68.5368 61.5368H66.5579ZM68.5368 57.0842C68.5368 56.5377 68.9798 56.0947 69.5263 56.0947V54.1158C67.8869 54.1158 66.5579 55.4448 66.5579 57.0842H68.5368ZM60.1263 57.0842C60.1263 55.4448 58.7973 54.1158 57.1579 54.1158V56.0947C57.7044 56.0947 58.1474 56.5377 58.1474 57.0842H60.1263ZM49.2421 61.5368C49.2421 63.1763 50.5711 64.5053 52.2105 64.5053V62.5263C51.6641 62.5263 51.2211 62.0833 51.2211 61.5368H49.2421ZM51.2211 57.0842C51.2211 56.5377 51.6641 56.0947 52.2105 56.0947V54.1158C50.5711 54.1158 49.2421 55.4448 49.2421 57.0842H51.2211ZM76.9474 38.2842C76.9474 36.6448 75.6184 35.3158 73.9789 35.3158V37.2947C74.5254 37.2947 74.9684 37.7377 74.9684 38.2842H76.9474ZM73.9789 45.7053C75.6184 45.7053 76.9474 44.3763 76.9474 42.7368H74.9684C74.9684 43.2833 74.5254 43.7263 73.9789 43.7263V45.7053ZM66.5579 42.7368C66.5579 44.3763 67.8869 45.7053 69.5263 45.7053V43.7263C68.9798 43.7263 68.5368 43.2833 68.5368 42.7368H66.5579ZM68.5368 38.2842C68.5368 37.7377 68.9798 37.2947 69.5263 37.2947V35.3158C67.8869 35.3158 66.5579 36.6448 66.5579 38.2842H68.5368ZM60.1263 38.2842C60.1263 36.6448 58.7973 35.3158 57.1579 35.3158V37.2947C57.7044 37.2947 58.1474 37.7377 58.1474 38.2842H60.1263ZM49.2421 42.7368C49.2421 44.3763 50.5711 45.7053 52.2105 45.7053V43.7263C51.6641 43.7263 51.2211 43.2833 51.2211 42.7368H49.2421ZM51.2211 38.2842C51.2211 37.7377 51.6641 37.2947 52.2105 37.2947V35.3158C50.5711 35.3158 49.2421 36.6448 49.2421 38.2842H51.2211ZM84.3684 29.3789C84.3684 27.7395 83.0394 26.4105 81.4 26.4105V28.3895C81.9465 28.3895 82.3895 28.8325 82.3895 29.3789H84.3684ZM43.8 29.3789C43.8 28.8325 44.243 28.3895 44.7895 28.3895V26.4105C43.1501 26.4105 41.8211 27.7395 41.8211 29.3789H43.8ZM57.1579 45.7053C58.7973 45.7053 60.1263 44.3763 60.1263 42.7368H58.1474C58.1474 43.2833 57.7044 43.7263 57.1579 43.7263V45.7053ZM73.9789 64.5053C75.6184 64.5053 76.9474 63.1763 76.9474 61.5368H74.9684C74.9684 62.0833 74.5254 62.5263 73.9789 62.5263V64.5053ZM31.9263 66.4842C31.9263 65.9377 32.3693 65.4947 32.9158 65.4947V63.5158C31.2764 63.5158 29.9474 64.8448 29.9474 66.4842H31.9263ZM78.9263 19.9789C78.9263 18.3395 77.5973 17.0105 75.9579 17.0105V18.9895C76.5044 18.9895 76.9474 19.4325 76.9474 19.9789H78.9263ZM50.7263 17.0105C49.0869 17.0105 47.7579 18.3395 47.7579 19.9789H49.7368C49.7368 19.4325 50.1798 18.9895 50.7263 18.9895V17.0105ZM57.1579 64.5053C58.7973 64.5053 60.1263 63.1763 60.1263 61.5368H58.1474C58.1474 62.0833 57.7044 62.5263 57.1579 62.5263V64.5053ZM98.7158 53.6211C98.7158 51.9816 97.3868 50.6526 95.7474 50.6526V52.6316C96.2938 52.6316 96.7368 53.0746 96.7368 53.6211H98.7158Z" fill="white"/>
</svg>
