<svg width="128" height="128" viewBox="0 0 128 128" fill="none" xmlns="http://www.w3.org/2000/svg">
<path d="M43.2948 109.021V27.8842H82.8737V109.021H43.2948Z" fill="#BD1F2D"/>
<path d="M52.2105 36.3053C51.1176 36.3053 50.2316 37.1913 50.2316 38.2842V42.7368C50.2316 43.8298 51.1176 44.7158 52.2105 44.7158H57.1579C58.2508 44.7158 59.1368 43.8298 59.1368 42.7368V38.2842C59.1368 37.1913 58.2508 36.3053 57.1579 36.3053H52.2105Z" fill="#323232"/>
<path d="M69.5263 36.3053C68.4334 36.3053 67.5474 37.1913 67.5474 38.2842V42.7368C67.5474 43.8298 68.4334 44.7158 69.5263 44.7158H73.9789C75.0719 44.7158 75.9579 43.8298 75.9579 42.7368V38.2842C75.9579 37.1913 75.0719 36.3053 73.979 36.3053H69.5263Z" fill="#323232"/>
<path d="M52.2105 55.1053C51.1176 55.1053 50.2316 55.9913 50.2316 57.0842V61.5368C50.2316 62.6298 51.1176 63.5158 52.2105 63.5158H57.1579C58.2508 63.5158 59.1368 62.6298 59.1368 61.5368V57.0842C59.1368 55.9913 58.2508 55.1053 57.1579 55.1053H52.2105Z" fill="#323232"/>
<path d="M69.5263 55.1053C68.4334 55.1053 67.5474 55.9913 67.5474 57.0842V61.5368C67.5474 62.6298 68.4334 63.5158 69.5263 63.5158H73.9789C75.0719 63.5158 75.9579 62.6298 75.9579 61.5368V57.0842C75.9579 55.9913 75.0719 55.1053 73.979 55.1053H69.5263Z" fill="#323232"/>
<path d="M52.2105 74.4C51.1176 74.4 50.2316 75.286 50.2316 76.3789V80.8316C50.2316 81.9245 51.1176 82.8105 52.2105 82.8105H57.1579C58.2508 82.8105 59.1368 81.9245 59.1368 80.8316V76.3789C59.1368 75.286 58.2508 74.4 57.1579 74.4H52.2105Z" fill="#323232"/>
<path d="M69.5263 74.4C68.4334 74.4 67.5474 75.286 67.5474 76.3789V80.8316C67.5474 81.9245 68.4334 82.8105 69.5263 82.8105H73.9789C75.0719 82.8105 75.9579 81.9245 75.9579 80.8316V76.3789C75.9579 75.286 75.0719 74.4 73.979 74.4H69.5263Z" fill="#323232"/>
<path d="M77.9368 27.4V19.9789C77.9368 18.886 77.0508 18 75.9579 18H50.7263C49.6334 18 48.7474 18.886 48.7474 19.9789V27.4H77.9368Z" fill="#323232"/>
<path d="M25 109.526H30.9368M102.179 109.526H97.7263M97.7263 109.526V53.6211C97.7263 52.5281 96.8403 51.6421 95.7474 51.6421H83.3789M97.7263 109.526H83.3789M83.3789 51.6421V109.526M83.3789 51.6421V29.3789C83.3789 28.286 82.4929 27.4 81.4 27.4H77.9368M83.3789 109.526H70.5158M30.9368 109.526V66.4842C30.9368 65.3913 31.8228 64.5053 32.9158 64.5053H42.8105M30.9368 109.526H42.8105M42.8105 64.5053V109.526M42.8105 64.5053V29.3789C42.8105 28.286 43.6965 27.4 44.7895 27.4H48.7474M42.8105 109.526H56.1684M77.9368 27.4V19.9789C77.9368 18.886 77.0508 18 75.9579 18H50.7263C49.6334 18 48.7474 18.886 48.7474 19.9789V27.4M77.9368 27.4H48.7474M56.1684 109.526V97.6526C56.1684 96.5597 57.0544 95.6737 58.1474 95.6737H68.5368C69.6298 95.6737 70.5158 96.5597 70.5158 97.6526V109.526M56.1684 109.526H70.5158M75.9579 76.3789V80.8316C75.9579 81.9245 75.0719 82.8105 73.9789 82.8105H69.5263C68.4334 82.8105 67.5474 81.9245 67.5474 80.8316V76.3789C67.5474 75.286 68.4334 74.4 69.5263 74.4H73.9789C75.0719 74.4 75.9579 75.286 75.9579 76.3789ZM59.1368 76.3789V80.8316C59.1368 81.9245 58.2508 82.8105 57.1579 82.8105H52.2105C51.1176 82.8105 50.2316 81.9245 50.2316 80.8316V76.3789C50.2316 75.286 51.1176 74.4 52.2105 74.4H57.1579C58.2508 74.4 59.1368 75.286 59.1368 76.3789ZM75.9579 57.0842V61.5368C75.9579 62.6298 75.0719 63.5158 73.9789 63.5158H69.5263C68.4334 63.5158 67.5474 62.6298 67.5474 61.5368V57.0842C67.5474 55.9913 68.4334 55.1053 69.5263 55.1053H73.9789C75.0719 55.1053 75.9579 55.9913 75.9579 57.0842ZM59.1368 57.0842V61.5368C59.1368 62.6298 58.2508 63.5158 57.1579 63.5158H52.2105C51.1176 63.5158 50.2316 62.6298 50.2316 61.5368V57.0842C50.2316 55.9913 51.1176 55.1053 52.2105 55.1053H57.1579C58.2508 55.1053 59.1368 55.9913 59.1368 57.0842ZM75.9579 38.2842V42.7368C75.9579 43.8298 75.0719 44.7158 73.9789 44.7158H69.5263C68.4334 44.7158 67.5474 43.8298 67.5474 42.7368V38.2842C67.5474 37.1913 68.4334 36.3053 69.5263 36.3053H73.9789C75.0719 36.3053 75.9579 37.1913 75.9579 38.2842ZM59.1368 38.2842V42.7368C59.1368 43.8298 58.2508 44.7158 57.1579 44.7158H52.2105C51.1176 44.7158 50.2316 43.8298 50.2316 42.7368V38.2842C50.2316 37.1913 51.1176 36.3053 52.2105 36.3053H57.1579C58.2508 36.3053 59.1368 37.1913 59.1368 38.2842Z" stroke="#323232" stroke-width="1.97895" stroke-linecap="round"/>
</svg>
