<svg width="128" height="128" viewBox="0 0 128 128" fill="none" xmlns="http://www.w3.org/2000/svg">
<circle cx="43.7608" cy="29.8478" r="7.45652" fill="#BD1F2D"/>
<circle cx="83.7065" cy="86.837" r="7.98913" fill="#BD1F2D"/>
<g clip-path="url(#clip0_26_2)">
<path d="M43.56 61.24C37.26 66.68 32.56 70.84 27.74 74.87C26.16 76.19 26.21 77 27.74 78.3C32.54 82.3 37.25 86.49 41.96 90.57C42.45 90.15 42.9 89.93 42.87 89.78C41.96 84.07 45.02 83.22 49.77 83.66C53.77 84.03 57.77 83.66 61.77 83.78C63.08 83.78 65.3 83.06 65.25 85.28C65.25 87.13 63.17 86.37 61.99 86.4C58.1736 86.635 54.3464 86.635 50.53 86.4C46.48 86 44.69 87.13 45.4 91.4C45.6 92.6 46.1 94.4 44.88 95.1C43.21 96.1 42.25 94.19 41.21 93.31C35.75 88.66 30.46 83.85 25 79.3C22.67 77.4 22.11 76.21 24.79 74C30.72 69.18 36.37 64 42.16 59C42.87 58.39 43.53 57.35 44.67 57.91C45.81 58.47 45.57 59.69 45.4 60.57C44.4 66.08 46.98 67 51.89 66.78C60.89 66.37 69.89 66.66 78.81 66.66C85.51 66.66 85.51 66.66 86.21 74.06C91.65 69.39 96.67 65 101.66 60.66C103.18 59.33 101.66 58.66 100.91 57.96C96.2 53.83 91.45 49.74 86.71 45.63C85.25 46.88 85.81 48.3 85.83 49.5C85.89 51.96 84.72 52.57 82.47 52.5C74.65 52.4 66.8367 52.4 59.03 52.5C56.9 52.5 56.35 51.69 55.87 49.73C54.13 42.67 50 39.13 44 39.14C38 39.15 34.57 42.39 32.35 49.86C32.06 50.86 31.92 51.98 30.66 51.73C29.4 51.48 29.49 50.28 29.66 49.28C30.38 45 32.19 41.3 36 39C38 37.79 38.43 37.32 36.72 35.17C33.21 30.77 34 25.75 38 22.27C39.7089 20.7896 41.8941 19.9746 44.155 19.9746C46.416 19.9746 48.6012 20.7896 50.31 22.27C52.1511 23.7617 53.3296 25.9192 53.5898 28.2744C53.8501 30.6296 53.171 32.9924 51.7 34.85C50.14 36.97 50.09 37.85 52.41 39.19C53.7202 39.9244 54.86 40.9278 55.7545 42.1343C56.649 43.3408 57.278 44.723 57.6 46.19C58.2 49.24 59.78 50.06 62.75 49.91C67.897 49.6249 73.0567 49.655 78.2 50C82.3 50.3 84.02 49.18 83.33 44.92C83.14 43.72 82.61 41.97 83.92 41.22C85.65 40.22 86.5 42.16 87.54 43.04C93 47.65 98.28 52.46 103.8 57C106.2 59 106.4 60.25 103.88 62.31C98.25 66.94 92.88 71.83 87.27 76.65C95.37 82 96.27 86.97 90.48 94.3C92.6546 95.3525 94.5509 96.9021 96.0155 98.8235C97.48 100.745 98.4716 102.984 98.91 105.36C99.15 106.6 99.76 108.36 97.91 108.65C96.43 108.87 96.57 107.2 96.32 106.1C94.83 99.63 90.56 95.85 84.74 95.78C78.92 95.71 74.74 99.47 72.86 105.89C72.56 106.94 73.21 109.21 71.04 108.58C69.47 108.11 70.22 106.23 70.46 105.05C70.7566 103.237 71.4204 101.503 72.4109 99.9554C73.4014 98.4077 74.6976 97.0788 76.22 96.05C78.22 94.75 78.81 94.05 77.07 91.75C73.26 86.61 74.91 80.27 80.93 77.75C84.84 76.11 83.1 73.36 83.16 71.14C83.24 68 80.41 69.52 79 69.5C69.52 69.35 60 69.22 50.57 69.5C45.57 69.65 41.26 69.87 43.56 61.24ZM51.06 29.43C51.011 27.5991 50.2543 25.8585 48.9491 24.5738C47.6438 23.289 45.8914 22.56 44.06 22.54C43.1468 22.5253 42.2403 22.698 41.3965 23.0474C40.5527 23.3968 39.7894 23.9156 39.154 24.5717C38.5186 25.2277 38.0245 26.0071 37.7021 26.8616C37.3798 27.7162 37.2361 28.6277 37.28 29.54C37.2681 30.4475 37.4368 31.3482 37.7765 32.1898C38.1161 33.0314 38.6199 33.797 39.2583 34.442C39.8968 35.087 40.6572 35.5985 41.4953 35.9467C42.3334 36.2948 43.2325 36.4727 44.14 36.47C45.9805 36.4209 47.7302 35.6597 49.0209 34.3467C50.3116 33.0336 51.0425 31.2711 51.06 29.43ZM84.52 93.28C85.4284 93.2893 86.3297 93.118 87.1714 92.7762C88.0131 92.4343 88.7785 91.9287 89.4232 91.2886C90.0679 90.6486 90.5791 89.8868 90.927 89.0476C91.2749 88.2084 91.4527 87.3085 91.45 86.4C91.4996 85.4897 91.3611 84.579 91.0434 83.7246C90.7256 82.8701 90.2353 82.0903 89.603 81.4336C88.9707 80.7769 88.21 80.2574 87.3681 79.9076C86.5263 79.5577 85.6215 79.3849 84.71 79.4C82.8694 79.3748 81.0942 80.0818 79.7749 81.3655C78.4555 82.6492 77.7002 84.4044 77.675 86.245C77.6498 88.0856 78.3568 89.8608 79.6405 91.1801C80.9242 92.4995 82.6794 93.2548 84.52 93.28Z" fill="#323232"/>
<path d="M53.81 78.25C50.98 78.25 48.16 78.25 45.34 78.25C44.26 78.27 43.06 78 43 77C42.94 76 44 75.53 45.11 75.54H63.49C64.34 75.54 65.29 75.7 65.33 76.73C65.39 78.07 64.33 78.24 63.27 78.25C60.11 78.26 57 78.24 53.81 78.25Z" fill="#323232"/>
<path d="M68.76 60.54C65.76 60.54 62.76 60.54 59.76 60.54C58.76 60.54 57.56 60.54 57.63 59.17C57.63 58.17 58.74 58.08 59.53 58.07C65.66 58.07 71.8 58.02 77.93 58.07C78.82 58.07 80.18 58 80.03 59.43C79.88 60.86 78.6 60.52 77.67 60.54C74.73 60.57 71.74 60.54 68.76 60.54Z" fill="#323232"/>
</g>
<defs>
<clipPath id="clip0_26_2">
<rect width="82.68" height="88.68" fill="white" transform="translate(23 20)"/>
</clipPath>
</defs>
</svg>
