<svg width="128" height="128" viewBox="0 0 128 128" fill="none" xmlns="http://www.w3.org/2000/svg">
<path d="M20.4725 64.0245C20.4725 52.201 20.4725 40.4021 20.4725 28.5786C20.4725 24.3682 22.8225 21.1615 26.5923 20.2068C27.3267 20.0109 28.0856 19.9375 28.8689 19.9375C46.396 19.9375 63.8986 19.9375 81.4257 19.9375C86.2481 19.9375 89.7486 23.3891 89.7975 28.2115C89.7975 28.7745 89.9689 29.0437 90.4829 29.313C101.694 35.188 104.436 49.851 96.0642 59.4224C95.648 59.8875 95.6236 60.2057 96.0397 60.6219C96.1621 60.7443 96.2845 60.8911 96.3579 61.0625C96.7741 61.7969 97.1413 62.213 98.1694 61.7724C99.173 61.3318 100.25 61.7234 100.96 62.6292C103.408 65.787 105.929 68.8958 108.279 72.1271C110.164 74.7463 109.503 78.3937 106.933 80.3766C104.412 82.3594 100.666 82.0656 98.61 79.5443C96.0887 76.4599 93.6652 73.2531 91.2418 70.0953C90.4095 68.9937 90.4585 67.6474 91.3887 66.6682C91.7803 66.2276 91.7069 66.0073 91.4132 65.6401C91.0704 65.224 90.7522 64.7589 90.434 64.3182C90.3361 64.1714 90.2137 64 89.9934 64.0734C89.773 64.1469 89.822 64.3672 89.822 64.5385C89.822 64.7589 89.822 64.9547 89.822 65.175C89.822 76.6312 89.822 88.063 89.822 99.5193C89.822 104.807 86.4194 108.209 81.1319 108.209C63.7272 108.209 46.3225 108.209 28.9423 108.209C24.8298 108.209 21.6475 105.761 20.7173 101.894C20.5215 101.061 20.497 100.205 20.497 99.3479C20.4725 87.5979 20.4725 75.799 20.4725 64.0245ZM65.147 35.9958C63.6293 35.9958 62.2829 35.9958 60.9121 35.9958C59.8106 35.9958 58.709 36.0203 57.6074 35.9714C56.971 35.9469 56.4814 35.6531 56.31 35.0167C56.1632 34.4781 56.2611 33.9885 56.6772 33.5969C57.0689 33.2297 57.5585 33.2052 58.0481 33.2052C60.5449 33.2052 63.0663 33.1562 65.5632 33.2297C66.7626 33.2786 67.6194 32.9115 68.5496 32.1036C73.6658 27.5995 79.6142 26.2042 86.248 27.6974C86.909 27.8443 87.1048 27.8443 86.9579 27.0854C86.4439 24.4417 84.2897 22.7036 81.4501 22.7036C63.9965 22.7036 46.5184 22.7036 29.0647 22.7036C25.4418 22.7036 23.2632 24.8823 23.2632 28.5052C23.2632 52.2255 23.2632 75.9458 23.2632 99.6661C23.2632 103.289 25.4663 105.443 29.0892 105.443C46.4694 105.443 63.8251 105.443 81.2053 105.443C84.8772 105.443 87.0803 103.24 87.0803 99.5927C87.0803 88.4547 87.0803 77.3167 87.1048 66.1542C87.1048 65.3708 86.9824 65.224 86.1746 65.3953C80.2996 66.7661 74.8652 65.6891 69.9694 62.1396C69.284 61.65 68.6475 61.4052 67.8152 61.4052C64.5595 61.4542 61.2793 61.4297 58.0236 61.4297C56.8486 61.4297 56.2121 60.8667 56.2855 59.912C56.359 59.1042 56.8975 58.6635 57.9012 58.6635C60.2512 58.6391 62.6012 58.6635 64.9512 58.6635C65.3673 58.6635 65.759 58.6635 66.2975 58.6635C65.5142 57.5865 64.8777 56.6807 64.3637 55.6771C62.5767 52.2745 61.7934 48.6516 62.185 44.8083C62.2585 44.1229 62.1116 43.9026 61.4017 43.9516C60.2757 44.025 59.1496 43.976 58.0236 43.976C56.8975 43.976 56.3345 43.5109 56.31 42.6542C56.2856 41.7484 56.8975 41.2344 58.0236 41.2099C59.4189 41.2099 60.8387 41.2099 62.234 41.2099C62.5277 41.2099 62.8215 41.2833 62.9439 40.8427C63.409 39.1781 64.1678 37.6115 65.147 35.9958ZM64.8043 46.424C64.6574 55.5302 72.1236 63.1432 81.2788 63.2411C90.4829 63.3635 98.0715 55.9708 98.2184 46.7667C98.3652 37.6359 90.9236 29.9495 81.8418 29.8271C72.5152 29.7292 64.9512 37.0974 64.8043 46.424Z" fill="#323232"/>
<path d="M29.8724 89.5563C29.8969 83.8037 34.6214 79.1037 40.3005 79.1771C46.0287 79.2506 50.6552 83.9261 50.6307 89.5808C50.5818 95.3334 45.9063 99.9844 40.1781 99.9599C34.499 99.9354 29.8479 95.2354 29.8724 89.5563ZM43.1646 90.9271C44.3151 91.4412 45.3677 92.0532 46.1266 93.0323C46.6651 93.7422 46.8365 93.3995 47.1057 92.861C48.9417 89.1157 47.3261 84.5381 43.5318 82.6776C39.811 80.8662 35.2333 82.4084 33.4219 86.1537C32.1979 88.6506 32.3448 91.1229 33.8136 93.5953C34.6214 92.5183 35.5516 91.7105 36.6776 91.2209C37.2406 90.9761 37.2406 90.7802 36.9958 90.2417C36.3839 88.9198 36.5552 87.6224 37.5344 86.4964C38.4891 85.3703 39.7865 85.0032 41.1818 85.3703C42.5771 85.7375 43.4339 86.7167 43.7521 88.1854C43.9235 89.1891 43.6052 90.0703 43.1646 90.9271Z" fill="#BD1F2D"/>
<path d="M29.8723 63.9755C29.9702 58.2474 34.6457 53.6208 40.3004 53.6943C46.1264 53.7677 50.7285 58.5412 50.6306 64.3917C50.5327 69.9729 45.7103 74.5995 40.1046 74.5016C34.3764 74.3792 29.7743 69.6547 29.8723 63.9755ZM46.665 68.137C48.7702 64.563 47.9379 60.3281 44.7066 57.9292C41.5978 55.6281 37.2405 56.0688 34.5967 58.9573C32.2957 61.4787 31.9285 65.8359 33.8624 68.0146C34.5967 67.1089 35.4535 66.3255 36.5306 65.836C37.1181 65.5667 37.2894 65.3708 36.9712 64.6854C36.1144 62.874 37.0691 60.7688 38.954 60.0344C40.8144 59.3 42.9197 60.2547 43.5806 62.1151C43.9478 63.1188 43.8743 64.0979 43.3603 65.0281C43.2134 65.2974 43.14 65.4688 43.5316 65.6401C44.7801 66.1787 45.7837 67.0599 46.665 68.137Z" fill="#BD1F2D"/>
<path d="M29.8724 38.5417C29.9214 32.7891 34.6459 28.138 40.3495 28.236C46.1021 28.3339 50.6797 33.0339 50.6308 38.7865C50.5818 44.4412 45.7839 49.1167 40.1292 49.0188C34.4256 48.9208 29.799 44.2208 29.8724 38.5417ZM46.6652 42.6787C48.8193 39.1047 47.9136 34.7229 44.6089 32.3974C41.3777 30.1208 36.9469 30.7083 34.3766 33.7438C32.2469 36.2651 32.0021 40.7448 33.887 42.5563C34.6704 41.6016 35.5761 40.7938 36.7266 40.3042C37.2896 40.0594 37.2407 39.8636 37.0204 39.374C36.286 37.8318 36.7756 36.0203 38.0974 35.0412C39.3948 34.0865 41.1818 34.111 42.4303 35.0901C43.7277 36.1182 44.1193 37.8318 43.4829 39.374C43.3849 39.5943 42.8464 39.8636 43.4829 40.1328C44.7558 40.6958 45.7839 41.5771 46.6652 42.6787Z" fill="#BD1F2D"/>
<path d="M68.3291 84.1708C71.6828 84.1708 75.0364 84.1708 78.3901 84.1708C78.6838 84.1708 79.002 84.1708 79.2958 84.2198C79.9812 84.3422 80.3729 84.8073 80.4218 85.4682C80.4708 86.1047 80.1281 86.5698 79.5161 86.8146C79.1979 86.937 78.8552 86.937 78.5125 86.937C71.7073 86.937 64.902 86.937 58.0968 86.937C57.7541 86.937 57.4359 86.9615 57.0932 86.8146C56.4323 86.5453 56.1385 86.0557 56.2119 85.3703C56.2854 84.7094 56.6526 84.3177 57.289 84.1953C57.5828 84.1464 57.901 84.1464 58.1948 84.1464C61.6218 84.1708 64.9755 84.1708 68.3291 84.1708Z" fill="#323232"/>
<path d="M65.1469 92.2244C67.5459 92.2244 69.9693 92.2 72.3683 92.2244C73.3229 92.2244 73.886 92.763 73.886 93.5708C73.886 94.3786 73.3229 94.9172 72.4172 94.9906C72.2703 94.9906 72.1235 94.9906 71.9521 94.9906C67.3745 94.9906 62.7969 94.9906 58.2193 94.9906C58.0479 94.9906 57.8521 94.9906 57.6808 94.9906C56.7506 94.8927 56.2365 94.3541 56.261 93.5218C56.2854 92.7385 56.824 92.2489 57.7297 92.2244C60.2021 92.2 62.6745 92.2244 65.1469 92.2244Z" fill="#323232"/>
<path d="M65.098 66.7172C67.3746 66.7172 69.6756 66.7172 71.9522 66.7172C72.3194 66.7172 72.6866 66.6927 73.0293 66.8396C73.6168 67.1088 73.935 67.5739 73.8615 68.2104C73.8126 68.8224 73.4699 69.2385 72.8824 69.3854C72.6131 69.4588 72.3438 69.4588 72.0746 69.4588C67.399 69.4588 62.748 69.4588 58.0725 69.4588C57.8522 69.4588 57.6563 69.4588 57.436 69.4344C56.7017 69.3364 56.2855 68.8958 56.261 68.1614C56.2366 67.3781 56.6527 66.8885 57.4116 66.7416C57.6808 66.6927 57.9501 66.6927 58.2194 66.6927C60.5204 66.7172 62.797 66.7172 65.098 66.7172Z" fill="#323232"/>
<path d="M81.3765 59.0552C74.4489 58.9328 68.8676 53.2292 68.99 46.3995C69.1124 39.4964 74.7916 33.9641 81.6947 34.062C88.5978 34.1599 94.1546 39.937 94.0077 46.8646C93.8608 53.6943 88.1572 59.1776 81.3765 59.0552ZM77.4353 44.9063C76.9213 44.9797 76.5051 45.2245 76.2603 45.7386C76.0155 46.2771 76.1134 46.7667 76.4806 47.1828C77.1905 47.9906 77.9004 48.774 78.6348 49.5573C79.4426 50.4386 80.177 50.463 81.0827 49.6797C82.7228 48.2109 84.3385 46.7422 85.9786 45.2734C86.7374 44.5635 86.8598 43.7313 86.2723 43.1193C85.6848 42.4828 84.9259 42.5073 84.0937 43.2417C83.1145 44.1229 82.1598 45.0042 81.1806 45.8854C79.9812 46.9625 79.9812 46.9625 78.9286 45.7875C78.4879 45.3224 78.1207 44.9063 77.4353 44.9063Z" fill="#BD1F2D"/>
<path d="M77.4354 44.9063C78.1208 44.9063 78.5125 45.3224 78.9041 45.763C79.9567 46.938 79.9812 46.938 81.1562 45.8609C82.1354 44.9797 83.0901 44.0984 84.0692 43.2172C84.877 42.5073 85.6359 42.4583 86.2479 43.0948C86.8109 43.7068 86.713 44.5391 85.9541 45.249C84.3385 46.7177 82.6984 48.1865 81.0583 49.6552C80.1526 50.463 79.4427 50.4141 78.6104 49.5328C77.876 48.7495 77.1661 47.9662 76.4562 47.1583C76.089 46.7422 75.9911 46.2526 76.2359 45.7141C76.4807 45.2245 76.9213 44.9797 77.4354 44.9063Z" fill="#FAFAFA"/>
</svg>
