<svg width="128" height="128" viewBox="0 0 128 128" fill="none" xmlns="http://www.w3.org/2000/svg">
<path d="M17 96.3312C17.0367 96.3312 17.0734 96.3129 17.0918 96.3129C18.1383 93.5497 20.2313 92.6713 23.0402 92.836C25.0965 92.9458 25.0965 92.8543 25.0965 90.7864C25.0965 82.0393 25.0965 73.2922 25.0965 64.5451C25.0965 61.0499 27.1711 58.982 30.6777 58.9637C34.3863 58.9637 38.0766 58.9454 41.7852 58.982C42.5379 58.982 42.7398 58.799 42.7398 58.0488C42.7031 48.8991 42.7215 39.7676 42.7215 30.6179C42.7215 27.0861 44.7961 25 48.3578 25C58.0883 25 67.8004 25 77.5309 25C80.9641 25 83.0754 27.1044 83.0938 30.5081C83.0938 34.2229 83.0938 37.9377 83.0938 41.6708C83.0938 42.7138 82.543 43.3177 81.6617 43.2994C80.8172 43.2811 80.3215 42.6955 80.3215 41.6891C80.3215 38.0658 80.3215 34.4425 80.3215 30.8009C80.3215 28.5867 79.4953 27.7449 77.3106 27.7449C75.6031 27.7449 73.8773 27.7998 72.1699 27.7266C71.307 27.69 71.1602 27.9828 71.1969 28.7514C71.252 30.0506 71.2336 31.3682 71.2152 32.6858C71.1785 34.717 69.9117 35.9797 67.8738 35.9797C64.4223 35.998 60.9707 35.998 57.5008 35.9797C55.4262 35.9797 54.141 34.6621 54.1227 32.6126C54.1043 31.2035 54.1043 29.8127 54.141 28.4037C54.1594 27.873 53.9941 27.7449 53.4801 27.7449C51.6809 27.7815 49.8633 27.7449 48.0641 27.7632C46.4484 27.7815 45.5121 28.7331 45.5121 30.3434C45.5121 39.6395 45.5121 48.9356 45.4938 58.2318C45.4938 58.8722 45.7324 58.9637 46.2832 58.9637C50.8363 58.9454 55.3895 58.9637 59.9609 58.9454C61.393 58.9454 62.6965 59.2382 63.7613 60.2264C64.0551 60.5009 64.2203 60.446 64.4957 60.2081C65.5422 59.2748 66.809 58.9454 68.2227 58.9454C71.9863 58.9637 75.75 58.9271 79.5137 58.9637C80.193 58.9637 80.3949 58.8173 80.3766 58.1037C80.3398 54.9562 80.3582 51.827 80.3582 48.6795C80.3582 47.6364 80.8356 47.0874 81.6801 47.0508C82.5613 47.0142 83.1121 47.6364 83.1121 48.6612C83.1121 51.7721 83.1488 54.883 83.0938 57.9939C83.0754 58.7441 83.259 58.9637 84.0301 58.9454C88.5281 58.9088 93.0262 58.9271 97.5242 58.9271C101.013 58.9271 103.105 61.0133 103.105 64.5085C103.105 73.6582 103.105 82.7896 103.087 91.9393C103.087 92.6347 103.234 92.9092 103.968 92.836C104.703 92.7628 105.437 92.8177 106.171 92.8177C108.466 92.836 110.119 94.0437 110.816 96.2214C110.853 96.3312 110.853 96.4593 111 96.4776C111 97.1546 111 97.8134 111 98.4905C109.972 101.345 107.861 102.187 104.941 102.187C77.4758 102.132 50.0285 102.15 22.5629 102.15C22.2508 102.15 21.957 102.15 21.6449 102.15C19.9375 102.077 18.6156 101.309 17.716 99.863C17.459 99.4421 17.2754 98.948 17.0551 98.5088C17 97.7951 17 97.0631 17 96.3312ZM64 99.4238C77.8613 99.4238 91.7043 99.4238 105.566 99.4238C107.236 99.4238 108.173 98.765 108.191 97.5389C108.209 96.2946 107.273 95.5992 105.529 95.5992C86.4535 95.5992 67.3598 95.5992 48.2844 95.5992C47.9723 95.5992 47.6602 95.6175 47.3664 95.5809C46.7605 95.5077 46.3566 95.1234 46.2098 94.5561C46.0445 93.9705 46.2832 93.4765 46.7422 93.1105C47.1094 92.836 47.5316 92.8543 47.9723 92.8543C52.5988 92.8543 57.207 92.836 61.8336 92.8726C62.5129 92.8726 62.6965 92.7262 62.6965 92.0308C62.6598 85.3881 62.6781 78.7454 62.6781 72.1027C62.6781 69.5408 62.6781 66.9789 62.6781 64.417C62.6781 62.6236 61.7785 61.7452 59.9609 61.7269C58.0699 61.7269 56.1605 61.7453 54.2695 61.7087C53.7004 61.6904 53.5352 61.855 53.5535 62.4223C53.5902 63.7948 53.5719 65.1672 53.5719 66.5397C53.5535 68.6441 52.3051 69.9068 50.2121 69.9251C46.7605 69.9434 43.309 69.9434 39.8391 69.9251C37.7645 69.9068 36.4793 68.6075 36.4609 66.5397C36.4426 65.1306 36.4426 63.7399 36.4609 62.3308C36.4793 61.8367 36.3324 61.7086 35.8551 61.7269C34.0742 61.7635 32.3117 61.7269 30.5309 61.7452C28.7316 61.7452 27.832 62.6419 27.832 64.4353C27.832 73.6399 27.832 82.8445 27.8137 92.0491C27.8137 92.7811 28.0523 92.8726 28.6949 92.8726C32.0914 92.836 35.4879 92.8543 38.8844 92.8543C39.6555 92.8543 40.4082 92.836 41.1793 92.8543C42.0238 92.8909 42.5746 93.4582 42.5746 94.2267C42.5746 94.9953 42.0055 95.5443 41.1609 95.5809C40.9223 95.5992 40.6652 95.5809 40.4266 95.5809C34.2762 95.5809 28.1258 95.5809 21.9938 95.5809C20.6719 95.5809 19.7723 96.3678 19.7723 97.484C19.7723 98.6003 20.6719 99.3689 21.9938 99.3872C22.2324 99.3872 22.4895 99.3872 22.7281 99.3872C36.4793 99.4238 50.2488 99.4238 64 99.4238ZM82.8 92.8543C88.2711 92.8543 93.7422 92.836 99.2316 92.8726C100.021 92.8726 100.296 92.7262 100.296 91.8478C100.26 82.8262 100.278 73.8046 100.278 64.783C100.278 64.5451 100.296 64.2889 100.278 64.051C100.168 62.6236 99.2684 61.7635 97.8363 61.7452C95.8168 61.7269 93.7973 61.7452 91.7777 61.7269C91.3004 61.7269 91.1535 61.855 91.1535 62.3491C91.1902 63.7765 91.1719 65.2221 91.1535 66.6495C91.1352 68.6258 89.8684 69.9251 87.8856 69.9434C84.3606 69.98 80.8539 69.98 77.3289 69.9434C75.3645 69.9251 74.0793 68.6075 74.0609 66.6495C74.0426 65.2221 74.0426 63.7765 74.0609 62.3491C74.0793 61.8733 73.9324 61.7269 73.4551 61.7452C71.6742 61.7818 69.9117 61.7452 68.1309 61.7635C66.3133 61.7635 65.432 62.6419 65.432 64.4536C65.432 73.6582 65.432 82.8628 65.4137 92.0674C65.4137 92.7811 65.6156 92.8909 66.2766 92.8909C71.8027 92.836 77.2922 92.8543 82.8 92.8543ZM62.6965 27.7449C60.9523 27.7449 59.2082 27.7632 57.4641 27.7449C57.0051 27.7449 56.8215 27.8364 56.8215 28.3488C56.8582 29.7212 56.8582 31.0937 56.8215 32.4662C56.8031 33.0883 57.0785 33.2347 57.6477 33.2347C60.9707 33.2164 64.3121 33.2164 67.6352 33.2347C68.1859 33.2347 68.4063 33.07 68.3879 32.5028C68.3695 31.1303 68.3512 29.7579 68.3879 28.3854C68.4063 27.8364 68.2043 27.7449 67.7086 27.7449C66.0563 27.7632 64.3672 27.7449 62.6965 27.7449ZM45.0715 61.7269C43.3273 61.7269 41.5832 61.7452 39.8574 61.7269C39.3801 61.7269 39.2148 61.855 39.2332 62.3491C39.2699 63.7216 39.2516 65.094 39.2332 66.4665C39.2332 66.9789 39.4352 67.1802 39.9309 67.1802C43.3273 67.1619 46.7055 67.1619 50.102 67.1802C50.616 67.1802 50.7996 66.9972 50.7996 66.4848C50.7813 65.1672 50.7629 63.868 50.7996 62.5504C50.818 61.9282 50.6895 61.7086 50.0102 61.7269C48.3762 61.7635 46.7238 61.7269 45.0715 61.7269ZM82.6348 61.7269C80.8906 61.7269 79.1465 61.7452 77.4023 61.7269C76.9801 61.7269 76.8148 61.8001 76.8148 62.2759C76.8516 63.685 76.8332 65.0757 76.8148 66.4848C76.8148 67.0338 77.0719 67.1619 77.5492 67.1619C80.909 67.1619 84.2688 67.1436 87.6469 67.1619C88.2711 67.1619 88.418 66.9057 88.3996 66.3384C88.3629 65.0208 88.3629 63.7216 88.3996 62.404C88.418 61.8001 88.1977 61.7086 87.6652 61.7269C85.9945 61.7452 84.3238 61.7269 82.6348 61.7269Z" fill="#323232"/>
<path d="M62.6965 27.7449C64.3855 27.7449 66.0563 27.7632 67.7453 27.7266C68.241 27.7266 68.443 27.8181 68.4246 28.3671C68.3879 29.7396 68.3879 31.112 68.4246 32.4845C68.443 33.0517 68.2227 33.2164 67.6719 33.2164C64.3488 33.1981 61.0074 33.1981 57.6844 33.2164C57.1152 33.2164 56.8398 33.0518 56.8582 32.4479C56.8766 31.0754 56.8949 29.703 56.8582 28.3305C56.8398 27.8181 57.0418 27.7266 57.5008 27.7266C59.2082 27.7632 60.9523 27.7449 62.6965 27.7449Z" fill="#BD1F2D"/>
<path d="M45.0715 61.7269C46.7238 61.7269 48.3761 61.7635 50.0101 61.7087C50.6711 61.6904 50.8179 61.9099 50.7996 62.5321C50.7445 63.8314 50.7629 65.1489 50.7996 66.4665C50.8179 66.9789 50.616 67.1619 50.1019 67.1619C46.7054 67.1436 43.3273 67.1436 39.9308 67.1619C39.4168 67.1619 39.2148 66.9606 39.2332 66.4482C39.2515 65.0757 39.2515 63.7033 39.2332 62.3308C39.2148 61.8367 39.38 61.7087 39.8574 61.7087C41.6015 61.7452 43.3457 61.7269 45.0715 61.7269Z" fill="#BD1F2D"/>
<path d="M82.6347 61.7269C84.3238 61.7269 85.9945 61.7453 87.6836 61.7087C88.216 61.6904 88.4363 61.7818 88.4179 62.3857C88.3629 63.685 88.3812 65.0025 88.4179 66.3201C88.4363 66.8874 88.2894 67.1436 87.6652 67.1436C84.3054 67.1253 80.9457 67.1253 77.5675 67.1436C77.0902 67.1436 76.8332 67.0155 76.8332 66.4665C76.8515 65.0574 76.8515 63.6667 76.8332 62.2576C76.8148 61.7819 76.9984 61.7087 77.4207 61.7087C79.1464 61.7453 80.8906 61.7269 82.6347 61.7269Z" fill="#BD1F2D"/>
<path d="M83.0569 40.7009H80.2847V52.9249H83.0569V40.7009Z" fill="#323232"/>
<path d="M48.2842 92.8543H40.9221V95.5992H48.2842V92.8543Z" fill="#323232"/>
<path d="M19 97.5C19 96.1193 20.1193 95 21.5 95H106.5C107.881 95 109 96.1193 109 97.5V97.5C109 98.8807 107.881 100 106.5 100H21.5C20.1193 100 19 98.8807 19 97.5V97.5Z" fill="#BD1F2D"/>
</svg>
