<svg width="128" height="128" viewBox="0 0 128 128" fill="none" xmlns="http://www.w3.org/2000/svg">
<circle cx="87.4888" cy="36.483" r="13.5" fill="#BD1F2D"/>
<path d="M85.9282 105.983C84.7439 105.969 83.5897 105.546 82.6109 104.769C81.6321 103.991 80.8725 102.892 80.4278 101.612C79.9831 100.331 79.8732 98.9255 80.1119 97.5721C80.3506 96.2188 80.9273 94.9781 81.7693 94.0064C82.6113 93.0347 83.6809 92.3755 84.8434 92.1117C86.006 91.848 87.2094 91.9915 88.3022 92.5243C89.3949 93.057 90.3281 93.9551 90.9841 95.1055C91.6401 96.2558 91.9897 97.607 91.9888 98.9887C91.9774 100.853 91.3332 102.636 90.1972 103.947C89.0611 105.258 87.526 105.99 85.9282 105.983V105.983Z" fill="#BD1F2D"/>
<path d="M57.0241 92.983C58.2092 92.99 59.3656 93.3478 60.3476 94.0112C61.3296 94.6746 62.0931 95.614 62.5419 96.7108C62.9907 97.8076 63.1046 99.0127 62.8693 100.174C62.634 101.336 62.0601 102.401 61.2198 103.237C60.3796 104.073 59.3107 104.641 58.1479 104.87C56.9852 105.099 55.7807 104.978 54.6863 104.524C53.592 104.069 52.6568 103.3 51.9988 102.315C51.3407 101.329 50.9893 100.171 50.9888 98.9856C50.9904 98.195 51.1479 97.4125 51.4522 96.6829C51.7565 95.9532 52.2016 95.2907 52.7622 94.7332C53.3227 94.1757 53.9876 93.7342 54.7189 93.4339C55.4502 93.1336 56.2336 92.9804 57.0241 92.983V92.983Z" fill="#BD1F2D"/>
<path d="M110.989 48.3077C110.819 48.6871 110.616 49.055 110.485 49.446C107.289 59.0355 104.098 68.6265 100.912 78.2191C99.8861 81.3075 98.12 82.5884 94.8361 82.5884H49.2573C49.7172 84.3522 50.0438 86.0907 50.6118 87.7511C51.0717 89.0963 52.1939 89.8046 53.6381 89.9127C54.0336 89.9426 54.4315 89.9426 54.8293 89.9426H96.1331C96.44 89.932 96.7473 89.9412 97.053 89.9702C98.1407 90.1082 98.8674 90.8648 98.8582 91.8099C98.8582 92.8194 98.0786 93.5714 96.9288 93.6082C95.779 93.645 94.6843 93.6082 93.385 93.6082C95.2248 96.4529 95.7353 99.3573 94.5579 102.434C94.0399 103.797 93.2028 105.016 92.1169 105.989C91.0309 106.961 89.7276 107.659 88.3162 108.025C86.9048 108.39 85.4264 108.412 84.0049 108.088C82.5833 107.764 81.2601 107.105 80.146 106.164C78.3063 104.623 77.2876 102.623 76.9012 100.277C76.6299 98.6306 76.9633 97.2877 78.511 93.6749H64.0509C65.8584 96.4644 66.3505 99.3688 65.1777 102.45C64.504 104.277 63.2398 105.826 61.5857 106.852C57.7614 109.227 52.9919 108.669 50.0691 105.55C47.3256 102.623 45.909 97.4233 50.1496 92.5872C48.119 91.3132 47.0473 89.3999 46.5667 87.1025C46.3368 86.0562 46.0769 85.0191 45.8285 83.9773C42.2641 69.022 38.7035 54.0659 35.1467 39.1091C35.0984 38.9021 35.0202 38.7044 34.9352 38.4399H31.7433C27.6729 38.4399 23.6033 38.4399 19.5345 38.4399C19.1676 38.4501 18.8005 38.4277 18.4376 38.3732C18.0438 38.2939 17.6881 38.0845 17.4276 37.7786C17.1671 37.4728 17.017 37.0883 17.0014 36.6869C16.9857 36.2855 17.1054 35.8905 17.3413 35.5653C17.5771 35.2401 17.9155 35.0036 18.3019 34.8939C18.7184 34.8007 19.1445 34.7567 19.5713 34.7628C24.957 34.7628 30.3428 34.7628 35.7285 34.7628C37.4901 34.7628 37.9914 35.1491 38.4053 36.8646C39.0515 39.5414 39.677 42.2205 40.314 44.8973C40.383 45.1893 40.4658 45.4768 40.544 45.7735H73.1367C68.7145 36.7704 69.7402 28.8205 78.1637 22.8277C84.1175 18.594 92.0099 19.254 97.6049 23.874C100.789 26.4413 102.874 30.1255 103.437 34.1764C104.053 38.2973 103.152 42.1262 100.859 45.801H106.047C106.872 45.801 107.7 45.8378 108.524 45.801C109.673 45.7344 110.522 46.1368 110.984 47.2291L110.989 48.3077ZM43.1495 56.8163H44.182C47.1792 56.8163 50.1764 56.8163 53.1736 56.8163C53.5396 56.8146 53.9048 56.85 54.2636 56.9221C54.6884 57.0029 55.0693 57.2352 55.3357 57.5758C55.6021 57.9163 55.7358 58.3421 55.7119 58.7738C55.688 59.2055 55.5082 59.6139 55.2058 59.923C54.9035 60.2321 54.4992 60.4209 54.0681 60.4543C53.6729 60.4892 53.276 60.5023 52.8792 60.4934H44.1084C44.1452 60.8039 44.1498 61.0454 44.2027 61.2753C44.6488 63.1472 45.1639 65.0076 45.525 66.8956C45.686 67.735 46.0516 67.873 46.8013 67.8661C51.1154 67.8546 55.4295 67.8546 59.7414 67.8546H60.7026C60.6359 67.2751 60.56 66.7967 60.5255 66.3161C60.4404 65.1479 61.1142 64.2464 62.1468 64.1315C63.1793 64.0165 64.0118 64.7547 64.1773 65.9229C64.267 66.5507 64.3406 67.1808 64.4211 67.8063H83.0252C83.2942 65.3733 83.561 62.977 83.8347 60.498L51.5 60.4934C49.8351 60.4934 48.952 59.8449 48.9704 58.6537C48.9888 57.4625 49.8902 56.814 51.546 56.814L84.2486 56.8186C84.3889 55.5216 84.5246 54.289 84.6671 52.9782C81.8368 52.5188 79.1642 51.3661 76.8875 49.623C76.6759 49.4644 76.3079 49.469 76.0136 49.469C71.7317 49.4598 67.449 49.4598 63.1655 49.469C62.9103 49.469 62.655 49.5081 62.3813 49.5311C62.4342 50.0784 64.2181 66.0974 64.2342 66.5527C64.2825 67.7853 63.6478 68.6109 62.606 68.7075C61.5229 68.8064 60.7249 68.0659 60.5732 66.8103C60.5019 66.2377 58.7203 50.0968 58.6513 49.5058H41.4017L43.1495 56.8163ZM87.0288 49.4851C88.7419 49.5327 90.4473 49.2376 92.0448 48.6171C93.6422 47.9966 95.0996 47.0631 96.3313 45.8715C97.563 44.6799 98.5442 43.2542 99.2173 41.6782C99.8903 40.1021 100.242 38.4075 100.251 36.6937C100.26 34.98 99.9263 33.2817 99.2699 31.6987C98.6135 30.1156 97.6474 28.6796 96.4284 27.4751C95.2093 26.2706 93.7619 25.3218 92.171 24.6844C90.5802 24.0471 88.878 23.734 87.1645 23.7636C80.0931 23.7038 74.2613 29.5288 74.2659 36.6416C74.2866 43.667 80.0357 49.4759 87.0243 49.492L87.0288 49.4851ZM82.6136 71.58H64.819C65.0926 74.0429 65.3594 76.4552 65.6238 78.8468H81.8133C82.0777 76.423 82.3353 74.0314 82.6089 71.5869L82.6136 71.58ZM100.502 67.8316C101.312 65.394 102.115 62.9732 102.912 60.5693H87.5325C87.2634 63.0161 87.0013 65.3986 86.7322 67.8316H100.502ZM87.9763 56.6645C88.0913 56.7611 88.1143 56.7979 88.1373 56.7979C93.3391 56.8087 98.5401 56.8125 103.74 56.8094C103.849 56.7972 103.953 56.7594 104.044 56.699C104.136 56.6386 104.211 56.5575 104.265 56.4622C105.056 54.1625 105.817 51.8468 106.608 49.4667C104.147 49.4667 101.795 49.5081 99.4446 49.4506C98.2465 49.4207 97.1634 49.5265 96.2251 50.398C95.8319 50.7637 95.3052 50.989 94.82 51.2512C92.8146 52.3134 90.6149 52.9587 88.3534 53.1484C88.2247 54.3603 88.0982 55.517 87.9717 56.6645H87.9763ZM48.3903 78.8307H61.9283C61.6501 76.3632 61.3787 73.9716 61.1119 71.6076H46.6679C47.2589 74.082 47.8407 76.4759 48.3903 78.8307ZM56.6322 93.6979C55.5534 93.7088 54.5019 94.0389 53.6104 94.6464C52.7189 95.254 52.0272 96.1119 51.6225 97.1121C51.2178 98.1122 51.1182 99.2097 51.3364 100.266C51.5545 101.323 52.0806 102.291 52.8482 103.049C53.6159 103.807 54.5908 104.321 55.6501 104.526C56.7094 104.731 57.8056 104.618 58.8005 104.2C59.7955 103.783 60.6446 103.081 61.2409 102.182C61.8373 101.282 62.154 100.227 62.1514 99.1481C62.1469 98.4278 62.0005 97.7155 61.7207 97.0518C61.4409 96.3881 61.0331 95.786 60.5206 95.2799C60.0081 94.7738 59.4009 94.3736 58.7338 94.1022C58.0666 93.8307 57.3525 93.6934 56.6322 93.6979ZM86.0147 104.626C87.0935 104.62 88.1464 104.295 89.0407 103.691C89.935 103.088 90.6307 102.233 91.04 101.235C91.4494 100.237 91.5542 99.1403 91.3411 98.0827C91.128 97.0252 90.6067 96.0544 89.8427 95.2927C89.0788 94.531 88.1064 94.0124 87.0483 93.8025C85.9901 93.5925 84.8934 93.7005 83.8965 94.1128C82.8996 94.5251 82.0471 95.2233 81.4464 96.1193C80.8456 97.0154 80.5236 98.0693 80.5209 99.1481C80.5263 100.602 81.1074 101.994 82.137 103.021C83.1666 104.048 84.5608 104.625 86.0147 104.626ZM85.5134 78.8699C88.9629 78.8699 92.3111 78.9089 95.664 78.8262C96.1515 78.8147 96.8851 78.3225 97.0645 77.8764C97.8831 75.8205 98.5477 73.7026 99.2675 71.603H86.3137C86.0446 74.0314 85.7847 76.3977 85.5065 78.8744L85.5134 78.8699Z" fill="#323232"/>
<path d="M85.1753 39.7484L92.6261 32.2792C93.8472 31.0558 94.8338 30.8856 95.7191 31.741C96.6045 32.5965 96.4596 33.6543 95.2132 34.9054C92.4874 37.6343 89.7623 40.3639 87.038 43.0944C85.7249 44.4075 84.8441 44.4098 83.5333 43.0944C81.9535 41.5145 80.3368 39.9669 78.8214 38.3272C78.3868 37.8558 77.9889 37.0923 78.0395 36.5036C78.0855 35.977 78.6857 35.3653 79.1893 35.0433C79.8976 34.6018 80.6197 34.9996 81.1716 35.5354C82.2938 36.6209 83.3908 37.7339 84.4831 38.8492C84.7311 39.1352 84.9622 39.4355 85.1753 39.7484V39.7484Z" fill="#323232"/>
</svg>
