<svg width="128" height="128" viewBox="0 0 128 128" fill="none" xmlns="http://www.w3.org/2000/svg">
<rect x="50" y="53.21" width="29.9136" height="5.55963" transform="rotate(-28.1391 50 53.21)" fill="#BD1F2D"/>
<rect x="48" y="65.7033" width="11.6985" height="6.22926" transform="rotate(-89.7824 48 65.7033)" fill="#BD1F2D"/>
<path d="M56.9935 18H70.8316C70.8939 18.0527 70.949 18.1342 71.0209 18.1534C73.386 18.7812 74.7686 20.528 74.8045 22.9458C74.8045 23.7245 74.8381 24.5033 74.8045 25.2797C74.7782 25.7949 74.9723 25.9674 75.4539 26.1399C77.2774 26.7893 79.0794 27.501 80.8741 28.2246C81.6984 28.5577 82.5515 29.3676 83.2703 29.243C83.9892 29.1184 84.5787 28.112 85.2185 27.4842C87.4517 25.2893 90.3176 25.2725 92.5389 27.4722C95.1955 30.1064 97.8409 32.7511 100.475 35.4061C102.754 37.704 102.74 40.5483 100.449 42.8559C99.8234 43.4861 99.1548 44.0708 98.7211 44.4733C99.8617 47.4087 100.878 50.0733 101.951 52.7235C102.025 52.8467 102.126 52.9513 102.246 53.0294C102.367 53.1075 102.504 53.157 102.646 53.174C103.54 53.2291 104.441 53.174 105.337 53.2075C106.041 53.2105 106.735 53.3815 107.36 53.7061C107.985 54.0307 108.524 54.4997 108.931 55.0741C109.387 55.7044 109.65 56.4687 110.002 57.1732V71.0113C109.911 71.1519 109.831 71.2993 109.763 71.4522C108.936 73.6088 107.276 74.7758 104.97 74.8069C104.223 74.8069 103.473 74.8381 102.728 74.8069C102.222 74.7806 102.033 74.9555 101.858 75.4443C101.187 77.3229 100.454 79.18 99.7011 81.0323C99.392 81.7991 98.6085 82.6114 98.7427 83.2608C98.8888 83.9796 99.8353 84.5331 100.442 85.149C102.723 87.4685 102.747 90.3008 100.466 92.6036C97.8313 95.2602 95.1859 97.904 92.5293 100.535C90.3056 102.737 87.4374 102.725 85.2113 100.513C84.5595 99.8689 83.9676 99.162 83.5555 98.7115C80.5914 99.8641 77.9268 100.887 75.2766 101.951C75.1538 102.024 75.0492 102.125 74.9707 102.244C74.8923 102.364 74.842 102.499 74.8237 102.641C74.7662 103.506 74.8237 104.376 74.7902 105.244C74.7159 107.249 73.731 108.68 71.9483 109.557C71.5888 109.734 71.2006 109.856 70.8268 110.005H56.9935C56.7347 109.883 56.4783 109.765 56.2171 109.641C54.5973 108.922 53.5813 107.693 53.265 105.955C53.1356 105.236 53.2003 104.465 53.1955 103.717C53.1955 102.095 53.174 102.145 51.7171 101.585C49.3592 100.674 47.0301 99.6916 44.5284 98.6708C44.0085 99.2219 43.3926 99.9168 42.7313 100.564C40.5747 102.687 37.6992 102.706 35.5427 100.588C32.8158 97.896 30.1073 95.1883 27.4171 92.4646C25.2965 90.32 25.3084 87.4182 27.4363 85.276C28.1048 84.605 28.8405 83.9988 29.3077 83.5747C28.1503 80.589 27.1272 77.922 26.0633 75.2718C25.9885 75.1495 25.8872 75.0456 25.767 74.9676C25.6467 74.8897 25.5105 74.8397 25.3683 74.8213C24.5057 74.7638 23.6335 74.8213 22.7685 74.7854C20.6478 74.6919 19.1861 73.6256 18.3427 71.6919C18.2396 71.4522 18.115 71.2318 18 71.0018V56.8186C18.1158 56.6985 18.2157 56.564 18.2971 56.4184C19.2005 54.2331 20.8347 53.1763 23.1878 53.2003C23.7859 53.1739 24.385 53.1787 24.9826 53.2147C25.7014 53.2938 25.9986 53.035 26.2358 52.3425C26.8396 50.5645 27.5465 48.8224 28.2534 47.0828C28.5745 46.2849 29.3868 45.4462 29.2526 44.7681C29.1064 44.0276 28.1336 43.4453 27.5058 42.808C25.2965 40.5675 25.2725 37.6992 27.4722 35.4827C30.1304 32.8038 32.7974 30.1352 35.4732 27.477C37.6944 25.2749 40.5675 25.2821 42.7936 27.501C43.4453 28.1479 44.0204 28.8692 44.4134 29.3101C47.4183 28.1456 50.0876 27.1224 52.7402 26.0585C52.8614 25.9814 52.9638 25.8781 53.0397 25.7561C53.1156 25.6342 53.1631 25.4967 53.1787 25.354C53.2339 24.4889 53.1788 23.6167 53.2075 22.7493C53.2257 21.7864 53.5322 20.8511 54.0875 20.0642C54.6428 19.2774 55.4214 18.6752 56.3226 18.3355C56.5502 18.2396 56.7683 18.1126 56.9935 18ZM63.9881 20.6981C62.0711 20.6981 60.1541 20.6838 58.2371 20.6981C56.7707 20.7125 55.9128 21.5823 55.8937 23.0584C55.8793 24.2565 55.8745 25.4546 55.8937 26.6527C55.9104 27.5585 55.5198 28.1264 54.6356 28.354C51.3935 29.195 48.2851 30.4855 45.4007 32.188C44.6482 32.6289 43.9917 32.5474 43.3807 31.9172C42.5452 31.0593 41.6985 30.2127 40.8407 29.3772C39.6881 28.2582 38.5187 28.2558 37.3781 29.3892C34.7008 32.0522 32.033 34.7207 29.3748 37.3949C28.2414 38.5355 28.2462 39.7097 29.3748 40.8574C30.2135 41.7137 31.0617 42.5595 31.9196 43.395C32.5426 44.0085 32.6384 44.6674 32.1832 45.4174C30.4777 48.3004 29.187 51.4093 28.3492 54.6524C28.1096 55.539 27.5489 55.9248 26.6431 55.908C25.445 55.8889 24.2469 55.8937 23.0488 55.908C21.5847 55.9248 20.7005 56.7922 20.6957 58.2539C20.6814 62.0879 20.6814 65.9218 20.6957 69.7557C20.6957 71.227 21.5727 72.0944 23.0392 72.1184C24.2373 72.1376 25.4354 72.1471 26.6335 72.1184C27.592 72.0944 28.1408 72.5353 28.3732 73.4483C29.2026 76.628 30.4678 79.6777 32.1328 82.5107C32.684 83.4692 32.6121 83.9197 31.8046 84.7368C30.997 85.5539 30.1416 86.3782 29.3317 87.2169C28.2893 88.2952 28.2702 89.4885 29.3173 90.5476C32.0154 93.2633 34.7263 95.9734 37.45 98.678C38.5163 99.7347 39.7025 99.7371 40.7808 98.7067C41.6458 97.8776 42.4988 97.0294 43.3207 96.1667C43.9821 95.4671 44.6674 95.3832 45.4773 95.8624C48.3371 97.545 51.417 98.8216 54.6285 99.6556C55.5127 99.8952 55.9128 100.439 55.8984 101.35C55.8769 102.548 55.8817 103.746 55.8984 104.944C55.9176 106.423 56.7731 107.309 58.2324 107.314C62.0663 107.33 65.9002 107.33 69.7342 107.314C71.2486 107.314 72.0944 106.432 72.1088 104.891C72.1232 103.693 72.1256 102.495 72.1088 101.297C72.1088 100.425 72.4874 99.8809 73.3309 99.6628C76.6014 98.8175 79.7374 97.5181 82.6473 95.8025C83.3662 95.376 84.006 95.4718 84.5931 96.0637C85.4557 96.9359 86.3159 97.8105 87.1977 98.666C88.3072 99.7419 89.4909 99.7467 90.5932 98.6516C93.2929 95.9727 95.9822 93.2833 98.6612 90.5836C99.7515 89.4837 99.7395 88.3048 98.6612 87.1857C97.8289 86.3231 96.9822 85.4757 96.1212 84.6434C95.4551 84.006 95.4023 83.3398 95.8504 82.5539C97.5376 79.6959 98.8137 76.6144 99.6412 73.4004C99.8809 72.4754 100.454 72.0776 101.405 72.104C102.603 72.1376 103.801 72.128 104.999 72.104C106.415 72.08 107.309 71.2102 107.314 69.8036C107.333 65.941 107.333 62.0775 107.314 58.2132C107.314 56.797 106.423 55.9176 105.021 55.896C103.794 55.8769 102.566 55.8769 101.338 55.896C100.425 55.9104 99.8785 55.4935 99.6604 54.6165C98.8319 51.4024 97.555 48.321 95.8672 45.463C95.388 44.6363 95.4886 43.9605 96.1835 43.3064C97.0533 42.4845 97.8968 41.629 98.7211 40.764C99.7275 39.7121 99.7515 38.5235 98.7427 37.5004C96.027 34.7495 93.2969 32.0162 90.5524 29.3005C89.4933 28.2534 88.2976 28.2797 87.2217 29.3245C86.3399 30.1799 85.4797 31.0569 84.617 31.9292C84.0347 32.5162 83.3973 32.6313 82.6713 32.2071C79.7601 30.4889 76.6214 29.1894 73.3476 28.3468C72.5042 28.1312 72.1016 27.5992 72.1112 26.7222C72.1256 25.5273 72.1256 24.3292 72.1112 23.1279C72.0944 21.5512 71.2414 20.7053 69.6527 20.6981C67.7621 20.6885 65.8763 20.6981 63.9881 20.6981Z" fill="#323232"/>
<path d="M40.3531 48.6173C42.6174 49.7849 44.7422 50.8914 46.8817 51.966C47.0015 52.0133 47.1297 52.0358 47.2585 52.032C47.3872 52.0282 47.5139 51.9983 47.6307 51.944C55.3009 47.9979 62.971 44.0413 70.6411 40.074C70.6632 40.0618 70.6754 40.0324 70.7611 39.9198C69.4906 39.2564 68.2373 38.593 66.9742 37.9615C65.973 37.4523 64.9571 36.5955 63.9436 36.5906C62.9645 36.5906 61.9853 37.467 61.0061 37.9713C58.0784 39.4792 55.1515 40.9912 52.2255 42.5073C51.5474 42.8573 50.9134 42.8132 50.4067 42.2135C50.2012 42.001 50.0796 41.7213 50.0643 41.4262C50.049 41.131 50.1411 40.8403 50.3234 40.6077C50.5312 40.3458 50.7946 40.1334 51.0945 39.9859C54.9402 37.9933 58.7981 36.0276 62.6389 34.0228C63.0469 33.7842 63.5106 33.6573 63.9833 33.6547C64.4559 33.6521 64.921 33.774 65.3316 34.0081C73.8095 38.398 82.2957 42.7733 90.7899 47.1338C91.1835 47.3089 91.5152 47.5985 91.7418 47.9649C91.9684 48.3312 92.0794 48.7573 92.0604 49.1876C92.0604 53.6853 92.0628 65.188 92.0628 69.684C92.0628 70.6632 91.4974 71.2997 90.6896 71.3119C89.8377 71.3119 89.3138 70.7024 89.3114 69.6277C89.3114 65.7747 89.3089 54.9157 89.3089 50.9697C89.0735 51.0493 88.8423 51.1408 88.6162 51.2439C81.0799 55.1295 73.5484 59.0234 66.0219 62.9253C65.8575 63.0259 65.7177 63.1621 65.6131 63.324C65.5084 63.4859 65.4415 63.6692 65.4173 63.8604C65.3863 72.6729 65.3781 81.4854 65.3928 90.2979C65.3928 90.4717 65.4271 90.6455 65.4564 90.9075C65.7624 90.7704 66.0097 90.6627 66.2447 90.5525C73.6178 86.7517 80.9925 82.9526 88.3689 79.155C89.0592 78.8025 89.3481 78.4035 89.3285 77.6128C89.2796 74.952 89.304 72.2886 89.3114 69.6277C89.3114 68.5531 89.823 67.9142 90.6577 67.9142C91.4925 67.9142 92.0579 68.558 92.0628 69.6032C92.0628 72.3865 92.0433 75.1698 92.0628 77.9531C92.08 79.5981 91.3872 80.7094 89.9136 81.4659C81.8779 85.5784 73.8544 89.7145 65.8432 93.8743C64.5556 94.5426 63.3953 94.5084 62.1126 93.845C54.0149 89.6182 45.9074 85.4315 37.7901 81.2847C36.4805 80.614 35.9321 79.647 35.9346 78.215C35.9525 68.9129 35.9525 59.6108 35.9346 50.3088C35.9346 48.5952 36.5931 47.4055 38.1377 46.6369C40.4045 45.5133 48.6182 41.3078 50.8703 40.1475C51.8275 39.6579 52.6157 39.8366 53 40.6077C53.3843 41.3788 53.0832 42.1107 52.1188 42.6125C50.2412 43.6015 42.3628 47.5769 40.3531 48.6173ZM38.7007 50.8693C38.7007 60.0564 38.7007 69.0476 38.6836 78.0412C38.6836 78.5945 38.9529 78.7756 39.347 78.9763C46.6679 82.7412 53.988 86.5102 61.3072 90.2832L62.6144 90.9613V89.7961C62.6144 81.6911 62.5557 73.5836 62.6634 65.4785C62.6878 63.7429 62.2301 62.7858 60.612 62.1273C58.8813 61.4272 57.2608 60.4456 55.5008 59.5399C55.5008 62.2179 55.5179 64.7564 55.5008 67.2924C55.4885 68.8028 54.5216 69.3805 53.1704 68.6951C51.1337 67.6547 49.1215 66.5629 47.0701 65.5544C46.1889 65.1211 45.8119 64.5312 45.8266 63.5446C45.8682 60.7907 45.8486 58.0368 45.8266 55.2854C45.8266 54.9916 45.7409 54.5388 45.5475 54.436C43.3248 53.234 41.0776 52.0957 38.7007 50.8693ZM87.659 48.6222C85.4926 47.5059 83.456 46.4802 81.4487 45.4056C81.2494 45.2796 81.0186 45.2128 80.7828 45.2128C80.5471 45.2128 80.3163 45.2796 80.117 45.4056C74.242 48.4524 68.367 51.4846 62.492 54.502C60.7369 55.4053 58.9866 56.3233 57.1458 57.2829C59.3489 58.4187 61.4541 59.5178 63.5789 60.5631C63.7367 60.6218 63.9047 60.6481 64.0729 60.6405C64.2412 60.633 64.4061 60.5916 64.5581 60.519C72.2029 56.5926 79.8379 52.6514 87.6517 48.6222H87.659ZM50.2475 53.7236C51.3564 54.2964 52.3209 54.7444 53.2316 55.2854C53.8484 55.6501 54.338 55.6379 54.9769 55.3025C59.5961 52.884 64.2374 50.5095 68.8688 48.1179L77.745 43.5329C76.5969 42.9332 75.5688 42.3383 74.4868 41.8586C74.0877 41.7041 73.644 41.712 73.2506 41.8806C70.7635 43.1045 68.3058 44.4019 65.8408 45.6724L50.2475 53.7236ZM48.5903 55.983C48.5903 58.3722 48.5903 60.5704 48.6025 62.7687C48.6028 62.8798 48.6269 62.9896 48.6734 63.0906C48.7199 63.1915 48.7875 63.2813 48.8718 63.3537C50.1129 64.0318 51.3785 64.6707 52.7469 65.3781C52.7469 62.9988 52.7469 60.781 52.7469 58.5607C52.7425 58.4477 52.7136 58.337 52.662 58.2364C52.6104 58.1357 52.5374 58.0476 52.4482 57.9781C51.2145 57.3074 49.9709 56.6831 48.5903 55.9757V55.983Z" fill="#323232"/>
<path d="M42.8867 73.5885C43.2758 73.7101 43.6582 73.8523 44.0323 74.0144C46.5014 75.2759 48.9657 76.5447 51.425 77.8209C52.4042 78.3276 52.7004 79.0449 52.3112 79.8135C51.9219 80.5822 51.1337 80.7731 50.1815 80.2835C47.687 79.0057 45.2 77.7132 42.7031 76.4329C41.9981 76.0707 41.5403 75.5052 41.8341 74.7414C42.0152 74.2861 42.5415 73.9508 42.8867 73.5885Z" fill="#BD1F2D"/>
</svg>
