<svg width="128" height="128" viewBox="0 0 128 128" fill="none" xmlns="http://www.w3.org/2000/svg">
<rect x="19" y="31" width="91" height="64" rx="3" stroke="#323232" stroke-width="2"/>
<path fill-rule="evenodd" clip-rule="evenodd" d="M66.4372 17C68.2948 17 69.8 18.5052 69.8 20.3629V20.3655C69.8 21.8946 70.8494 23.209 72.2778 23.7734C72.5028 23.8632 72.7264 23.9568 72.9482 24.0543C74.358 24.6665 76.0275 24.481 77.114 23.3945C77.7446 22.7643 78.5996 22.4103 79.4911 22.4103C80.3825 22.4103 81.2375 22.7643 81.8681 23.3945L84.6082 26.1346C85.2383 26.7651 85.5923 27.6201 85.5923 28.5116C85.5923 29.4031 85.2383 30.2581 84.6082 30.8887C83.5243 31.9752 83.3389 33.6473 83.9484 35.0544C84.045 35.2763 84.1378 35.4998 84.2266 35.7249C84.7911 37.1533 86.1055 38.2027 87.6372 38.2027C89.4948 38.2027 91 39.7079 91 41.5655V45.4372C91 47.2948 89.4948 48.8 87.6372 48.8C86.1055 48.8 84.791 49.8494 84.2293 51.2778C84.1391 51.503 84.0464 51.7283 83.9484 51.9482C83.3362 53.358 83.5217 55.0275 84.6082 56.114C85.2383 56.7446 85.5923 57.5996 85.5923 58.4911C85.5923 59.3825 85.2383 60.2375 84.6082 60.8681L81.8681 63.6082C81.5558 63.9206 81.185 64.1684 80.777 64.3375C80.3689 64.5066 79.9315 64.5936 79.4897 64.5936C79.048 64.5936 78.6106 64.5066 78.2025 64.3375C77.7944 64.1684 77.4236 63.9206 77.1114 63.6082C76.0275 62.5243 74.3554 62.3362 72.9482 62.951C72.7283 63.0464 72.503 63.1392 72.2778 63.2266C70.8494 63.7911 69.8 65.1055 69.8 66.6372C69.8 68.4948 68.2948 70 66.4372 70H62.5629C60.7052 70 59.2 68.4948 59.2 66.6372C59.2 65.1055 58.1506 63.791 56.7222 63.2293C56.497 63.1391 56.2718 63.0464 56.0518 62.9484C54.642 62.3362 52.9725 62.5217 51.886 63.6082C51.2554 64.2383 50.4004 64.5923 49.509 64.5923C48.6175 64.5923 47.7625 64.2383 47.1319 63.6082L44.3918 60.8681C43.7617 60.2375 43.4077 59.3825 43.4077 58.4911C43.4077 57.5996 43.7617 56.7446 44.3918 56.114C45.4757 55.0275 45.6611 53.3554 45.049 51.9482L45.0288 51.9004C44.9425 51.6957 44.8543 51.4867 44.7707 51.2778C44.2089 49.8494 42.8946 48.8 41.3629 48.8C39.5052 48.8 38 47.2948 38 45.4372V41.5629C38 39.7052 39.5052 38.2 41.3629 38.2C42.8946 38.2 44.2089 37.1506 44.7707 35.7222C44.8596 35.4972 44.9524 35.2737 45.049 35.0518C45.6638 33.642 45.4783 31.9725 44.3918 30.886C43.7617 30.2554 43.4077 29.4004 43.4077 28.509C43.4077 27.6175 43.7617 26.7625 44.3918 26.1319L47.1319 23.3918C47.7625 22.7617 48.6175 22.4077 49.509 22.4077C50.4004 22.4077 51.2554 22.7617 51.886 23.3918C52.9725 24.4757 54.6447 24.6611 56.0518 24.0516C56.2718 23.9562 56.497 23.8608 56.7222 23.7707C58.1506 23.2089 59.2 21.8946 59.2 20.3629C59.2 18.5052 60.7052 17 62.5655 17H66.4372ZM64.4997 55.1598C70.9394 55.1598 76.1597 49.9395 76.1597 43.4998C76.1597 37.0602 70.9394 31.8398 64.4997 31.8398C58.0601 31.8398 52.8397 37.0602 52.8397 43.4998C52.8397 49.9395 58.0601 55.1598 64.4997 55.1598Z" fill="#BD1F2D"/>
<path d="M72.2778 23.7734L72.6481 22.8445L72.6453 22.8434L72.2778 23.7734ZM72.9482 24.0543L72.5458 24.9698L72.5499 24.9716L72.9482 24.0543ZM77.114 23.3945L76.4071 22.6871L76.4069 22.6873L77.114 23.3945ZM81.8681 23.3945L82.5752 22.6873L82.575 22.6871L81.8681 23.3945ZM84.6082 26.1346L85.3156 25.4277L85.3153 25.4274L84.6082 26.1346ZM84.6082 30.8887L83.9008 30.1818L83.9002 30.1824L84.6082 30.8887ZM83.9484 35.0544L83.0307 35.4519L83.0317 35.454L83.9484 35.0544ZM84.2266 35.7249L83.2964 36.0918L83.2966 36.0924L84.2266 35.7249ZM84.2293 51.2778L85.1577 51.6492L85.1599 51.6438L84.2293 51.2778ZM83.9484 51.9482L83.035 51.541L83.0311 51.5499L83.9484 51.9482ZM84.6082 56.114L85.3156 55.4071L85.3153 55.4069L84.6082 56.114ZM84.6082 60.8681L85.3153 61.5752L85.3156 61.575L84.6082 60.8681ZM81.8681 63.6082L81.161 62.9011L81.1608 62.9012L81.8681 63.6082ZM78.2025 64.3375L78.5853 63.4137L78.5853 63.4137L78.2025 64.3375ZM77.1114 63.6082L77.8186 62.9012L77.8185 62.9011L77.1114 63.6082ZM72.9482 62.951L73.3461 63.8684L73.3486 63.8674L72.9482 62.951ZM72.2778 63.2266L71.9158 62.2944L71.9102 62.2966L72.2778 63.2266ZM56.7222 63.2293L56.3508 64.1577L56.3562 64.1599L56.7222 63.2293ZM56.0518 62.9484L56.459 62.035L56.4501 62.0311L56.0518 62.9484ZM51.886 63.6082L52.5929 64.3156L52.5931 64.3153L51.886 63.6082ZM47.1319 63.6082L46.4248 64.3153L46.425 64.3156L47.1319 63.6082ZM44.3918 60.8681L43.6844 61.575L43.6847 61.5752L44.3918 60.8681ZM44.3918 56.114L45.0992 56.8209L45.0998 56.8202L44.3918 56.114ZM45.049 51.9482L44.1276 52.3369L44.132 52.3471L45.049 51.9482ZM45.0288 51.9004L45.9502 51.5118L45.9502 51.5118L45.0288 51.9004ZM44.7707 51.2778L43.8401 51.6438L43.8423 51.6491L44.7707 51.2778ZM44.7707 35.7222L43.8407 35.3549L43.8401 35.3562L44.7707 35.7222ZM45.049 35.0518L44.1324 34.6521L44.1321 34.6526L45.049 35.0518ZM44.3918 30.886L43.6844 31.5929L43.6847 31.5931L44.3918 30.886ZM44.3918 26.1319L43.6847 25.4248L43.6844 25.425L44.3918 26.1319ZM47.1319 23.3918L46.425 22.6844L46.4248 22.6847L47.1319 23.3918ZM51.886 23.3918L51.1791 24.0992L51.1798 24.0998L51.886 23.3918ZM56.0518 24.0516L56.4493 24.9693L56.4497 24.9691L56.0518 24.0516ZM56.7222 23.7707L56.3562 22.8401L56.3509 22.8423L56.7222 23.7707ZM70.8 20.3629C70.8 17.9529 68.8471 16 66.4372 16V18C67.7425 18 68.8 19.0575 68.8 20.3629H70.8ZM70.8 20.3655V20.3629H68.8V20.3655H70.8ZM72.6453 22.8434C71.5301 22.4027 70.8 21.4151 70.8 20.3655H68.8C68.8 22.374 70.1687 24.0152 71.9102 24.7034L72.6453 22.8434ZM73.3506 23.1388C73.1181 23.0367 72.884 22.9386 72.6481 22.8445L71.9074 24.7023C72.1217 24.7878 72.3346 24.8769 72.5458 24.9698L73.3506 23.1388ZM76.4069 22.6873C75.6593 23.4349 74.4468 23.6148 73.3465 23.137L72.5499 24.9716C74.2692 25.7181 76.3957 25.527 77.8211 24.1016L76.4069 22.6873ZM79.4911 21.4103C78.3345 21.4103 77.2253 21.8696 76.4071 22.6871L77.8209 24.1018C78.2639 23.6591 78.8647 23.4103 79.4911 23.4103V21.4103ZM82.575 22.6871C81.7569 21.8696 80.6476 21.4103 79.4911 21.4103V23.4103C80.1174 23.4103 80.7182 23.6591 81.1612 24.1018L82.575 22.6871ZM85.3153 25.4274L82.5752 22.6873L81.161 24.1016L83.9011 26.8417L85.3153 25.4274ZM86.5923 28.5116C86.5923 27.355 86.1331 26.2458 85.3156 25.4277L83.9008 26.8414C84.3436 27.2845 84.5923 27.8852 84.5923 28.5116H86.5923ZM85.3156 31.5955C86.1331 30.7774 86.5923 29.6682 86.5923 28.5116H84.5923C84.5923 29.138 84.3436 29.7387 83.9008 30.1818L85.3156 31.5955ZM84.866 34.657C84.3904 33.5589 84.5701 32.3428 85.3162 31.5949L83.9002 30.1824C82.4786 31.6075 82.2874 33.7357 83.0307 35.4519L84.866 34.657ZM85.1568 35.358C85.0637 35.1219 84.9665 34.8875 84.8651 34.6549L83.0317 35.454C83.1236 35.665 83.2119 35.8777 83.2964 36.0918L85.1568 35.358ZM87.6372 37.2027C86.5845 37.2027 85.5972 36.4722 85.1566 35.3574L83.2966 36.0924C83.985 37.8343 85.6264 39.2027 87.6372 39.2027V37.2027ZM92 41.5655C92 39.1556 90.0471 37.2027 87.6372 37.2027V39.2027C88.9425 39.2027 90 40.2601 90 41.5655H92ZM92 45.4372V41.5655H90V45.4372H92ZM87.6372 49.8C90.0471 49.8 92 47.8471 92 45.4372H90C90 46.7425 88.9425 47.8 87.6372 47.8V49.8ZM85.1599 51.6438C85.5977 50.5306 86.5844 49.8 87.6372 49.8V47.8C85.6265 47.8 83.9844 49.1683 83.2986 50.9117L85.1599 51.6438ZM84.8617 52.3554C84.9673 52.1185 85.0654 51.8798 85.1577 51.6492L83.3008 50.9064C83.2129 51.1262 83.1255 51.338 83.035 51.541L84.8617 52.3554ZM85.3153 55.4069C84.5677 54.6593 84.3878 53.4468 84.8656 52.3465L83.0311 51.5499C82.2846 53.2692 82.4757 55.3957 83.9011 56.8211L85.3153 55.4069ZM86.5923 58.4911C86.5923 57.3345 86.1331 56.2252 85.3156 55.4071L83.9008 56.8209C84.3436 57.2639 84.5923 57.8647 84.5923 58.4911H86.5923ZM85.3156 61.575C86.1331 60.7569 86.5923 59.6476 86.5923 58.4911H84.5923C84.5923 59.1174 84.3436 59.7182 83.9008 60.1612L85.3156 61.575ZM82.5752 64.3153L85.3153 61.5752L83.9011 60.161L81.161 62.9011L82.5752 64.3153ZM81.1597 65.2614C81.6892 65.042 82.1702 64.7205 82.5754 64.3152L81.1608 62.9012C80.9414 63.1208 80.6809 63.2949 80.3942 63.4137L81.1597 65.2614ZM79.4897 65.5936C80.0628 65.5936 80.6303 65.4807 81.1597 65.2614L80.3942 63.4137C80.1074 63.5325 79.8001 63.5936 79.4897 63.5936V65.5936ZM77.8197 65.2614C78.3492 65.4807 78.9166 65.5936 79.4897 65.5936V63.5936C79.1794 63.5936 78.872 63.5325 78.5853 63.4137L77.8197 65.2614ZM76.4041 64.3152C76.8092 64.7205 77.2903 65.042 77.8197 65.2614L78.5853 63.4137C78.2985 63.2949 78.038 63.1208 77.8186 62.9012L76.4041 64.3152ZM73.3486 63.8674C74.4441 63.3887 75.6587 63.5698 76.4042 64.3153L77.8185 62.9011C76.3963 61.4789 74.2666 61.2837 72.5478 62.0346L73.3486 63.8674ZM72.6397 64.1588C72.8775 64.0665 73.1147 63.9688 73.3461 63.8684L72.5503 62.0336C72.3418 62.124 72.1285 62.2118 71.9158 62.2944L72.6397 64.1588ZM70.8 66.6372C70.8 65.5845 71.5305 64.5972 72.6453 64.1566L71.9102 62.2966C70.1683 62.985 68.8 64.6264 68.8 66.6372H70.8ZM66.4372 71C68.8471 71 70.8 69.0471 70.8 66.6372H68.8C68.8 67.9425 67.7425 69 66.4372 69V71ZM62.5629 71H66.4372V69H62.5629V71ZM58.2 66.6372C58.2 69.0471 60.1529 71 62.5629 71V69C61.2575 69 60.2 67.9425 60.2 66.6372H58.2ZM56.3562 64.1599C57.4694 64.5977 58.2 65.5844 58.2 66.6372H60.2C60.2 64.6265 58.8318 62.9844 57.0883 62.2986L56.3562 64.1599ZM55.6446 63.8617C55.8815 63.9673 56.1201 64.0654 56.3508 64.1577L57.0937 62.3008C56.8738 62.2129 56.662 62.1255 56.459 62.035L55.6446 63.8617ZM52.5931 64.3153C53.3407 63.5677 54.5532 63.3878 55.6535 63.8656L56.4501 62.0311C54.7308 61.2846 52.6043 61.4757 51.1789 62.9011L52.5931 64.3153ZM49.509 65.5923C50.6655 65.5923 51.7748 65.1331 52.5929 64.3156L51.1791 62.9008C50.7361 63.3436 50.1353 63.5923 49.509 63.5923V65.5923ZM46.425 64.3156C47.2431 65.1331 48.3524 65.5923 49.509 65.5923V63.5923C48.8826 63.5923 48.2818 63.3436 47.8388 62.9008L46.425 64.3156ZM43.6847 61.5752L46.4248 64.3153L47.839 62.9011L45.0989 60.161L43.6847 61.5752ZM42.4077 58.4911C42.4077 59.6476 42.8669 60.7569 43.6844 61.575L45.0992 60.1612C44.6564 59.7182 44.4077 59.1174 44.4077 58.4911H42.4077ZM43.6844 55.4071C42.8669 56.2253 42.4077 57.3345 42.4077 58.4911H44.4077C44.4077 57.8647 44.6564 57.2639 45.0992 56.8209L43.6844 55.4071ZM44.132 52.3471C44.6093 53.4444 44.4298 54.66 43.6838 55.4078L45.0998 56.8202C46.5215 55.395 46.713 53.2664 45.966 51.5493L44.132 52.3471ZM44.1075 52.2891L44.1276 52.3369L45.9704 51.5595L45.9502 51.5118L44.1075 52.2891ZM43.8423 51.6491C43.9299 51.8682 44.0217 52.0858 44.1075 52.2891L45.9502 51.5118C45.8633 51.3056 45.7788 51.1052 45.6992 50.9064L43.8423 51.6491ZM41.3629 49.8C42.4156 49.8 43.4023 50.5306 43.8401 51.6438L45.7014 50.9117C45.0156 49.1683 43.3735 47.8 41.3629 47.8V49.8ZM37 45.4372C37 47.8471 38.9529 49.8 41.3629 49.8V47.8C40.0575 47.8 39 46.7425 39 45.4372H37ZM37 41.5629V45.4372H39V41.5629H37ZM41.3629 37.2C38.9529 37.2 37 39.1529 37 41.5629H39C39 40.2575 40.0575 39.2 41.3629 39.2V37.2ZM43.8401 35.3562C43.4023 36.4694 42.4156 37.2 41.3629 37.2V39.2C43.3735 39.2 45.0156 37.8317 45.7014 36.0883L43.8401 35.3562ZM44.1321 34.6526C44.0309 34.885 43.9338 35.1192 43.8407 35.3549L45.7008 36.0896C45.7855 35.8752 45.8739 35.6623 45.9659 35.451L44.1321 34.6526ZM43.6847 31.5931C44.4322 32.3406 44.6118 33.5526 44.1324 34.6521L45.9656 35.4515C46.7158 33.7314 46.5244 31.6044 45.0989 30.1789L43.6847 31.5931ZM42.4077 28.509C42.4077 29.6655 42.8669 30.7748 43.6844 31.5929L45.0992 30.1791C44.6564 29.7361 44.4077 29.1353 44.4077 28.509H42.4077ZM43.6844 25.425C42.8669 26.2431 42.4077 27.3524 42.4077 28.509H44.4077C44.4077 27.8826 44.6564 27.2818 45.0992 26.8388L43.6844 25.425ZM46.4248 22.6847L43.6847 25.4248L45.0989 26.839L47.839 24.0989L46.4248 22.6847ZM49.509 21.4077C48.3524 21.4077 47.2431 21.8669 46.425 22.6844L47.8388 24.0992C48.2818 23.6564 48.8826 23.4077 49.509 23.4077V21.4077ZM52.5929 22.6844C51.7748 21.8669 50.6655 21.4077 49.509 21.4077V23.4077C50.1353 23.4077 50.7361 23.6564 51.1791 24.0992L52.5929 22.6844ZM55.6543 23.134C54.5563 23.6097 53.3401 23.4299 52.5922 22.6838L51.1798 24.0998C52.6049 25.5214 54.733 25.7126 56.4493 24.9693L55.6543 23.134ZM56.3509 22.8423C56.1135 22.9372 55.8788 23.0367 55.6539 23.1342L56.4497 24.9691C56.6647 24.8758 56.8805 24.7845 57.0936 24.6992L56.3509 22.8423ZM58.2 20.3629C58.2 21.4156 57.4694 22.4023 56.3562 22.8401L57.0883 24.7014C58.8317 24.0156 60.2 22.3735 60.2 20.3629H58.2ZM62.5655 16C60.1534 16 58.2 17.9524 58.2 20.3629H60.2C60.2 19.058 61.257 18 62.5655 18V16ZM66.4372 16H62.5655V18H66.4372V16ZM75.1597 43.4998C75.1597 49.3872 70.3871 54.1598 64.4997 54.1598V56.1598C71.4917 56.1598 77.1597 50.4918 77.1597 43.4998H75.1597ZM64.4997 32.8398C70.3871 32.8398 75.1597 37.6125 75.1597 43.4998H77.1597C77.1597 36.5079 71.4917 30.8398 64.4997 30.8398V32.8398ZM53.8397 43.4998C53.8397 37.6125 58.6124 32.8398 64.4997 32.8398V30.8398C57.5078 30.8398 51.8397 36.5079 51.8397 43.4998H53.8397ZM64.4997 54.1598C58.6124 54.1598 53.8397 49.3872 53.8397 43.4998H51.8397C51.8397 50.4918 57.5078 56.1598 64.4997 56.1598V54.1598Z" fill="#323232"/>
<rect x="59" y="95" width="12" height="8" fill="#BD1F2D" stroke="#323232" stroke-width="2"/>
<rect x="44" y="103" width="41" height="8" rx="2" fill="#BD1F2D" stroke="#323232" stroke-width="2"/>
<path d="M19 91V85H110V91C110 93.2091 108.209 95 106 95H23C20.7909 95 19 93.2091 19 91Z" fill="#BD1F2D"/>
<path d="M19 85V84H18V85H19ZM110 85H111V84H110V85ZM18 85V91H20V85H18ZM23 96H106V94H23V96ZM111 91V85H109V91H111ZM110 84H19V86H110V84ZM106 96C108.761 96 111 93.7614 111 91H109C109 92.6569 107.657 94 106 94V96ZM18 91C18 93.7614 20.2386 96 23 96V94C21.3431 94 20 92.6569 20 91H18Z" fill="#323232"/>
</svg>
