<svg width="128" height="128" viewBox="0 0 128 128" fill="none" xmlns="http://www.w3.org/2000/svg">
<circle cx="64.1459" cy="64.429" r="24.2696" stroke="#323232" stroke-width="2"/>
<circle r="6.76578" transform="matrix(0.93726 -0.34863 -0.34863 -0.93726 63.7921 101.014)" fill="#BD1F2D" stroke="#323232" stroke-width="2"/>
<circle cx="63.7921" cy="27.9859" r="6.76578" transform="rotate(20.4035 63.7921 27.9859)" fill="#BD1F2D" stroke="#323232" stroke-width="2"/>
<circle r="6.76578" transform="matrix(0.34863 0.93726 0.93726 -0.34863 26.9859 64.9836)" fill="#BD1F2D" stroke="#323232" stroke-width="2"/>
<circle cx="101.014" cy="64.9836" r="6.76578" transform="rotate(110.404 101.014 64.9836)" fill="#BD1F2D" stroke="#323232" stroke-width="2"/>
<path d="M64 89V94" stroke="#323232" stroke-width="2"/>
<path d="M64 35V40" stroke="#323232" stroke-width="2"/>
<path d="M39 65L34 65" stroke="#323232" stroke-width="2"/>
<path d="M94 65L89 65" stroke="#323232" stroke-width="2"/>
<path fill-rule="evenodd" clip-rule="evenodd" d="M65.0965 50C66.148 50 67 50.852 67 51.9035V51.905C67 52.7705 67.594 53.5145 68.4025 53.834C68.5299 53.8848 68.6564 53.9378 68.782 53.993C69.58 54.3395 70.525 54.2345 71.14 53.6195C71.4969 53.2628 71.9809 53.0625 72.4855 53.0625C72.9901 53.0625 73.4741 53.2628 73.831 53.6195L75.382 55.1705C75.7387 55.5274 75.939 56.0114 75.939 56.516C75.939 57.0206 75.7387 57.5046 75.382 57.8615C74.7685 58.4765 74.6635 59.423 75.0085 60.2195C75.0632 60.3451 75.1157 60.4716 75.166 60.599C75.4855 61.4075 76.2295 62.0015 77.0965 62.0015C78.148 62.0015 79 62.8535 79 63.905V66.0965C79 67.148 78.148 68 77.0965 68C76.2295 68 75.4855 68.594 75.1675 69.4025C75.1165 69.53 75.064 69.6575 75.0085 69.782C74.662 70.58 74.767 71.525 75.382 72.14C75.7387 72.4969 75.939 72.9809 75.939 73.4855C75.939 73.9901 75.7387 74.4741 75.382 74.831L73.831 76.382C73.6542 76.5588 73.4444 76.6991 73.2134 76.7948C72.9824 76.8905 72.7348 76.9398 72.4848 76.9398C72.2347 76.9398 71.9871 76.8905 71.7561 76.7948C71.5251 76.6991 71.3153 76.5588 71.1385 76.382C70.525 75.7685 69.5785 75.662 68.782 76.01C68.6575 76.064 68.53 76.1165 68.4025 76.166C67.594 76.4855 67 77.2295 67 78.0965C67 79.148 66.148 80 65.0965 80H62.9035C61.852 80 61 79.148 61 78.0965C61 77.2295 60.406 76.4855 59.5975 76.1675C59.47 76.1165 59.3425 76.064 59.218 76.0085C58.42 75.662 57.475 75.767 56.86 76.382C56.5031 76.7387 56.0191 76.939 55.5145 76.939C55.0099 76.939 54.5259 76.7387 54.169 76.382L52.618 74.831C52.2613 74.4741 52.061 73.9901 52.061 73.4855C52.061 72.9809 52.2613 72.4969 52.618 72.14C53.2315 71.525 53.3365 70.5785 52.99 69.782L52.9786 69.755C52.9297 69.6391 52.8798 69.5208 52.8325 69.4025C52.5145 68.594 51.7705 68 50.9035 68C49.852 68 49 67.148 49 66.0965V63.9035C49 62.852 49.852 62 50.9035 62C51.7705 62 52.5145 61.406 52.8325 60.5975C52.8828 60.4701 52.9353 60.3436 52.99 60.218C53.338 59.42 53.233 58.475 52.618 57.86C52.2613 57.5031 52.061 57.0191 52.061 56.5145C52.061 56.0099 52.2613 55.5259 52.618 55.169L54.169 53.618C54.5259 53.2613 55.0099 53.061 55.5145 53.061C56.0191 53.061 56.5031 53.2613 56.86 53.618C57.475 54.2315 58.4215 54.3365 59.218 53.9915C59.3425 53.9375 59.47 53.8835 59.5975 53.8325C60.406 53.5145 61 52.7705 61 51.9035C61 50.852 61.852 50 62.905 50H65.0965ZM63.9999 71.5999C67.6449 71.5999 70.5999 68.645 70.5999 64.9999C70.5999 61.3548 67.6449 58.3999 63.9999 58.3999C60.3548 58.3999 57.3999 61.3548 57.3999 64.9999C57.3999 68.645 60.3548 71.5999 63.9999 71.5999Z" fill="#BD1F2D"/>
<path d="M68.4025 53.834L68.7729 52.9051L68.77 52.904L68.4025 53.834ZM68.782 53.993L68.3796 54.9085L68.3837 54.9103L68.782 53.993ZM71.14 53.6195L70.4331 52.9121L70.4329 52.9124L71.14 53.6195ZM73.831 53.6195L74.5381 52.9124L74.5379 52.9121L73.831 53.6195ZM75.382 55.1705L76.0894 54.4636L76.0891 54.4634L75.382 55.1705ZM75.382 57.8615L74.6746 57.1546L74.674 57.1553L75.382 57.8615ZM75.0085 60.2195L74.0909 60.617L74.0918 60.6191L75.0085 60.2195ZM75.166 60.599L74.2358 60.9659L74.236 60.9665L75.166 60.599ZM75.1675 69.4025L76.096 69.7739L76.0981 69.7685L75.1675 69.4025ZM75.0085 69.782L74.0951 69.3748L74.0912 69.3837L75.0085 69.782ZM75.382 72.14L76.0894 71.4331L76.0891 71.4329L75.382 72.14ZM75.382 74.831L76.0891 75.5381L76.0894 75.5379L75.382 74.831ZM73.831 76.382L73.1239 75.6749L73.1238 75.675L73.831 76.382ZM73.2134 76.7948L73.5961 77.7187L73.5961 77.7187L73.2134 76.7948ZM71.7561 76.7948L71.3734 77.7187L71.3734 77.7187L71.7561 76.7948ZM71.1385 76.382L71.8458 75.675L71.8456 75.6749L71.1385 76.382ZM68.782 76.01L69.1799 76.9274L69.1824 76.9264L68.782 76.01ZM68.4025 76.166L68.0406 75.2338L68.035 75.236L68.4025 76.166ZM59.5975 76.1675L59.2261 77.096L59.2315 77.0981L59.5975 76.1675ZM59.218 76.0085L59.6252 75.0951L59.6163 75.0912L59.218 76.0085ZM56.86 76.382L57.5669 77.0894L57.5671 77.0891L56.86 76.382ZM54.169 76.382L53.4619 77.0891L53.4621 77.0894L54.169 76.382ZM52.618 74.831L51.9106 75.5379L51.9109 75.5381L52.618 74.831ZM52.618 72.14L53.3254 72.8469L53.326 72.8462L52.618 72.14ZM52.99 69.782L52.0685 70.1707L52.073 70.1809L52.99 69.782ZM52.9786 69.755L53.9 69.3663L53.9 69.3663L52.9786 69.755ZM52.8325 69.4025L51.9019 69.7685L51.904 69.7739L52.8325 69.4025ZM52.8325 60.5975L51.9024 60.2302L51.9019 60.2315L52.8325 60.5975ZM52.99 60.218L52.0734 59.8183L52.0731 59.8188L52.99 60.218ZM52.618 57.86L51.9106 58.5669L51.9109 58.5671L52.618 57.86ZM52.618 55.169L51.9109 54.4619L51.9106 54.4621L52.618 55.169ZM54.169 53.618L53.4621 52.9106L53.4619 52.9109L54.169 53.618ZM56.86 53.618L56.1531 54.3254L56.1538 54.326L56.86 53.618ZM59.218 53.9915L59.6155 54.9091L59.6159 54.9089L59.218 53.9915ZM59.5975 53.8325L59.2315 52.9019L59.2261 52.904L59.5975 53.8325ZM68 51.9035C68 50.2997 66.7003 49 65.0965 49V51C65.5957 51 66 51.4043 66 51.9035H68ZM68 51.905V51.9035H66V51.905H68ZM68.77 52.904C68.2747 52.7082 68 52.291 68 51.905H66C66 53.25 66.9133 54.3208 68.035 54.764L68.77 52.904ZM69.1844 53.0775C69.0482 53.0177 68.911 52.9602 68.7729 52.9051L68.0321 54.7629C68.1488 54.8094 68.2647 54.8579 68.3796 54.9085L69.1844 53.0775ZM70.4329 52.9124C70.1568 53.1885 69.6688 53.2879 69.1803 53.0757L68.3837 54.9103C69.4912 55.3911 70.8932 55.2805 71.8471 54.3266L70.4329 52.9124ZM72.4855 52.0625C71.7158 52.0625 70.9776 52.3681 70.4331 52.9121L71.8469 54.3269C72.0163 54.1576 72.246 54.0625 72.4855 54.0625V52.0625ZM74.5379 52.9121C73.9934 52.3681 73.2552 52.0625 72.4855 52.0625V54.0625C72.725 54.0625 72.9547 54.1576 73.1241 54.3269L74.5379 52.9121ZM76.0891 54.4634L74.5381 52.9124L73.1239 54.3266L74.6749 55.8776L76.0891 54.4634ZM76.939 56.516C76.939 55.7463 76.6334 55.0081 76.0894 54.4636L74.6746 55.8774C74.8439 56.0468 74.939 56.2765 74.939 56.516H76.939ZM76.0894 58.5684C76.6334 58.0239 76.939 57.2857 76.939 56.516H74.939C74.939 56.7555 74.8439 56.9852 74.6746 57.1546L76.0894 58.5684ZM75.9261 59.822C75.715 59.3346 75.8143 58.8441 76.09 58.5677L74.674 57.1553C73.7227 58.1089 73.612 59.5114 74.0909 60.617L75.9261 59.822ZM76.0962 60.2321C76.0417 60.0937 75.9846 59.9563 75.9252 59.8199L74.0918 60.6191C74.1418 60.7338 74.1898 60.8495 74.2358 60.9659L76.0962 60.2321ZM77.0965 61.0015C76.7086 61.0015 76.2916 60.7264 76.096 60.2315L74.236 60.9665C74.6794 62.0886 75.7504 63.0015 77.0965 63.0015V61.0015ZM80 63.905C80 62.3012 78.7003 61.0015 77.0965 61.0015V63.0015C77.5957 63.0015 78 63.4058 78 63.905H80ZM80 66.0965V63.905H78V66.0965H80ZM77.0965 69C78.7003 69 80 67.7003 80 66.0965H78C78 66.5957 77.5957 67 77.0965 67V69ZM76.0981 69.7685C76.2922 69.2752 76.7084 69 77.0965 69V67C75.7506 67 74.6788 67.9129 74.2369 69.0365L76.0981 69.7685ZM75.9219 70.1892C75.9849 70.0478 76.0428 69.9069 76.096 69.7739L74.239 69.0311C74.1902 69.1531 74.1431 69.2672 74.0951 69.3748L75.9219 70.1892ZM76.0891 71.4329C75.813 71.1568 75.7136 70.6688 75.9258 70.1803L74.0912 69.3837C73.6104 70.4912 73.721 71.8932 74.6749 72.8471L76.0891 71.4329ZM76.939 73.4855C76.939 72.7158 76.6334 71.9776 76.0894 71.4331L74.6746 72.8469C74.8439 73.0163 74.939 73.246 74.939 73.4855H76.939ZM76.0894 75.5379C76.6334 74.9934 76.939 74.2552 76.939 73.4855H74.939C74.939 73.725 74.8439 73.9547 74.6746 74.1241L76.0894 75.5379ZM74.5381 77.0891L76.0891 75.5381L74.6749 74.1239L73.1239 75.6749L74.5381 77.0891ZM73.5961 77.7187C73.9485 77.5727 74.2686 77.3587 74.5382 77.089L73.1238 75.675C73.0398 75.759 72.9402 75.8256 72.8306 75.871L73.5961 77.7187ZM72.4848 77.9398C72.8662 77.9398 73.2438 77.8646 73.5961 77.7187L72.8306 75.871C72.7209 75.9164 72.6034 75.9398 72.4848 75.9398V77.9398ZM71.3734 77.7187C71.7257 77.8646 72.1033 77.9398 72.4848 77.9398V75.9398C72.3661 75.9398 72.2486 75.9164 72.1389 75.871L71.3734 77.7187ZM70.4313 77.089C70.7009 77.3587 71.021 77.5727 71.3734 77.7187L72.1389 75.871C72.0293 75.8256 71.9297 75.759 71.8458 75.675L70.4313 77.089ZM69.1824 76.9264C69.6672 76.7145 70.1562 76.8139 70.4314 77.0891L71.8456 75.6749C70.8938 74.7231 69.4898 74.6095 68.3816 75.0936L69.1824 76.9264ZM68.7644 77.0982C68.9045 77.0438 69.044 76.9864 69.1799 76.9274L68.3841 75.0926C68.271 75.1416 68.1555 75.1892 68.0406 75.2338L68.7644 77.0982ZM68 78.0965C68 77.7086 68.2751 77.2916 68.77 77.096L68.035 75.236C66.9129 75.6794 66 76.7504 66 78.0965H68ZM65.0965 81C66.7003 81 68 79.7003 68 78.0965H66C66 78.5957 65.5957 79 65.0965 79V81ZM62.9035 81H65.0965V79H62.9035V81ZM60 78.0965C60 79.7003 61.2997 81 62.9035 81V79C62.4043 79 62 78.5957 62 78.0965H60ZM59.2315 77.0981C59.7248 77.2922 60 77.7084 60 78.0965H62C62 76.7506 61.0872 75.6788 59.9635 75.2369L59.2315 77.0981ZM58.8108 76.9219C58.9522 76.9849 59.0931 77.0428 59.2261 77.096L59.9689 75.239C59.8469 75.1902 59.7328 75.1431 59.6252 75.0951L58.8108 76.9219ZM57.5671 77.0891C57.8432 76.813 58.3312 76.7136 58.8197 76.9258L59.6163 75.0912C58.5088 74.6104 57.1068 74.721 56.1529 75.6749L57.5671 77.0891ZM55.5145 77.939C56.2842 77.939 57.0224 77.6334 57.5669 77.0894L56.1531 75.6746C55.9837 75.8439 55.754 75.939 55.5145 75.939V77.939ZM53.4621 77.0894C54.0066 77.6334 54.7448 77.939 55.5145 77.939V75.939C55.275 75.939 55.0453 75.8439 54.8759 75.6746L53.4621 77.0894ZM51.9109 75.5381L53.4619 77.0891L54.8761 75.6749L53.3251 74.1239L51.9109 75.5381ZM51.061 73.4855C51.061 74.2552 51.3666 74.9934 51.9106 75.5379L53.3254 74.1241C53.1561 73.9547 53.061 73.725 53.061 73.4855H51.061ZM51.9106 71.4331C51.3666 71.9776 51.061 72.7158 51.061 73.4855H53.061C53.061 73.246 53.1561 73.0163 53.3254 72.8469L51.9106 71.4331ZM52.073 70.1809C52.2847 70.6675 52.1857 71.1575 51.91 71.4338L53.326 72.8462C54.2773 71.8925 54.3883 70.4895 53.907 69.3831L52.073 70.1809ZM52.0572 70.1436L52.0686 70.1706L53.9114 69.3934L53.9 69.3663L52.0572 70.1436ZM51.904 69.7739C51.9554 69.9023 52.0089 70.0292 52.0572 70.1436L53.9 69.3663C53.8505 69.249 53.8042 69.1393 53.761 69.0311L51.904 69.7739ZM50.9035 69C51.2916 69 51.7078 69.2752 51.9019 69.7685L53.7631 69.0365C53.3212 67.9129 52.2494 67 50.9035 67V69ZM48 66.0965C48 67.7003 49.2997 69 50.9035 69V67C50.4043 67 50 66.5957 50 66.0965H48ZM48 63.9035V66.0965H50V63.9035H48ZM50.9035 61C49.2997 61 48 62.2997 48 63.9035H50C50 63.4043 50.4043 63 50.9035 63V61ZM51.9019 60.2315C51.7078 60.7248 51.2916 61 50.9035 61V63C52.2494 63 53.3212 62.0872 53.7631 60.9635L51.9019 60.2315ZM52.0731 59.8188C52.0139 59.9549 51.957 60.0921 51.9024 60.2302L53.7626 60.9648C53.8087 60.8481 53.8568 60.7322 53.9069 60.6172L52.0731 59.8188ZM51.9109 58.5671C52.1869 58.8431 52.286 59.3306 52.0734 59.8183L53.9066 60.6177C54.39 59.5094 54.2791 58.1069 53.3251 57.1529L51.9109 58.5671ZM51.061 56.5145C51.061 57.2842 51.3666 58.0224 51.9106 58.5669L53.3254 57.1531C53.1561 56.9837 53.061 56.754 53.061 56.5145H51.061ZM51.9106 54.4621C51.3666 55.0066 51.061 55.7448 51.061 56.5145H53.061C53.061 56.275 53.1561 56.0453 53.3254 55.8759L51.9106 54.4621ZM53.4619 52.9109L51.9109 54.4619L53.3251 55.8761L54.8761 54.3251L53.4619 52.9109ZM55.5145 52.061C54.7448 52.061 54.0066 52.3666 53.4621 52.9106L54.8759 54.3254C55.0453 54.1561 55.275 54.061 55.5145 54.061V52.061ZM57.5669 52.9106C57.0224 52.3666 56.2842 52.061 55.5145 52.061V54.061C55.754 54.061 55.9837 54.1561 56.1531 54.3254L57.5669 52.9106ZM58.8205 53.0739C58.3331 53.285 57.8426 53.1857 57.5662 52.91L56.1538 54.326C57.1074 55.2773 58.5099 55.388 59.6155 54.9091L58.8205 53.0739ZM59.2261 52.904C59.0865 52.9599 58.9495 53.0179 58.8201 53.0741L59.6159 54.9089C59.7355 54.8571 59.8535 54.8071 59.9689 54.761L59.2261 52.904ZM60 51.9035C60 52.2916 59.7248 52.7078 59.2315 52.9019L59.9635 54.7631C61.0872 54.3212 62 53.2494 62 51.9035H60ZM62.905 49C61.3002 49 60 50.2992 60 51.9035H62C62 51.4048 62.4038 51 62.905 51V49ZM65.0965 49H62.905V51H65.0965V49ZM69.5999 64.9999C69.5999 68.0927 67.0927 70.5999 63.9999 70.5999V72.5999C68.1972 72.5999 71.5999 69.1973 71.5999 64.9999H69.5999ZM63.9999 59.3999C67.0927 59.3999 69.5999 61.9071 69.5999 64.9999H71.5999C71.5999 60.8025 68.1972 57.3999 63.9999 57.3999V59.3999ZM58.3999 64.9999C58.3999 61.9071 60.9071 59.3999 63.9999 59.3999V57.3999C59.8025 57.3999 56.3999 60.8025 56.3999 64.9999H58.3999ZM63.9999 70.5999C60.9071 70.5999 58.3999 68.0927 58.3999 64.9999H56.3999C56.3999 69.1973 59.8025 72.5999 63.9999 72.5999V70.5999Z" fill="#323232"/>
</svg>
