<svg width="128" height="128" viewBox="0 0 128 128" fill="none" xmlns="http://www.w3.org/2000/svg">
<path fill-rule="evenodd" clip-rule="evenodd" d="M32 57.1939V69.435C32.216 73.8917 35.5222 83.9913 46.9588 89.2306C47.2956 89.3849 47.68 89.409 48.0277 89.2814C52.6545 87.5826 61.366 81.6116 63.1966 69.5476C63.2078 69.4735 63.2135 69.4008 63.2135 69.3258V57.1979C63.2135 56.4852 62.722 55.8669 62.0277 55.7059L47.8359 52.4142C47.6065 52.361 47.3679 52.3614 47.1386 52.4154L33.1807 55.7028C32.4889 55.8658 32 56.4831 32 57.1939ZM37.1439 61.9935V69.8799C37.2889 72.8721 39.4936 79.6253 47.0927 83.1902C47.4281 83.3475 47.8129 83.3709 48.1581 83.2367C51.3221 82.0066 57.0103 77.9784 58.2375 69.9924C58.2489 69.9184 58.2545 69.8435 58.2545 69.7686V61.9965C58.2545 61.2838 57.763 60.6665 57.0687 60.5055L47.9671 58.3944C47.7377 58.3412 47.4991 58.3416 47.2698 58.3956L38.3246 60.5024C37.6328 60.6653 37.1439 61.2827 37.1439 61.9935Z" fill="#BD1F2D"/>
<path d="M32 69.435H31V69.4592L31.0012 69.4834L32 69.435ZM46.9588 89.2306L47.3753 88.3215L47.3753 88.3215L46.9588 89.2306ZM48.0277 89.2814L47.6831 88.3426L47.6831 88.3426L48.0277 89.2814ZM63.1966 69.5476L62.2079 69.3976L62.2079 69.3976L63.1966 69.5476ZM62.0277 55.7059L62.2537 54.7317L62.2537 54.7317L62.0277 55.7059ZM47.8359 52.4142L48.0619 51.4401L48.0619 51.4401L47.8359 52.4142ZM47.1386 52.4154L46.9094 51.4421L46.9094 51.4421L47.1386 52.4154ZM33.1807 55.7028L33.4099 56.6762L33.4099 56.6762L33.1807 55.7028ZM37.1439 69.8799H36.1439V69.9041L36.1451 69.9283L37.1439 69.8799ZM47.0927 83.1902L47.5174 82.2849L47.5174 82.2849L47.0927 83.1902ZM48.1581 83.2367L48.5205 84.1687L48.5205 84.1687L48.1581 83.2367ZM58.2375 69.9924L57.2491 69.8405L57.2491 69.8405L58.2375 69.9924ZM57.0687 60.5055L57.2947 59.5313L57.2947 59.5313L57.0687 60.5055ZM47.9671 58.3944L48.193 57.4203L48.193 57.4203L47.9671 58.3944ZM47.2698 58.3956L47.0406 57.4222L47.0406 57.4222L47.2698 58.3956ZM38.3246 60.5024L38.0953 59.529L38.0953 59.529L38.3246 60.5024ZM33 69.435V57.1939H31V69.435H33ZM47.3753 88.3215C36.3416 83.2667 33.2003 73.5451 32.9988 69.3866L31.0012 69.4834C31.2316 74.2382 34.7028 84.7158 46.5423 90.1397L47.3753 88.3215ZM47.6831 88.3426C47.5999 88.3732 47.489 88.3736 47.3753 88.3215L46.5423 90.1397C47.1022 90.3962 47.7602 90.4449 48.3724 90.2201L47.6831 88.3426ZM62.2079 69.3976C60.446 81.0084 52.0652 86.7337 47.6831 88.3426L48.3724 90.2201C53.2438 88.4315 62.2859 82.2148 64.1853 69.6976L62.2079 69.3976ZM62.2135 69.3258C62.2135 69.3493 62.2118 69.372 62.2079 69.3976L64.1853 69.6977C64.2039 69.5751 64.2135 69.4522 64.2135 69.3258H62.2135ZM62.2135 57.1979V69.3258H64.2135V57.1979H62.2135ZM61.8018 56.68C62.043 56.736 62.2135 56.9506 62.2135 57.1979H64.2135C64.2135 56.0199 63.401 54.9978 62.2537 54.7317L61.8018 56.68ZM47.61 53.3884L61.8018 56.68L62.2537 54.7317L48.0619 51.4401L47.61 53.3884ZM47.3679 53.3888C47.4475 53.3701 47.5303 53.3699 47.61 53.3884L48.0619 51.4401C47.6827 51.3522 47.2883 51.3528 46.9094 51.4421L47.3679 53.3888ZM33.4099 56.6762L47.3679 53.3888L46.9094 51.4421L32.9514 54.7295L33.4099 56.6762ZM33 57.1939C33 56.9471 33.1697 56.7328 33.4099 56.6762L32.9514 54.7295C31.808 54.9988 31 56.0192 31 57.1939H33ZM38.1439 69.8799V61.9935H36.1439V69.8799H38.1439ZM47.5174 82.2849C40.3154 78.9063 38.2734 72.5274 38.1427 69.8315L36.1451 69.9283C36.3044 73.2167 38.6717 80.3443 46.668 84.0955L47.5174 82.2849ZM47.7958 82.3046C47.7244 82.3324 47.6241 82.3349 47.5174 82.2849L46.668 84.0955C47.2321 84.3601 47.9014 84.4094 48.5205 84.1687L47.7958 82.3046ZM57.2491 69.8405C56.0902 77.3818 50.7229 81.1666 47.7958 82.3046L48.5205 84.1687C51.9212 82.8466 57.9304 78.575 59.2259 70.1443L57.2491 69.8405ZM57.2545 69.7686C57.2545 69.7939 57.2526 69.8179 57.2491 69.8405L59.2259 70.1443C59.2452 70.0188 59.2545 69.8932 59.2545 69.7686H57.2545ZM57.2545 61.9965V69.7686H59.2545V61.9965H57.2545ZM56.8428 61.4796C57.0847 61.5357 57.2545 61.75 57.2545 61.9965H59.2545C59.2545 60.8177 58.4412 59.7972 57.2947 59.5313L56.8428 61.4796ZM47.7412 59.3686L56.8428 61.4796L57.2947 59.5313L48.193 57.4203L47.7412 59.3686ZM47.4991 59.369C47.5787 59.3502 47.6615 59.3501 47.7412 59.3686L48.193 57.4203C47.8138 57.3323 47.4195 57.333 47.0406 57.4222L47.4991 59.369ZM38.5538 61.4758L47.4991 59.369L47.0406 57.4222L38.0953 59.529L38.5538 61.4758ZM38.1439 61.9935C38.1439 61.7467 38.3137 61.5323 38.5538 61.4758L38.0953 59.529C36.9519 59.7983 36.1439 60.8187 36.1439 61.9935H38.1439Z" fill="#323232"/>
<path d="M85.5361 52.1206H75.8077C74.9617 52.1206 74.2759 52.8064 74.2759 53.6524V85.2526C74.2759 86.0986 74.9617 86.7844 75.8077 86.7844H85.5361" stroke="#323232" stroke-width="2"/>
<path d="M64.0453 69.6356H85.4618" stroke="#323232" stroke-width="2"/>
<circle cx="89.9306" cy="52.0304" r="4.03037" fill="#BD1F2D" stroke="#323232" stroke-width="2"/>
<circle cx="89.9306" cy="69.4042" r="4.03037" fill="#BD1F2D" stroke="#323232" stroke-width="2"/>
<circle cx="89.9306" cy="86.784" r="4.03037" fill="#BD1F2D" stroke="#323232" stroke-width="2"/>
<path d="M73.6299 42.4549H20.3966C18.5207 42.4549 17 43.9756 17 45.8515V97.2092C17 99.0851 18.5207 100.606 20.3966 100.606H107.603C109.479 100.606 111 99.0851 111 97.2092V32.6731C111 30.7972 109.479 29.2765 107.603 29.2765H83.676C82.3078 29.2765 81.0732 30.0973 80.5439 31.3589L76.762 40.3724C76.2327 41.634 74.998 42.4549 73.6299 42.4549Z" stroke="#323232" stroke-width="2"/>
<path d="M21 36.6983V42H73.1833C74.6369 42 75.9294 41.075 76.3983 39.6992L78 35H22.6983C21.7604 35 21 35.7604 21 36.6983Z" fill="#BD1F2D"/>
<path d="M21 42H20V43H21V42ZM78 35L78.9465 35.3226L79.3973 34H78V35ZM76.3983 39.6992L77.3449 40.0218L77.3449 40.0218L76.3983 39.6992ZM22 42V36.6983H20V42H22ZM22.6983 36H78V34H22.6983V36ZM77.0535 34.6774L75.4518 39.3766L77.3449 40.0218L78.9465 35.3226L77.0535 34.6774ZM73.1833 41H21V43H73.1833V41ZM75.4518 39.3766C75.1209 40.3474 74.2089 41 73.1833 41V43C75.0648 43 76.7378 41.8027 77.3449 40.0218L75.4518 39.3766ZM22 36.6983C22 36.3126 22.3126 36 22.6983 36V34C21.2081 34 20 35.2081 20 36.6983H22Z" fill="#323232"/>
</svg>
