<?xml version="1.0" encoding="utf-8"?>
<!-- Generator: Adobe Illustrator 26.2.1, SVG Export Plug-In . SVG Version: 6.00 Build 0)  -->
<svg version="1.1" id="Layer_1" xmlns="http://www.w3.org/2000/svg" xmlns:xlink="http://www.w3.org/1999/xlink" x="0px" y="0px"
	 viewBox="0 0 128 128" style="enable-background:new 0 0 128 128;" xml:space="preserve">
<style type="text/css">
	.st0{fill:none;stroke:#323232;stroke-width:2;}
	.st1{fill:#BD1F2D;}
	.st2{fill:#323232;}
	.st3{fill:none;stroke:#323232;stroke-width:2;stroke-linecap:round;}
</style>
<path class="st0" d="M16,29.5V22c0-2.2,1.8-4,4-4h52c2.2,0,4,1.8,4,4v7.5 M16,29.5V82c0,2.2,1.8,4,4,4h50 M16,29.5h60 M76,29.5v6
	 M76,35.5h5 M76,35.5V66 M76,66v16c0,2.2-1.8,4-4,4h-2 M76,66h5.5 M70,86v6.5c0,2.2,1.8,4,4,4h7"/>
<path class="st1" d="M33.2,72.9c0-0.5-0.2-0.6-0.6-0.6c-3.5,0-7.1,0-10.7,0c-0.5,0-0.7,0.2-0.7,0.7c0,2.5,0,5.1,0,7.6
	c0,0.6,0.2,0.7,0.7,0.7c1.7,0,3.5,0,5.2,0c1.8,0,3.5,0,5.3,0c0.4,0,0.7-0.1,0.7-0.6C33.2,78.1,33.2,75.5,33.2,72.9z"/>
<path class="st1" d="M46.4,72.2c-3.5,0-6.9,0-10.4,0c-0.6,0-0.8,0.1-0.8,0.8c0,2.5,0,5,0,7.5c0,0.7,0.2,0.8,0.8,0.8
	c1.7,0,3.4,0,5.1,0c1.7,0,3.5,0,5.2,0c0.6,0,0.8-0.1,0.8-0.8c0-2.5,0-5,0-7.5C47.2,72.4,47,72.2,46.4,72.2z"/>
<path class="st1" d="M60.4,72.3c-1.7,0-3.4,0-5.1,0s-3.4,0-5.1,0c-0.6,0-0.9,0.1-0.9,0.8c0,2.5,0,4.9,0,7.4c0,0.6,0.1,0.8,0.7,0.8
	c3.5,0,7,0,10.5,0c0.6,0,0.8-0.2,0.8-0.8c0-2.4,0-4.9,0-7.4C61.2,72.4,61,72.2,60.4,72.3z"/>
<path d="M22.5,26c1.5,0,1.5,0,1.5-1.5c0-1.5,0-1.5-1.5-1.5C21,23,21,23,21,24.5C21,26,21,26,22.5,26z"/>
<path d="M28.4,26c1.6,0,1.6,0,1.6-1.5c0-1.5,0-1.5-1.5-1.5C27,23,27,23,27,24.5C27,26,27,26,28.4,26z"/>
<path d="M34.6,26c1.4,0,1.4,0,1.4-1.4c0-1.6,0-1.6-1.6-1.6C33,23,33,23,33,24.4C33,26,33,26,34.6,26z"/>
<path class="st2" d="M26.6,40h37.8c0.9,0,1.6,0.7,1.6,1.6l0,0c0,0.9-0.7,1.6-1.6,1.6H26.6c-0.9,0-1.6-0.7-1.6-1.6l0,0
	C25,40.7,25.7,40,26.6,40z"/>
<path class="st2" d="M26.6,52.9h37.8c0.9,0,1.6,0.7,1.6,1.6l0,0c0,0.9-0.7,1.6-1.6,1.6H26.6c-0.9,0-1.6-0.7-1.6-1.6l0,0
	C25,53.7,25.7,52.9,26.6,52.9z"/>
<path class="st2" d="M26.6,46.5h29.1c0.9,0,1.6,0.7,1.6,1.6l0,0c0,0.9-0.7,1.6-1.6,1.6H26.6c-0.9,0-1.6-0.7-1.6-1.6l0,0
	C25,47.2,25.7,46.5,26.6,46.5z"/>
<path class="st2" d="M64.4,59.4H35.3c-0.9,0-1.6,0.7-1.6,1.6l0,0c0,0.9,0.7,1.6,1.6,1.6h29.1c0.9,0,1.6-0.7,1.6-1.6l0,0
	C66,60.1,65.3,59.4,64.4,59.4z"/>
<path class="st2" d="M61.1,46.5h2.2c0.9,0,1.6,0.7,1.6,1.6l0,0c0,0.9-0.7,1.6-1.6,1.6h-2.2c-0.9,0-1.6-0.7-1.6-1.6l0,0
	C59.5,47.2,60.3,46.5,61.1,46.5z"/>
<path class="st2" d="M29.9,59.4h-2.2c-0.9,0-1.6,0.7-1.6,1.6l0,0c0,0.9,0.7,1.6,1.6,1.6h2.2c0.9,0,1.6-0.7,1.6-1.6l0,0
	C31.5,60.1,30.7,59.4,29.9,59.4z"/>
<circle class="st0" cx="94.5" cy="36.5" r="12.5"/>
<circle class="st0" cx="94.5" cy="96.5" r="12.5"/>
<path class="st1" d="M100.1,66.1c0,3.3-2.7,6-6,6c-3.3,0-6-2.7-6-6c0-3.3,2.7-6,6-6C97.4,60,100.1,62.8,100.1,66.1z M94.1,69.8
	c2.1,0,3.8-1.7,3.8-3.8c0-2-1.7-3.7-3.7-3.8c-2.1,0-3.8,1.6-3.8,3.7C90.3,68.1,92,69.8,94.1,69.8z"/>
<path class="st1" d="M86.7,54.4c0.6,0,1.1,0.2,1.5,0.6c0.4,0.4,0.8,0.8,1.2,1.2c0.2,0.2,0.4,0.2,0.6,0.1c0.2-0.1,0.4-0.2,0.4-0.5
	c0-0.5,0-1,0-1.6c0.1-1.4,0.8-2.2,2.2-2.2c1,0,2,0,3,0c1.3,0,2.1,0.8,2.2,2.1c0,0.5,0,1,0,1.6c0,0.3,0.1,0.5,0.4,0.6
	c0.3,0.1,0.4,0.1,0.6-0.1c0.4-0.4,0.8-0.8,1.2-1.2c0.9-0.8,2-0.8,2.8,0c0.8,0.8,1.6,1.6,2.4,2.4c0.8,0.9,0.8,2,0,2.8
	c-0.4,0.4-0.8,0.8-1.2,1.2c-0.2,0.2-0.3,0.3-0.2,0.6c0.1,0.3,0.3,0.4,0.6,0.4c0.6,0,1.2,0,1.9,0c1.1,0.1,1.8,0.9,1.8,1.9
	c0,1.1,0,2.2,0,3.4c0,1.1-0.7,1.8-1.8,2c-0.6,0.1-1.2,0.1-1.9,0.1c-0.3,0-0.5,0.1-0.6,0.3c-0.1,0.3-0.1,0.4,0.2,0.6
	c0.4,0.4,0.8,0.8,1.2,1.2c0.7,0.8,0.8,1.9,0,2.7c-0.8,0.9-1.6,1.7-2.5,2.5c-0.8,0.7-1.9,0.7-2.7,0c-0.4-0.4-0.8-0.8-1.2-1.2
	c-0.2-0.2-0.4-0.3-0.6-0.2c-0.3,0.1-0.4,0.3-0.4,0.6c0,0.5,0,1,0,1.5c-0.1,1.4-0.8,2.2-2.2,2.2c-1,0-2,0-3,0c-1.3,0-2.1-0.8-2.1-2.1
	c0-0.5,0-1,0-1.6c0-0.3-0.1-0.5-0.4-0.6c-0.3-0.1-0.4-0.1-0.6,0.2c-0.4,0.4-0.7,0.8-1.1,1.1c-0.9,0.9-2,0.9-3,0
	c-0.8-0.7-1.5-1.5-2.3-2.3c-0.9-0.9-0.8-2,0-3c0.4-0.4,0.7-0.8,1.1-1.1c0.2-0.2,0.3-0.4,0.2-0.6c-0.1-0.3-0.3-0.4-0.6-0.4
	c-0.6,0-1.2,0-1.9-0.1c-1.1-0.1-1.8-0.9-1.8-2c0-1.1,0-2.2,0-3.4c0-1.1,0.7-1.8,1.8-2c0.6-0.1,1.2-0.1,1.9-0.1
	c0.3,0,0.5-0.1,0.6-0.4c0.1-0.3,0.1-0.5-0.2-0.6c-0.4-0.4-0.8-0.7-1.1-1.1c-0.9-0.9-0.9-2,0-3c0.7-0.8,1.5-1.5,2.3-2.3
	C85.6,54.6,86.1,54.4,86.7,54.4z M86.7,56.6c-0.3,0.3-0.5,0.6-0.7,0.8c-0.4,0.5-1.2,0.8-1.2,1.4c0,0.4,0.7,0.8,1.1,1.2
	c1.2,1.2,0.7,3.7-0.8,4.4c-0.3,0.1-0.6,0.2-0.9,0.2c-0.5,0-0.9,0-1.4,0c-0.2,0-0.4-0.1-0.4,0.2c0,0.8-0.2,1.8,0.1,2.5
	c0.1,0.4,1.1,0.1,1.7,0.1c0,0,0.1,0,0.1,0c1.2,0,1.7,0.7,2.1,1.7c0.4,1,0.5,1.9-0.3,2.8c-0.4,0.5-1.3,0.9-1.2,1.4
	c0.1,0.5,0.9,1,1.3,1.5c0.4,0.5,0.7,0.6,1.1,0c0.1-0.1,0.2-0.2,0.3-0.3c1.4-1.4,2-1.5,3.8-0.6c0.7,0.4,1.2,0.9,1.2,1.8
	c0,0.5,0,1.1,0,1.6c0,0.3,0.1,0.4,0.4,0.4c0.7,0,1.3,0,2,0c0.4,0,0.4-0.2,0.4-0.5c0-0.5,0-1,0-1.5c0-1.2,0.9-1.7,1.9-2.1
	c0.9-0.4,1.8-0.4,2.6,0.3c0.4,0.4,0.7,0.7,1.1,1.1c0.1,0.1,0.2,0.4,0.4,0.2c0.6-0.6,1.4-1.2,1.8-1.9c0.2-0.3-0.7-0.8-1.1-1.3
	c0,0-0.1-0.1-0.1-0.1c-1.1-1.2-0.4-3.9,1.2-4.4c0.5-0.2,1.1-0.1,1.6-0.1c1.1,0,1,0.2,1-1c0-0.6,0.3-1.4-0.1-1.8
	c-0.4-0.4-1.1-0.1-1.7-0.1c-1.2,0-1.8-0.7-2.2-1.7c-0.4-1-0.5-2,0.3-2.8c0.4-0.4,1.2-0.8,1.2-1.3c0-0.5-0.8-0.9-1.2-1.3
	c-0.7-0.7-0.7-0.7-1.4,0c-1.5,1.5-2.1,1.6-3.9,0.7c-0.7-0.4-1.2-0.9-1.2-1.8c0-0.5,0-1.1,0-1.6c0-0.3-0.1-0.4-0.4-0.4
	c-0.7,0-1.3,0-2,0c-0.4,0-0.4,0.2-0.4,0.5c0,0.5,0,1,0,1.5c0,1.2-0.9,1.7-1.9,2.1c-0.9,0.4-1.8,0.4-2.6-0.3
	C87.6,57.7,87.2,57.2,86.7,56.6z"/>
<path class="st3" d="M89,98l3,3l9-9"/>
<path class="st3" d="M89,38l3,3l9-9"/>
</svg>
