<svg width="128" height="128" viewBox="0 0 128 128" fill="none" xmlns="http://www.w3.org/2000/svg">
<path d="M91.8038 36.4209C92.6902 35.5344 92.6941 34.092 91.7608 33.255C85.5123 27.6517 77.7036 24.0502 69.3477 22.9502C60.2399 21.7511 50.991 23.5908 43.0354 28.184C35.0797 32.7772 28.862 39.8671 25.3466 48.3542C22.1213 56.1407 21.3359 64.704 23.0643 72.917C23.3224 74.1438 24.5736 74.8616 25.7845 74.5371V74.5371C26.9955 74.2127 27.7068 72.9689 27.4568 71.7404C25.9822 64.4948 26.6981 56.9546 29.5409 50.0916C32.6739 42.5278 38.2152 36.2092 45.3053 32.1157C52.3955 28.0222 60.6382 26.3826 68.7551 27.4512C76.1201 28.4208 83.008 31.5709 88.5456 36.4708C89.4845 37.3016 90.9173 37.3074 91.8038 36.4209V36.4209Z" fill="#323232"/>
<path d="M33.069 83.7382C33.069 85.9229 30.704 87.2884 28.812 86.196L19.8723 81.0347C17.9803 79.9423 17.9803 77.2115 19.8723 76.1191L28.812 70.9578C30.704 69.8654 33.069 71.2309 33.069 73.4156L33.069 83.7382Z" fill="#323232"/>
<path d="M103.486 59.7856C104.73 59.6274 105.872 60.5074 105.963 61.7578C106.501 69.2061 105.03 76.6778 101.686 83.3856C98.0024 90.7718 92.2118 96.9 85.0458 100.995C77.8798 105.09 69.6604 106.969 61.427 106.392C53.9498 105.869 46.7661 103.343 40.6218 99.0984C39.5904 98.3859 39.4124 96.9545 40.18 95.9633V95.9633C40.9475 94.9721 42.3697 94.7972 43.4059 95.5028C48.8365 99.2013 55.1627 101.403 61.7439 101.864C69.0817 102.377 76.4069 100.703 82.7932 97.0535C89.1796 93.4038 94.3403 87.9423 97.6228 81.3597C100.567 75.4556 101.881 68.8875 101.452 62.3312C101.37 61.0802 102.242 59.9437 103.486 59.7856V59.7856Z" fill="#323232"/>
<path d="M95.5758 60.6054C95.0323 62.7214 96.9833 64.6322 99.0875 64.0448L109.03 61.2696C111.134 60.6823 111.814 58.0373 110.253 56.5086L102.878 49.2856C101.317 47.757 98.6871 48.4912 98.1436 50.6072L95.5758 60.6054Z" fill="#323232"/>
<path d="M74.5026 64.4442C74.5026 70.2284 69.8052 74.9258 64.0211 74.9258C58.237 74.9258 53.5396 70.1933 53.5396 64.4442C53.5396 58.6601 58.237 53.9627 64.0211 53.9627C69.8052 53.9276 74.5026 58.6601 74.5026 64.4442ZM64.0211 70.9996C67.6668 70.9996 70.6115 68.0549 70.6115 64.4092C70.6115 60.8335 67.7019 57.8889 64.1262 57.8538C60.4805 57.8188 57.5008 60.7284 57.5008 64.3741C57.4657 68.0199 60.3753 70.9996 64.0211 70.9996Z" fill="#BD1F2D"/>
<path d="M51.1525 44.0124C52.134 44.0825 53.0104 44.433 53.7115 45.1341C54.3776 45.8002 55.0787 46.4662 55.7447 47.1674C56.0602 47.5179 56.3757 47.5179 56.7613 47.3426C57.182 47.1674 57.4274 46.9921 57.3923 46.5013C57.3573 45.5899 57.3573 44.6784 57.3923 43.7319C57.4975 41.3131 58.8647 39.946 61.2835 39.9109C63.0362 39.8758 64.789 39.8758 66.5418 39.9109C68.8204 39.946 70.1875 41.2781 70.3277 43.5567C70.3978 44.4681 70.3628 45.3795 70.3277 46.326C70.3277 46.8168 70.4329 47.1323 70.9587 47.3426C71.4495 47.553 71.7299 47.4478 72.0805 47.0972C72.7466 46.3961 73.4126 45.695 74.1137 45.064C75.6211 43.6618 77.5491 43.6268 79.0565 44.9939C80.4938 46.326 81.896 47.7282 83.2281 49.1655C84.6303 50.6729 84.5952 52.6009 83.2281 54.1083C82.5971 54.8094 81.896 55.4755 81.1949 56.1415C80.8443 56.457 80.6691 56.7374 80.9144 57.2633C81.1248 57.7541 81.4052 57.8943 81.896 57.8943C82.9827 57.8943 84.0694 57.8592 85.1561 57.9644C87.0491 58.1747 88.241 59.4718 88.3111 61.3647C88.3812 63.3278 88.3812 65.2909 88.3111 67.254C88.241 69.147 87.0842 70.4441 85.1912 70.6895C84.1045 70.8297 83.0178 70.7946 81.931 70.7946C81.4403 70.7946 81.1248 70.8998 80.9144 71.3906C80.7041 71.8813 80.8093 72.1618 81.1949 72.5123C81.931 73.2134 82.6321 73.9145 83.2982 74.6507C84.5952 76.088 84.6303 77.9459 83.3333 79.3832C81.9661 80.8906 80.4938 82.3629 78.9864 83.73C77.5491 85.0271 75.6912 84.992 74.2539 83.695C73.5178 83.0289 72.8167 82.2928 72.1156 81.5917C71.765 81.2411 71.4846 81.1009 70.9938 81.3112C70.503 81.5215 70.3277 81.802 70.3628 82.2928C70.3978 83.1691 70.3978 84.0455 70.3628 84.9219C70.2576 87.3758 68.9255 88.7079 66.4717 88.7429C64.7189 88.778 62.9661 88.778 61.2134 88.7429C58.9348 88.7079 57.5676 87.3758 57.4624 85.0621C57.4274 84.1507 57.4274 83.2393 57.4624 82.2928C57.4624 81.802 57.3222 81.4865 56.8314 81.2762C56.3407 81.0658 56.0602 81.171 55.7097 81.5566C55.0787 82.2227 54.4477 82.8887 53.7816 83.5197C52.1691 85.0271 50.206 85.0621 48.6285 83.5548C47.2614 82.2577 45.9292 80.9256 44.6322 79.5585C43.1248 77.9459 43.1599 76.0179 44.6673 74.4053C45.2983 73.7393 45.9292 73.0732 46.6304 72.4773C46.9809 72.1267 47.1211 71.8463 46.9108 71.3555C46.7005 70.8647 46.42 70.7245 45.9292 70.7245C44.8425 70.7245 43.7558 70.7596 42.6691 70.6193C40.7761 70.409 39.5842 69.0769 39.5141 67.1839C39.444 65.2208 39.444 63.2577 39.5141 61.2946C39.5842 59.4017 40.7761 58.1046 42.6341 57.8592C43.7208 57.719 44.8075 57.7541 45.8942 57.7541C46.385 57.7541 46.7005 57.6489 46.9108 57.1231C47.1211 56.6323 47.016 56.3168 46.6304 56.0013C45.9643 55.3703 45.2983 54.7393 44.6673 54.0732C43.1599 52.4607 43.1248 50.5327 44.6322 48.9201C45.9292 47.553 47.2614 46.2559 48.5935 44.9238C49.2946 44.398 50.1709 44.0825 51.1525 44.0124ZM51.0824 47.9035C50.6267 48.4644 50.2761 48.9201 49.8905 49.3408C49.1894 50.1471 47.8222 50.778 47.8222 51.7245C47.8222 52.4256 49.0842 53.1618 49.7853 53.8629C51.8185 55.9662 50.9422 60.3131 48.313 61.54C47.7872 61.7854 47.2263 61.8555 46.6654 61.8555C45.8241 61.8555 45.0178 61.8555 44.1765 61.8555C43.8259 61.8555 43.4053 61.7504 43.4053 62.2762C43.4053 63.7485 43.1248 65.3611 43.5805 66.6581C43.8259 67.3592 45.5086 66.7983 46.5252 66.9035C46.5953 66.9035 46.7005 66.9035 46.7706 66.9035C48.8038 66.9035 49.7503 68.1655 50.4864 69.8481C51.2226 71.6009 51.4329 73.1784 49.9957 74.6858C49.2244 75.492 47.7171 76.2633 47.8573 77.1046C47.9975 78.0511 49.3997 78.7872 50.1359 79.6636C50.837 80.5049 51.4329 80.6802 52.0639 79.6636C52.1691 79.4883 52.3794 79.3481 52.5196 79.2079C55.0086 76.719 56.0252 76.5788 59.2152 78.1562C60.5123 78.7872 61.2484 79.8038 61.2835 81.2411C61.3185 82.1876 61.3185 83.1691 61.3185 84.1156C61.3185 84.6765 61.4938 84.8869 62.0897 84.8869C63.2816 84.8518 64.4385 84.8518 65.6303 84.8869C66.3314 84.9219 66.4015 84.5714 66.4015 84.0105C66.3665 83.1341 66.4015 82.2577 66.4015 81.3813C66.4366 79.2079 67.9089 78.3666 69.6967 77.6304C71.3443 76.9644 72.8167 76.9293 74.1838 78.1913C74.8499 78.8223 75.4809 79.4883 76.1469 80.1193C76.3222 80.2946 76.4624 80.7503 76.848 80.3998C77.9347 79.3131 79.2668 78.3666 79.9329 77.0695C80.2133 76.5437 78.6358 75.6673 77.9698 74.861C77.8997 74.7909 77.8296 74.7208 77.7945 74.6858C75.8665 72.5824 77.0934 67.885 79.8277 67.0437C80.7742 66.7633 81.7207 66.9035 82.7023 66.8684C84.7004 66.8334 84.42 67.1489 84.42 65.1157C84.42 64.0289 84.9107 62.6618 84.2096 61.9607C83.5786 61.3297 82.2115 61.7854 81.1598 61.7854C79.0916 61.7854 78.075 60.5585 77.3388 58.8057C76.6026 57.0179 76.4274 55.3703 77.8997 53.8629C78.6358 53.0917 80.0381 52.3906 79.9679 51.5142C79.8978 50.6729 78.6008 49.9367 77.8296 49.1655C76.6727 48.0087 76.6727 48.0087 75.4458 49.2356C72.7816 51.8998 71.8001 52.0751 68.575 50.4976C67.2779 49.8666 66.5418 48.85 66.5067 47.4127C66.4717 46.4662 66.4717 45.4847 66.4717 44.5382C66.4717 43.9773 66.2613 43.767 65.7004 43.767C64.5086 43.802 63.3517 43.802 62.1599 43.767C61.4587 43.7319 61.3886 44.0825 61.3886 44.6434C61.4237 45.5198 61.3886 46.3961 61.3886 47.2725C61.3185 49.4109 59.8813 50.2873 58.0934 51.0234C56.4458 51.6895 54.9385 51.7245 53.6064 50.4626C52.765 49.7614 52.0289 48.8851 51.0824 47.9035Z" fill="#BD1F2D"/>
</svg>
