<?xml version="1.0" encoding="utf-8"?>
<!-- Generator: Adobe Illustrator 26.2.1, SVG Export Plug-In . SVG Version: 6.00 Build 0)  -->
<svg version="1.1" id="Layer_1" xmlns="http://www.w3.org/2000/svg" xmlns:xlink="http://www.w3.org/1999/xlink" x="0px" y="0px"
	 viewBox="0 0 128 128" style="enable-background:new 0 0 128 128;" xml:space="preserve">
<style type="text/css">
	.st0{fill:#BD1F2D;}
	.st1{fill:none;stroke:#323232;stroke-width:2.4179;}
	.st2{fill:#323232;}
	.st3{fill:none;stroke:#323232;stroke-width:1.209;}
</style>
<path class="st0" d="M36.6,31.7v71.6H57V87.5c0-1.3,1.1-2.4,2.4-2.4h9.9c1.3,0,2.4,1.1,2.4,2.4v15.8h20.3V31.7V19.4
	c0-1.3-1.1-2.4-2.4-2.4H39.1c-1.3,0-2.4,1.1-2.4,2.4V31.7z"/>
<path class="st1" d="M24,103.3h-4.6c-1.3,0-2.4,1.1-2.4,2.4v3.6c0,1.3,1.1,2.4,2.4,2.4h89.2c1.3,0,2.4-1.1,2.4-2.4v-3.6
	c0-1.3-1.1-2.4-2.4-2.4H104 M24,103.3V34.1c0-1.3,1.1-2.4,2.4-2.4h10.2 M24,103.3h12.6 M36.6,31.7v71.6 M36.6,31.7V19.4
	c0-1.3,1.1-2.4,2.4-2.4h50.6c1.3,0,2.4,1.1,2.4,2.4v12.3 M36.6,103.3H57 M92.1,103.3V31.7 M92.1,103.3H104 M92.1,103.3H71.7
	 M92.1,31.7h9.5c1.3,0,2.4,1.1,2.4,2.4v69.1 M57,103.3V87.5c0-1.3,1.1-2.4,2.4-2.4h9.9c1.3,0,2.4,1.1,2.4,2.4v15.8 M57,103.3h14.7"
	/>
<path class="st2" d="M49.3,31h-4.2c-0.8,0-1.4-0.6-1.4-1.4c0-0.8,0.6-1.4,1.4-1.4h4.2c0.8,0,1.4,0.6,1.4,1.4
	C50.7,30.4,50,31,49.3,31z"/>
<path class="st2" d="M60.5,31h-4.2c-0.8,0-1.4-0.6-1.4-1.4c0-0.8,0.6-1.4,1.4-1.4h4.2c0.8,0,1.4,0.6,1.4,1.4
	C61.9,30.4,61.3,31,60.5,31z"/>
<path class="st2" d="M71.7,31h-4.2c-0.8,0-1.4-0.6-1.4-1.4c0-0.8,0.6-1.4,1.4-1.4h4.2c0.8,0,1.4,0.6,1.4,1.4
	C73.1,30.4,72.5,31,71.7,31z"/>
<path class="st2" d="M82.9,31h-4.2c-0.8,0-1.4-0.6-1.4-1.4c0-0.8,0.6-1.4,1.4-1.4h4.2c0.8,0,1.4,0.6,1.4,1.4
	C84.3,30.4,83.7,31,82.9,31z"/>
<path class="st3" d="M49.3,31h-4.2c-0.8,0-1.4-0.6-1.4-1.4c0-0.8,0.6-1.4,1.4-1.4h4.2c0.8,0,1.4,0.6,1.4,1.4
	C50.7,30.4,50,31,49.3,31z"/>
<path class="st3" d="M60.5,31h-4.2c-0.8,0-1.4-0.6-1.4-1.4c0-0.8,0.6-1.4,1.4-1.4h4.2c0.8,0,1.4,0.6,1.4,1.4
	C61.9,30.4,61.3,31,60.5,31z"/>
<path class="st3" d="M71.7,31h-4.2c-0.8,0-1.4-0.6-1.4-1.4c0-0.8,0.6-1.4,1.4-1.4h4.2c0.8,0,1.4,0.6,1.4,1.4
	C73.1,30.4,72.5,31,71.7,31z"/>
<path class="st3" d="M82.9,31h-4.2c-0.8,0-1.4-0.6-1.4-1.4c0-0.8,0.6-1.4,1.4-1.4h4.2c0.8,0,1.4,0.6,1.4,1.4
	C84.3,30.4,83.7,31,82.9,31z"/>
<path class="st2" d="M49.3,48.8h-4.2c-0.8,0-1.4-0.6-1.4-1.4c0-0.8,0.6-1.4,1.4-1.4h4.2c0.8,0,1.4,0.6,1.4,1.4
	C50.7,48.2,50,48.8,49.3,48.8z"/>
<path class="st2" d="M60.5,48.8h-4.2c-0.8,0-1.4-0.6-1.4-1.4c0-0.8,0.6-1.4,1.4-1.4h4.2c0.8,0,1.4,0.6,1.4,1.4
	C61.9,48.2,61.3,48.8,60.5,48.8z"/>
<path class="st2" d="M71.7,48.8h-4.2c-0.8,0-1.4-0.6-1.4-1.4c0-0.8,0.6-1.4,1.4-1.4h4.2c0.8,0,1.4,0.6,1.4,1.4
	C73.1,48.2,72.5,48.8,71.7,48.8z"/>
<path class="st2" d="M82.9,48.8h-4.2c-0.8,0-1.4-0.6-1.4-1.4c0-0.8,0.6-1.4,1.4-1.4h4.2c0.8,0,1.4,0.6,1.4,1.4
	C84.3,48.2,83.7,48.8,82.9,48.8z"/>
<path class="st3" d="M49.3,48.8h-4.2c-0.8,0-1.4-0.6-1.4-1.4c0-0.8,0.6-1.4,1.4-1.4h4.2c0.8,0,1.4,0.6,1.4,1.4
	C50.7,48.2,50,48.8,49.3,48.8z"/>
<path class="st3" d="M60.5,48.8h-4.2c-0.8,0-1.4-0.6-1.4-1.4c0-0.8,0.6-1.4,1.4-1.4h4.2c0.8,0,1.4,0.6,1.4,1.4
	C61.9,48.2,61.3,48.8,60.5,48.8z"/>
<path class="st3" d="M71.7,48.8h-4.2c-0.8,0-1.4-0.6-1.4-1.4c0-0.8,0.6-1.4,1.4-1.4h4.2c0.8,0,1.4,0.6,1.4,1.4
	C73.1,48.2,72.5,48.8,71.7,48.8z"/>
<path class="st3" d="M82.9,48.8h-4.2c-0.8,0-1.4-0.6-1.4-1.4c0-0.8,0.6-1.4,1.4-1.4h4.2c0.8,0,1.4,0.6,1.4,1.4
	C84.3,48.2,83.7,48.8,82.9,48.8z"/>
<path class="st2" d="M49.3,66.8h-4.2c-0.8,0-1.4-0.6-1.4-1.4c0-0.8,0.6-1.4,1.4-1.4h4.2c0.8,0,1.4,0.6,1.4,1.4
	C50.7,66.2,50,66.8,49.3,66.8z"/>
<path class="st2" d="M60.5,66.8h-4.2c-0.8,0-1.4-0.6-1.4-1.4c0-0.8,0.6-1.4,1.4-1.4h4.2c0.8,0,1.4,0.6,1.4,1.4
	C61.9,66.2,61.3,66.8,60.5,66.8z"/>
<path class="st2" d="M71.7,66.8h-4.2c-0.8,0-1.4-0.6-1.4-1.4c0-0.8,0.6-1.4,1.4-1.4h4.2c0.8,0,1.4,0.6,1.4,1.4
	C73.1,66.2,72.5,66.8,71.7,66.8z"/>
<path class="st2" d="M82.9,66.8h-4.2c-0.8,0-1.4-0.6-1.4-1.4c0-0.8,0.6-1.4,1.4-1.4h4.2c0.8,0,1.4,0.6,1.4,1.4
	C84.3,66.2,83.7,66.8,82.9,66.8z"/>
<path class="st3" d="M49.3,66.8h-4.2c-0.8,0-1.4-0.6-1.4-1.4c0-0.8,0.6-1.4,1.4-1.4h4.2c0.8,0,1.4,0.6,1.4,1.4
	C50.7,66.2,50,66.8,49.3,66.8z"/>
<path class="st3" d="M60.5,66.8h-4.2c-0.8,0-1.4-0.6-1.4-1.4c0-0.8,0.6-1.4,1.4-1.4h4.2c0.8,0,1.4,0.6,1.4,1.4
	C61.9,66.2,61.3,66.8,60.5,66.8z"/>
<path class="st3" d="M71.7,66.8h-4.2c-0.8,0-1.4-0.6-1.4-1.4c0-0.8,0.6-1.4,1.4-1.4h4.2c0.8,0,1.4,0.6,1.4,1.4
	C73.1,66.2,72.5,66.8,71.7,66.8z"/>
<path class="st3" d="M82.9,66.8h-4.2c-0.8,0-1.4-0.6-1.4-1.4c0-0.8,0.6-1.4,1.4-1.4h4.2c0.8,0,1.4,0.6,1.4,1.4
	C84.3,66.2,83.7,66.8,82.9,66.8z"/>
<path class="st2" d="M49.3,84.8h-4.2c-0.8,0-1.4-0.6-1.4-1.4c0-0.8,0.6-1.4,1.4-1.4h4.2c0.8,0,1.4,0.6,1.4,1.4
	C50.7,84.2,50,84.8,49.3,84.8z"/>
<path class="st2" d="M82.9,84.8h-4.2c-0.8,0-1.4-0.6-1.4-1.4c0-0.8,0.6-1.4,1.4-1.4h4.2c0.8,0,1.4,0.6,1.4,1.4
	C84.3,84.2,83.7,84.8,82.9,84.8z"/>
<path class="st3" d="M49.3,84.8h-4.2c-0.8,0-1.4-0.6-1.4-1.4c0-0.8,0.6-1.4,1.4-1.4h4.2c0.8,0,1.4,0.6,1.4,1.4
	C50.7,84.2,50,84.8,49.3,84.8z"/>
<path class="st3" d="M82.9,84.8h-4.2c-0.8,0-1.4-0.6-1.4-1.4c0-0.8,0.6-1.4,1.4-1.4h4.2c0.8,0,1.4,0.6,1.4,1.4
	C84.3,84.2,83.7,84.8,82.9,84.8z"/>
</svg>
