<?xml version="1.0" encoding="utf-8"?>
<!-- Generator: Adobe Illustrator 26.2.1, SVG Export Plug-In . SVG Version: 6.00 Build 0)  -->
<svg version="1.1" id="Layer_1" xmlns="http://www.w3.org/2000/svg" xmlns:xlink="http://www.w3.org/1999/xlink" x="0px" y="0px"
	 viewBox="0 0 128 128" style="enable-background:new 0 0 128 128;" xml:space="preserve">
<style type="text/css">
	.st0{fill:#BD1F2D;}
	.st1{fill:none;stroke:#323232;stroke-width:2;}
	.st2{fill:#323232;stroke:#323232;stroke-width:1.0217;}
	.st3{fill:#BD1F2D;stroke:#323232;stroke-width:2;}
	.st4{fill:none;stroke:#323232;stroke-width:2;stroke-linecap:round;stroke-linejoin:round;}
	.st5{fill:none;stroke:#323232;stroke-width:2.0434;stroke-linecap:round;stroke-linejoin:round;}
	.st6{fill:#BD1F2D;stroke:#323232;stroke-width:2;stroke-miterlimit:10;}
</style>
<ellipse class="st0" cx="59.5" cy="56" rx="12.5" ry="4"/>
<path class="st1" d="M38.2,18h42c2.9,0,5.2,2.3,5.2,5.2v81.6c0,2.9-2.3,5.2-5.2,5.2h-42c-2.9,0-5.2-2.3-5.2-5.2V23.2
	C33,20.3,35.3,18,38.2,18z"/>
<rect x="32.5" y="29.8" class="st2" width="53.1" height="1"/>
<rect x="32.5" y="92.1" class="st2" width="53.1" height="1"/>
<path class="st3" d="M53.3,100.2h11.9c1.2,0,2.1,0.9,2.1,2.1v0c0,1.2-0.9,2.1-2.1,2.1H53.3c-1.2,0-2.1-0.9-2.1-2.1v0
	C51.1,101.1,52.1,100.2,53.3,100.2z"/>
<path class="st0" d="M51.6,22.7h14.7c0.8,0,1.4,0.6,1.4,1.4v0c0,0.8-0.6,1.4-1.4,1.4H51.6c-0.8,0-1.4-0.6-1.4-1.4v0
	C50.1,23.3,50.8,22.7,51.6,22.7z"/>
<path class="st4" d="M72.2,55.7c0,0.6-0.3,1.2-1,1.8c-0.7,0.6-1.6,1.1-2.8,1.5c-1.2,0.4-2.6,0.8-4.2,1c-1.6,0.2-3.3,0.4-5,0.4
	c-3.5,0-6.8-0.5-9.2-1.4c-2.4-0.9-3.8-2.1-3.8-3.3c0-0.6,0.3-1.2,1-1.8c0.7-0.6,1.6-1.1,2.8-1.5c1.2-0.4,2.6-0.8,4.2-1
	c1.6-0.2,3.3-0.4,5-0.4c1.7,0,3.4,0.1,5,0.4s3,0.6,4.2,1c1.2,0.4,2.2,0.9,2.8,1.5C71.9,54.5,72.2,55.1,72.2,55.7L72.2,55.7z"/>
<path class="st4" d="M72.2,72.4c0,0.8-0.6,1.6-1.7,2.3s-2.8,1.3-4.8,1.7c-2,0.4-4.2,0.6-6.5,0.6s-4.5-0.2-6.5-0.6
	c-2-0.4-3.6-1-4.8-1.7c-1.1-0.7-1.7-1.5-1.7-2.3"/>
<path class="st4" d="M72.2,66.8c0,0.8-0.6,1.6-1.7,2.3s-2.8,1.3-4.8,1.7c-2,0.4-4.2,0.6-6.5,0.6s-4.5-0.2-6.5-0.6
	c-2-0.4-3.6-1-4.8-1.7c-1.1-0.7-1.7-1.5-1.7-2.3"/>
<path class="st4" d="M72.2,61.3c0,0.8-0.6,1.6-1.7,2.3c-1.1,0.7-2.8,1.3-4.8,1.7c-2,0.4-4.2,0.6-6.5,0.6s-4.5-0.2-6.5-0.6
	c-2-0.4-3.6-1-4.8-1.7c-1.1-0.7-1.7-1.5-1.7-2.3"/>
<path class="st4" d="M46.2,55.7v16.8"/>
<path class="st5" d="M72.2,55.7v16.8"/>
<path class="st6" d="M75.2,78.3c-2.3-3.1-4.6-6.1-6.8-9.2c-0.2-0.2-0.3-0.5-0.4-0.8c-0.1-0.3,0-0.6,0.1-0.9c0.1-0.3,0.3-0.5,0.5-0.8
	c0.2-0.2,0.5-0.4,0.8-0.4c0.7-0.2,1.5,0.1,2,0.7c1.8,2.4,3.5,4.7,5.3,7.1l5,6.8c0.3,0.3,0.5,0.6,1,0.6c0.1,0,0.3,0,0.4-0.1
	c0.1-0.1,0.2-0.2,0.3-0.3c0.1-0.1,0.1-0.3,0.1-0.4c0-0.1,0-0.3-0.1-0.4c-0.1-0.2-0.2-0.4-0.3-0.5l-4.8-6.4c-0.2-0.3-0.3-0.6-0.3-0.9
	c0-0.3,0-0.7,0.2-1s0.4-0.6,0.6-0.7c0.3-0.2,0.6-0.3,0.9-0.3c0.3,0,0.6,0.1,0.9,0.2c0.3,0.1,0.5,0.4,0.7,0.6
	c1.6,2.1,3.1,4.2,4.7,6.3c0.1,0.2,0.3,0.3,0.4,0.5c0.2,0.1,0.4,0.2,0.5,0.2c0.2,0,0.4-0.1,0.5-0.2c0.2-0.1,0.3-0.3,0.3-0.5
	c0.1-0.2,0.1-0.4,0-0.6c-0.1-0.2-0.2-0.4-0.3-0.6c-1.2-1.6-2.4-3.3-3.7-4.9c-0.3-0.3-0.4-0.8-0.4-1.2c0-0.4,0.2-0.9,0.5-1.2
	c0.7-0.7,1.7-0.7,2.5-0.1c0.2,0.1,0.3,0.3,0.4,0.5c1.2,1.6,2.4,3.2,3.6,4.8c0.1,0.2,0.3,0.3,0.5,0.5c0.2,0.1,0.3,0.1,0.5,0.1
	c0.2,0,0.4-0.1,0.5-0.2c0.1-0.1,0.3-0.3,0.3-0.4c0.1-0.2,0.1-0.4,0-0.5c-0.1-0.2-0.2-0.4-0.3-0.5c-0.9-1.2-1.7-2.3-2.6-3.5
	c-0.3-0.4-0.4-0.8-0.4-1.2c0-0.4,0.2-0.9,0.6-1.2c0.3-0.3,0.7-0.5,1.2-0.5c0.4,0,0.9,0.1,1.2,0.4c0.1,0.1,0.2,0.2,0.3,0.3
	c3.2,4.3,6.4,8.5,9.5,12.8c1.3,1.8,2,4,1.9,6.2c-0.1,2.2-0.9,4.4-2.3,6.1c-2,2.4-4.6,3.6-7.6,4.1c-1.3,0.2-2.5,0.1-3.8-0.1
	c-5.4-0.8-10.8-1.6-16.2-2.4c-1.1-0.2-1.8-0.9-1.6-1.9c0.1-0.8,0.7-1.2,1.3-1.5c0.4-0.2,0.8-0.3,1.2-0.3c2.2-0.4,4.3-0.8,6.5-1.2
	c1.1-0.2,1.4-0.9,0.7-1.8C79.8,84.4,77.5,81.3,75.2,78.3z"/>
</svg>
