<svg width="128" height="128" viewBox="0 0 128 128" fill="none" xmlns="http://www.w3.org/2000/svg">
<path d="M102.777 110.68C76.8074 110.68 50.8136 110.68 24.8443 110.68C24.8199 110.485 24.6242 110.485 24.502 110.46C20.7851 109.189 19 106.694 19 102.782C19 76.8125 19 50.8188 19 24.8495C19 20.1056 22.1056 17.0245 26.825 17.0245C41.1546 17.0245 55.4842 17.0245 69.8137 17C70.7674 17 71.4766 17.2934 72.1613 17.9781C77.3209 23.1622 82.4805 28.3463 87.689 33.5059C88.4715 34.264 88.8139 35.0709 88.7894 36.1713C88.765 44.681 88.765 53.1907 88.765 61.7005C88.765 62.972 88.765 62.972 89.9876 62.972C93.9246 62.972 97.8616 62.9476 101.799 62.9965C105.76 63.0454 108.963 66.2243 108.963 70.1857C109.012 81.3119 109.012 92.4381 108.963 103.564C108.939 106.474 107.472 108.651 104.855 109.971C104.219 110.265 103.486 110.436 102.777 110.68ZM71.4032 107.012C70.743 105.716 70.4251 104.469 70.4251 103.149C70.4251 92.2669 70.4251 81.3853 70.4251 70.5036C70.4251 66.1265 73.604 62.972 77.9811 62.9231C80.0841 62.8987 82.1871 62.8987 84.29 62.9476C84.9503 62.972 85.1704 62.8253 85.1704 62.1162C85.1459 54.0955 85.1459 46.0749 85.1704 38.0542C85.1704 37.2717 84.9014 37.1739 84.2411 37.1739C79.8151 37.1983 75.3891 37.1983 70.9875 37.1739C69.2269 37.1739 68.6155 36.5626 68.6155 34.8019C68.6155 30.3759 68.5911 25.9499 68.64 21.5483C68.64 20.7658 68.4199 20.6191 67.6863 20.6191C54.0903 20.6435 40.4944 20.6435 26.8984 20.6435C24.1352 20.6435 22.6924 22.0863 22.6924 24.8739C22.6924 50.8432 22.6924 76.837 22.6924 102.806C22.6924 105.569 24.1352 107.012 26.9228 107.012C41.4236 107.012 55.9488 107.012 70.4495 107.012C70.6941 107.012 70.963 107.012 71.4032 107.012ZM105.344 86.8139C105.344 81.4586 105.344 76.0789 105.344 70.7237C105.344 68.0583 103.877 66.5911 101.236 66.5911C93.5578 66.5911 85.8795 66.5911 78.2012 66.5911C75.5603 66.5911 74.0931 68.0827 74.0931 70.7481C74.0931 81.4586 74.0931 92.1447 74.0931 102.855C74.0931 105.569 75.5358 107.037 78.2501 107.037C85.904 107.037 93.5578 107.037 101.212 107.037C103.926 107.037 105.344 105.569 105.344 102.855C105.344 97.4999 105.344 92.1691 105.344 86.8139ZM72.2591 23.5045C72.2591 26.6101 72.2835 29.7157 72.2346 32.8212C72.2346 33.4815 72.4791 33.5548 73.0171 33.5304C75.976 33.5059 78.9348 33.5304 81.8692 33.5059C82.0404 33.5059 82.236 33.6037 82.2604 33.5304C78.9103 30.1803 75.6092 26.8546 72.2591 23.5045Z" fill="#323232"/>
<path d="M105.344 86.8139C105.344 92.1447 105.344 97.4755 105.344 102.831C105.344 105.57 103.901 107.012 101.212 107.012C93.5578 107.012 85.9039 107.012 78.2501 107.012C75.5358 107.012 74.093 105.545 74.093 102.831C74.093 92.1202 74.093 81.4342 74.093 70.7237C74.093 68.0583 75.5602 66.5666 78.2012 66.5666C85.8795 66.5666 93.5578 66.5666 101.236 66.5666C103.877 66.5666 105.344 68.0338 105.344 70.6992C105.344 76.1034 105.344 81.4586 105.344 86.8139ZM89.7186 81.263C92.9709 81.263 96.2476 81.263 99.4999 81.263C100.992 81.263 101.676 80.5783 101.676 79.0867C101.676 76.8859 101.676 74.6851 101.676 72.5088C101.676 70.9682 100.967 70.2835 99.4265 70.2835C92.9709 70.2835 86.4908 70.2835 80.0352 70.2835C78.4946 70.2835 77.7855 70.9682 77.761 72.4843C77.7365 74.6851 77.761 76.8859 77.761 79.0622C77.761 80.6272 78.4212 81.263 80.0107 81.263C83.2385 81.2875 86.4663 81.263 89.7186 81.263ZM89.7675 84.9799V85.0044C89.4007 85.0044 89.0339 84.9799 88.6671 85.0044C87.689 85.1022 87.0288 85.7869 87.0043 86.7161C86.9554 87.6942 87.5912 88.4523 88.5938 88.599C89.4007 88.6968 90.2321 88.7213 91.0391 88.5745C91.895 88.4034 92.4818 87.6453 92.4574 86.8139C92.4574 85.9336 91.8216 85.1755 90.9168 85.0533C90.55 84.9799 90.1588 84.9799 89.7675 84.9799ZM80.5487 85.0044C80.1819 85.0044 79.8151 84.9799 79.4483 85.0044C78.4946 85.1022 77.8099 85.8113 77.761 86.7405C77.7121 87.6453 78.3723 88.4523 79.3016 88.599C80.1085 88.7212 80.9399 88.7212 81.7469 88.599C82.7005 88.4523 83.263 87.6698 83.2141 86.7161C83.1652 85.8113 82.5294 85.1511 81.6002 85.0288C81.2823 84.9799 80.9155 85.0044 80.5487 85.0044ZM98.8397 88.6723C99.2309 88.6479 99.5977 88.6723 99.9645 88.6234C100.967 88.5012 101.676 87.7431 101.652 86.8139C101.652 85.8358 100.894 85.0777 99.8422 85.0288C99.182 85.0044 98.4973 84.9799 97.8371 85.0288C96.859 85.1022 96.1987 85.8113 96.1743 86.7405C96.1498 87.7187 96.7611 88.4767 97.7882 88.599C98.155 88.6479 98.5218 88.6479 98.8397 88.6723ZM98.8641 96.0328C98.8641 96.0083 98.8641 95.9838 98.8641 95.9594C99.2554 95.9594 99.6711 96.0083 100.038 95.9594C101.016 95.8127 101.701 94.9813 101.652 94.0765C101.603 93.1228 100.869 92.4137 99.8667 92.3648C99.2065 92.3403 98.5218 92.3403 97.8615 92.3648C96.9323 92.4137 96.2721 93.0984 96.1987 93.9787C96.1254 94.9324 96.6633 95.7149 97.617 95.9105C98.0083 96.0083 98.424 96.0083 98.8641 96.0328ZM98.9375 99.7007C98.5951 99.7007 98.2772 99.6763 97.9349 99.7007C96.9568 99.7496 96.2476 100.41 96.1987 101.339C96.1254 102.293 96.6878 103.1 97.617 103.271C98.4484 103.442 99.3287 103.418 100.16 103.295C101.089 103.149 101.725 102.268 101.676 101.388C101.603 100.434 100.869 99.7252 99.8667 99.6763C99.5488 99.6763 99.2309 99.7007 98.9375 99.7007ZM80.4998 96.0328C80.4998 96.0083 80.4998 95.9838 80.4998 95.9838C80.8666 95.9838 81.2334 96.0328 81.6002 95.9838C82.6516 95.8371 83.3119 95.0546 83.2385 94.052C83.1896 93.0984 82.4805 92.4137 81.4534 92.3648C80.7932 92.3403 80.1085 92.3403 79.4483 92.3892C78.5435 92.4626 77.8588 93.1228 77.7855 94.0276C77.7121 94.8835 78.2745 95.7149 79.1548 95.9105C79.595 96.0083 80.0596 95.9839 80.4998 96.0328ZM89.6697 95.9594C90.061 95.9594 90.4767 96.0083 90.8435 95.9594C91.846 95.8127 92.5063 95.0057 92.4329 94.0765C92.384 93.1228 91.6749 92.4137 90.6478 92.3648C89.9631 92.3403 89.254 92.3403 88.5449 92.3892C87.6645 92.4626 87.0532 93.1473 86.9799 94.0031C86.9065 94.8834 87.3956 95.6171 88.2025 95.9105C88.716 96.0328 89.2051 95.9838 89.6697 95.9594ZM80.5242 99.7007C80.2308 99.7007 79.9129 99.7007 79.6194 99.7007C78.6169 99.7496 77.8833 100.434 77.7855 101.388C77.7121 102.317 78.3723 103.198 79.3505 103.32C80.133 103.418 80.9399 103.418 81.7224 103.32C82.725 103.198 83.3119 102.366 83.263 101.388C83.2141 100.434 82.4805 99.7496 81.4534 99.7252C81.1355 99.6763 80.8421 99.7007 80.5242 99.7007ZM89.7675 99.7007C89.4741 99.7007 89.1562 99.7007 88.8628 99.7007C87.7868 99.7496 87.0532 100.434 87.0043 101.437C86.9554 102.439 87.6401 103.246 88.6916 103.344C89.3763 103.393 90.0854 103.418 90.7946 103.344C91.8216 103.246 92.5307 102.415 92.4818 101.437C92.4329 100.483 91.6993 99.7741 90.6967 99.7252C90.3788 99.6763 90.061 99.7007 89.7675 99.7007Z" fill="#BD1F2D"/>
<path d="M37.3399 86.8383C37.3399 91.5334 37.3399 96.2284 37.3399 100.923C37.3399 102.733 36.753 103.344 34.9435 103.344C32.816 103.344 30.6642 103.344 28.5367 103.344C27.0451 103.344 26.3359 102.635 26.3359 101.168C26.3359 91.6067 26.3359 82.0211 26.3359 72.4599C26.3359 70.9682 27.0451 70.2835 28.5367 70.2835C30.762 70.2835 32.9872 70.2835 35.2124 70.2835C36.6552 70.2835 37.3399 70.9682 37.3399 72.4109C37.3399 77.2282 37.3399 82.0455 37.3399 86.8383ZM33.6963 86.9117C33.6963 82.8525 33.6719 78.7932 33.7208 74.7585C33.7208 74.1471 33.5985 73.8781 32.9383 73.927C32.3025 73.976 31.6667 74.0004 31.031 73.927C30.2729 73.8537 29.9795 74.0493 30.0039 74.9052C30.0773 77.4728 30.0284 80.0159 30.0284 82.5835C30.0284 88.0121 30.0284 93.4407 30.0039 98.8693C30.0039 99.5296 30.1262 99.823 30.8353 99.7252C31.4467 99.6518 32.058 99.6518 32.6693 99.7252C33.4518 99.7985 33.7453 99.6029 33.7208 98.7226C33.6474 94.7612 33.6963 90.8242 33.6963 86.9117Z" fill="#323232"/>
<path d="M41.0568 90.4574C41.0568 86.9851 41.0568 83.5127 41.0568 80.0404C41.0568 78.2308 41.6681 77.6195 43.4532 77.6195C45.5317 77.6195 47.5858 77.6195 49.6643 77.6195C51.4005 77.6195 52.0607 78.2797 52.0607 79.967C52.0607 86.9606 52.0607 93.9787 52.0607 100.972C52.0607 102.684 51.4005 103.344 49.6888 103.344C47.5614 103.344 45.4339 103.344 43.282 103.344C41.717 103.344 41.0568 102.684 41.0323 101.119C41.0323 97.5733 41.0568 94.0031 41.0568 90.4574ZM48.4172 90.5552C48.4172 87.7187 48.3928 84.8821 48.4172 82.0455C48.4172 81.4831 48.3194 81.2141 47.6836 81.263C46.9256 81.3119 46.1675 81.3119 45.4095 81.263C44.9204 81.2386 44.7003 81.3608 44.7248 81.9233C44.7492 87.6453 44.7492 93.3918 44.7248 99.1139C44.7248 99.6274 44.9204 99.7252 45.3606 99.7007C46.1431 99.6763 46.95 99.6518 47.7325 99.7007C48.3194 99.7496 48.4417 99.5051 48.4417 98.9671C48.3928 96.1795 48.4172 93.3674 48.4172 90.5552Z" fill="#323232"/>
<path d="M36.3129 53.2641C36.264 51.9925 35.6526 51.2345 34.5767 50.8188C33.0606 50.2319 31.52 49.6695 30.0528 48.887C27.901 47.7132 26.8006 45.977 27.0451 43.5317C27.2896 41.1109 28.6101 39.4236 30.8598 38.5188C31.3244 38.3232 31.4222 38.1276 31.4222 37.6874C31.4222 36.4158 32.1314 35.6089 33.2073 35.5844C34.3077 35.56 35.0413 36.3669 35.0658 37.7119C35.0658 38.152 35.188 38.3476 35.6282 38.4699C36.4351 38.7144 37.2176 39.1057 37.8779 39.6437C38.7337 40.3283 38.9049 41.3798 38.2691 42.2357C37.6822 43.0427 36.6308 43.2383 35.7504 42.627C34.699 41.8934 33.5741 41.5755 32.3025 41.8934C31.3489 42.1379 30.8109 42.7981 30.6397 43.7273C30.493 44.6566 30.9087 45.1945 31.6912 45.6347C32.8894 46.2949 34.161 46.784 35.457 47.2486C38.2936 48.3001 39.883 50.3786 39.9808 53.044C40.0542 55.8072 38.318 58.4482 35.6526 59.5486C35.2125 59.7197 35.0413 59.9398 35.0658 60.4044C35.0902 60.8201 35.0902 61.2603 34.919 61.6515C34.5767 62.4096 33.7697 62.8498 32.9872 62.7275C32.1314 62.6052 31.3978 61.8716 31.4467 60.9669C31.4956 60.1354 31.2021 59.8909 30.4196 59.7931C29.2459 59.6464 28.2189 59.084 27.2896 58.3993C26.4093 57.7879 26.2137 56.7364 26.7272 55.905C27.2652 55.0736 28.3167 54.7557 29.197 55.3426C30.4685 56.174 31.8135 56.4186 33.2807 56.3207C34.9679 56.2474 36.3373 54.8046 36.3129 53.2641Z" fill="#323232"/>
<path d="M55.7531 94.1254C55.7531 91.7779 55.7531 89.4304 55.7531 87.0829C55.7531 85.6646 56.4133 85.0043 57.8071 84.9799C60.0813 84.9554 62.3799 84.9554 64.654 84.9799C66.0723 84.9799 66.7325 85.6646 66.7325 87.0584C66.7325 91.7779 66.7325 96.4973 66.7325 101.217C66.7325 102.586 66.0234 103.32 64.6785 103.344C62.4043 103.369 60.1057 103.369 57.8316 103.344C56.4622 103.344 55.7531 102.611 55.7531 101.241C55.7531 98.8693 55.7531 96.4973 55.7531 94.1254ZM63.089 94.2232C63.089 93.3429 63.1135 92.4626 63.089 91.5823C63.0646 90.6286 63.5047 89.3326 62.9178 88.7946C62.4043 88.33 61.1083 88.7212 60.1791 88.6479C59.4699 88.599 59.3966 88.8924 59.421 89.4793C59.4455 91.9246 59.421 94.3455 59.4455 96.7908C59.4455 97.7445 59.0053 99.0649 59.6411 99.5785C60.228 100.068 61.4996 99.6763 62.4532 99.7496C63.089 99.7985 63.1379 99.5051 63.1135 99.016C63.0646 97.3777 63.089 95.8127 63.089 94.2232Z" fill="#323232"/>
<path d="M62.6244 40.8908C68.1509 40.8908 73.6528 40.8908 79.1793 40.8908C80.5976 40.8908 81.3801 41.5021 81.429 42.6025C81.4779 43.5562 80.891 44.3142 79.9373 44.4854C79.6194 44.5343 79.2771 44.5588 78.9347 44.5588C68.0531 44.5588 57.1714 44.5588 46.2897 44.5588C44.6269 44.5588 43.7466 43.923 43.7466 42.7248C43.7221 41.5266 44.6269 40.8908 46.2653 40.8908C51.7183 40.8908 57.1714 40.8908 62.6244 40.8908Z" fill="#323232"/>
<path d="M62.6245 48.2512C68.1754 48.2512 73.7262 48.2512 79.2527 48.2512C80.5487 48.2512 81.3067 48.8381 81.3801 49.8896C81.4534 50.8432 80.9155 51.6257 79.9863 51.8458C79.6684 51.9192 79.326 51.9192 78.9837 51.9192C68.0531 51.9192 57.0981 51.9192 46.1675 51.9192C45.7762 51.9192 45.385 51.9436 44.9937 51.7969C44.1623 51.5035 43.6488 50.721 43.7222 49.8896C43.82 49.0337 44.4558 48.3735 45.3116 48.2756C45.654 48.2267 45.9719 48.2512 46.3142 48.2512C51.7917 48.2512 57.2203 48.2512 62.6245 48.2512Z" fill="#323232"/>
<path d="M62.7224 55.5871C68.2732 55.5871 73.8241 55.5871 79.3505 55.5871C80.4509 55.5871 81.1601 56.0762 81.3802 56.9321C81.6491 58.0325 80.9645 59.035 79.8396 59.2062C79.5706 59.2551 79.3016 59.2307 79.0082 59.2307C68.0776 59.2307 57.1226 59.2307 46.192 59.2307C45.9719 59.2307 45.7763 59.2307 45.5562 59.2307C44.4803 59.1329 43.6978 58.3259 43.7467 57.3233C43.7956 56.3452 44.5781 55.6116 45.6296 55.5871C47.8304 55.5627 50.0067 55.5871 52.2075 55.5871C55.7043 55.5871 59.2256 55.5871 62.7224 55.5871Z" fill="#323232"/>
<path d="M89.7187 81.263C86.4909 81.263 83.263 81.263 80.0352 81.263C78.4458 81.263 77.81 80.6272 77.7855 79.0622C77.7855 76.8614 77.7611 74.6606 77.7855 72.4843C77.7855 70.9682 78.4947 70.2835 80.0597 70.2835C86.5153 70.2835 92.9954 70.2835 99.4511 70.2835C100.992 70.2835 101.676 70.9682 101.701 72.5088C101.701 74.7096 101.701 76.9103 101.701 79.0867C101.701 80.6028 101.016 81.263 99.5244 81.263C96.2232 81.2875 92.971 81.263 89.7187 81.263ZM89.6942 77.6195C92.164 77.6195 94.6338 77.595 97.1036 77.6439C97.7882 77.6439 98.1061 77.5217 98.0328 76.7636C97.9594 76.1278 97.9839 75.4921 98.0328 74.8563C98.0817 74.1716 97.9105 73.927 97.1525 73.927C92.2129 73.976 87.2734 73.976 82.3583 73.927C81.5758 73.927 81.3557 74.1716 81.4291 74.9052C81.5024 75.5165 81.478 76.1278 81.4291 76.7392C81.3557 77.4483 81.5758 77.6684 82.3094 77.6684C84.7791 77.5706 87.2489 77.6195 89.6942 77.6195Z" fill="#323232"/>
<path d="M89.7675 84.9799C90.1587 85.0043 90.55 84.9799 90.9412 85.0532C91.8216 85.1755 92.4573 85.9336 92.4818 86.8139C92.4818 87.6453 91.8949 88.4033 91.0635 88.5745C90.2566 88.7212 89.4251 88.7212 88.6182 88.599C87.5912 88.4767 86.9798 87.7186 87.0287 86.7161C87.0776 85.7868 87.7134 85.1021 88.6916 85.0043C89.0584 84.9799 89.4251 85.0043 89.7919 85.0043C89.7675 84.9799 89.7675 84.9799 89.7675 84.9799Z" fill="#323232"/>
<path d="M80.5487 85.0043C80.9155 85.0043 81.2823 84.9799 81.6491 85.0043C82.5783 85.1021 83.2141 85.7868 83.263 86.6916C83.3119 87.6453 82.725 88.4278 81.7958 88.5745C80.9888 88.6968 80.1574 88.6968 79.3505 88.5745C78.4212 88.4278 77.761 87.6208 77.8099 86.7161C77.8588 85.7868 78.5435 85.0777 79.4972 84.9799C79.8151 84.9799 80.1819 85.0043 80.5487 85.0043Z" fill="#323232"/>
<path d="M98.8397 88.6723C98.4973 88.6479 98.1305 88.6479 97.7882 88.599C96.7856 88.4523 96.1498 87.7187 96.1743 86.7405C96.1987 85.8113 96.859 85.1022 97.8371 85.0288C98.4973 84.9799 99.182 84.9799 99.8422 85.0288C100.894 85.0777 101.652 85.8602 101.652 86.8139C101.652 87.7431 100.967 88.5012 99.9645 88.6234C99.5977 88.6479 99.2309 88.6479 98.8397 88.6723Z" fill="#323232"/>
<path d="M98.8642 96.0328C98.4485 96.0083 98.0084 96.0083 97.5927 95.9105C96.639 95.7149 96.101 94.9324 96.1744 93.9787C96.2477 93.0984 96.908 92.4137 97.8372 92.3648C98.4974 92.3159 99.1821 92.3159 99.8424 92.3648C100.845 92.4137 101.579 93.1228 101.627 94.0765C101.676 95.0057 100.992 95.8127 100.014 95.9594C99.6223 96.0083 99.231 95.9594 98.8398 95.9594C98.8642 95.9838 98.8642 96.0083 98.8642 96.0328Z" fill="#323232"/>
<path d="M98.9376 99.7007C99.231 99.7007 99.5489 99.6763 99.8424 99.7007C100.845 99.7496 101.579 100.459 101.652 101.412C101.725 102.293 101.065 103.173 100.136 103.32C99.3044 103.442 98.4241 103.466 97.5927 103.295C96.639 103.124 96.101 102.293 96.1744 101.364C96.2477 100.434 96.9569 99.7741 97.9105 99.7252C98.2529 99.6763 98.5952 99.7007 98.9376 99.7007Z" fill="#323232"/>
<path d="M80.4998 96.0328C80.0596 95.9838 79.595 95.9838 79.1548 95.886C78.2745 95.6659 77.7121 94.859 77.7855 94.0031C77.8833 93.0984 78.5435 92.4381 79.4483 92.3648C80.1085 92.3159 80.7932 92.3159 81.4534 92.3403C82.5049 92.3892 83.1896 93.0739 83.2385 94.0276C83.2874 95.0546 82.6517 95.8127 81.6002 95.9594C81.2334 96.0083 80.8666 95.9594 80.4998 95.9594C80.5242 96.0083 80.5242 96.0083 80.4998 96.0328Z" fill="#323232"/>
<path d="M89.6698 95.9594C89.1807 95.9838 88.6917 96.0327 88.227 95.8616C87.3956 95.5681 86.931 94.859 87.0044 93.9542C87.0777 93.0984 87.7135 92.4137 88.5694 92.3403C89.2541 92.2914 89.9632 92.2914 90.6724 92.3159C91.6994 92.3648 92.4085 93.0739 92.4574 94.0276C92.5064 94.9813 91.8461 95.7638 90.868 95.9105C90.4767 96.0083 90.061 95.9594 89.6698 95.9594Z" fill="#323232"/>
<path d="M80.5243 99.7007C80.8177 99.7007 81.1356 99.7007 81.429 99.7007C82.4561 99.7496 83.1897 100.41 83.2386 101.364C83.3119 102.342 82.7006 103.173 81.698 103.295C80.9155 103.393 80.1086 103.393 79.3261 103.295C78.3479 103.173 77.6877 102.293 77.761 101.364C77.8344 100.41 78.568 99.7252 79.595 99.6763C79.9129 99.6763 80.2308 99.7007 80.5243 99.7007Z" fill="#323232"/>
<path d="M89.7676 99.7007C90.061 99.7007 90.3789 99.7007 90.6723 99.7007C91.6749 99.7496 92.4085 100.459 92.4574 101.412C92.5063 102.391 91.7972 103.222 90.7702 103.32C90.0855 103.393 89.3763 103.393 88.6672 103.32C87.6157 103.222 86.9555 102.415 86.9799 101.412C87.0288 100.41 87.7624 99.7252 88.8383 99.6763C89.1562 99.6763 89.4497 99.7007 89.7676 99.7007Z" fill="#323232"/>
<path d="M33.6964 86.9117C33.6964 90.8487 33.6719 94.7856 33.7208 98.6982C33.7453 99.5785 33.4519 99.7986 32.6694 99.7007C32.058 99.6274 31.4467 99.6274 30.8354 99.7007C30.1262 99.7741 30.004 99.5051 30.004 98.8449C30.0284 93.4163 30.0284 87.9877 30.0284 82.559C30.0284 79.9915 30.0773 77.4483 30.004 74.8807C29.9795 74.0249 30.2485 73.8293 31.031 73.9026C31.6668 73.976 32.3026 73.9515 32.9383 73.9026C33.5986 73.8293 33.7208 74.1227 33.7208 74.734C33.6719 78.7932 33.6964 82.8525 33.6964 86.9117Z" fill="#BD1F2D"/>
<path d="M48.4172 90.5552C48.4172 93.3673 48.3928 96.155 48.4172 98.9671C48.4172 99.5051 48.3194 99.7496 47.7081 99.7007C46.9256 99.6518 46.1186 99.6763 45.3361 99.7007C44.896 99.7252 44.6759 99.6273 44.7003 99.1138C44.7248 93.3918 44.7248 87.6453 44.7003 81.9232C44.7003 81.3853 44.8959 81.2385 45.385 81.263C46.1431 81.2874 46.9011 81.3119 47.6592 81.263C48.2949 81.2141 48.3928 81.4831 48.3928 82.0455C48.3928 84.8821 48.4172 87.7186 48.4172 90.5552Z" fill="#BD1F2D"/>
<path d="M63.0891 94.2232C63.0891 95.8127 63.0646 97.3777 63.0891 98.9671C63.0891 99.4807 63.0402 99.7496 62.4288 99.7007C61.4752 99.6274 60.2036 100.019 59.6167 99.5296C59.0054 99.016 59.4455 97.72 59.4211 96.7419C59.3966 94.2966 59.4211 91.8757 59.3966 89.4304C59.3966 88.8435 59.47 88.5501 60.1547 88.599C61.0839 88.6723 62.3799 88.2566 62.8934 88.7457C63.4803 89.2837 63.0402 90.5797 63.0646 91.5334C63.1135 92.4626 63.0891 93.3429 63.0891 94.2232Z" fill="#BD1F2D"/>
</svg>
