<svg width="128" height="128" viewBox="0 0 128 128" fill="none" xmlns="http://www.w3.org/2000/svg">
<rect x="26.0603" y="58.747" width="72.4819" height="12.8675" fill="#BD1F2D"/>
<rect x="35.2379" y="86.8042" width="23.6983" height="22.3048" rx="3.75" stroke="#323232" stroke-width="2.5"/>
<path d="M41.993 91.1334V89.6213C41.993 88.5167 42.8885 87.6213 43.993 87.6213H49.4535C50.5581 87.6213 51.4535 88.5167 51.4535 89.6213V91.1334C51.4535 92.238 50.5581 93.1334 49.4535 93.1334H43.993C42.8885 93.1334 41.993 92.238 41.993 91.1334Z" fill="#BD1F2D" stroke="#323232" stroke-width="2.5"/>
<rect x="65.9664" y="86.8042" width="23.6983" height="22.3048" rx="3.75" stroke="#323232" stroke-width="2.5"/>
<path d="M72.7213 91.1334V89.6213C72.7213 88.5167 73.6167 87.6213 74.7213 87.6213H80.1818C81.2864 87.6213 82.1818 88.5167 82.1818 89.6213V91.1334C82.1818 92.238 81.2864 93.1334 80.1818 93.1334H74.7213C73.6167 93.1334 72.7213 92.238 72.7213 91.1334Z" fill="#BD1F2D" stroke="#323232" stroke-width="2.5"/>
<path d="M24.6412 62.89V106.78C24.6412 108.89 22.9306 110.6 20.8206 110.6C18.7105 110.6 17 108.89 17 106.78V53.9291C17 52.1201 17.9772 50.4521 19.5553 49.5676L62.4832 25.506L105.062 49.5645C106.632 50.4514 107.602 52.1147 107.602 53.9176V106.416C107.602 108.727 105.729 110.6 103.418 110.6C101.107 110.6 99.2336 108.727 99.2336 106.416V62.89C99.2336 60.1286 96.995 57.89 94.2335 57.89H29.6412C26.8797 57.89 24.6412 60.1286 24.6412 62.89Z" stroke="#323232" stroke-width="2.5"/>
<rect x="52.226" y="44.985" width="20.1506" height="6.07831" rx="3.03916" fill="#BD1F2D" stroke="#323232" stroke-width="2.5"/>
<path d="M24.9277 65.1807L98.5058 64.7803" stroke="#323232" stroke-width="2.5"/>
<path d="M24.9277 71.6145L100.325 71.6704" stroke="#323232" stroke-width="2.5"/>
<path fill-rule="evenodd" clip-rule="evenodd" d="M95.2538 18C96.4447 18 97.4096 18.9136 97.4096 20.0411V20.0427C97.4096 20.9708 98.0823 21.7686 98.998 22.1112C99.1423 22.1656 99.2856 22.2225 99.4278 22.2817C100.332 22.6532 101.402 22.5406 102.098 21.8812C102.503 21.4987 103.051 21.2838 103.622 21.2838C104.194 21.2838 104.742 21.4987 105.146 21.8812L106.902 23.5443C107.306 23.927 107.533 24.446 107.533 24.987C107.533 25.5281 107.306 26.0471 106.902 26.4298C106.208 27.0893 106.089 28.1042 106.479 28.9583C106.541 29.0929 106.601 29.2286 106.658 29.3652C107.02 30.2321 107.862 30.8691 108.844 30.8691C110.035 30.8691 111 31.7827 111 32.9102V35.2601C111 36.3876 110.035 37.3012 108.844 37.3012C107.862 37.3012 107.02 37.9381 106.66 38.8051C106.602 38.9418 106.542 39.0785 106.479 39.212C106.087 40.0677 106.206 41.081 106.902 41.7405C107.306 42.1232 107.533 42.6422 107.533 43.1832C107.533 43.7243 107.306 44.2433 106.902 44.626L105.146 46.2891C104.946 46.4788 104.708 46.6292 104.446 46.7318C104.185 46.8344 103.904 46.8873 103.621 46.8873C103.338 46.8873 103.058 46.8344 102.796 46.7318C102.534 46.6292 102.297 46.4788 102.097 46.2891C101.402 45.6313 100.33 45.5171 99.4278 45.8902C99.2868 45.9481 99.1424 46.0044 98.998 46.0575C98.0823 46.4001 97.4096 47.1979 97.4096 48.1276C97.4096 49.2551 96.4447 50.1687 95.2538 50.1687H92.7702C91.5793 50.1687 90.6144 49.2551 90.6144 48.1276C90.6144 47.1979 89.9417 46.4001 89.026 46.0591C88.8816 46.0044 88.7372 45.9481 88.5962 45.8886C87.6925 45.5171 86.6222 45.6297 85.9257 46.2891C85.5215 46.6716 84.9734 46.8864 84.4019 46.8864C83.8304 46.8864 83.2823 46.6716 82.8781 46.2891L81.1215 44.626C80.7176 44.2433 80.4907 43.7243 80.4907 43.1832C80.4907 42.6422 80.7176 42.1232 81.1215 41.7405C81.8164 41.081 81.9353 40.0661 81.5428 39.212L81.5299 39.183C81.4745 39.0587 81.418 38.9319 81.3645 38.8051C81.0043 37.9381 80.1617 37.3012 79.1798 37.3012C77.989 37.3012 77.024 36.3876 77.024 35.2601V32.9086C77.024 31.7811 77.989 30.8675 79.1798 30.8675C80.1617 30.8675 81.0043 30.2305 81.3645 29.3636C81.4215 29.227 81.4809 29.0913 81.5428 28.9567C81.937 28.101 81.818 27.0877 81.1215 26.4282C80.7176 26.0455 80.4907 25.5265 80.4907 24.9854C80.4907 24.4443 80.7176 23.9254 81.1215 23.5427L82.8781 21.8795C83.2823 21.4971 83.8304 21.2822 84.4019 21.2822C84.9734 21.2822 85.5215 21.4971 85.9257 21.8795C86.6222 22.5374 87.6942 22.65 88.5962 22.28C88.7372 22.2221 88.8816 22.1642 89.026 22.1095C89.9417 21.7686 90.6144 20.9708 90.6144 20.0411C90.6144 18.9136 91.5793 18 92.7719 18H95.2538ZM94.012 41.1613C98.1401 41.1613 101.487 37.9928 101.487 34.0842C101.487 30.1756 98.1401 27.0071 94.012 27.0071C89.8838 27.0071 86.5373 30.1756 86.5373 34.0842C86.5373 37.9928 89.8838 41.1613 94.012 41.1613Z" fill="#BD1F2D"/>
<path d="M98.998 22.1112L99.3512 21.1756L99.3484 21.1746L98.998 22.1112ZM99.4278 22.2817L99.0436 23.2049L99.0475 23.2065L99.4278 22.2817ZM102.098 21.8812L101.411 21.1548L101.411 21.155L102.098 21.8812ZM105.146 21.8812L105.833 21.155L105.833 21.1548L105.146 21.8812ZM106.902 23.5443L107.59 22.8184L107.59 22.8181L106.902 23.5443ZM106.902 26.4298L106.215 25.7039L106.214 25.7045L106.902 26.4298ZM106.479 28.9583L105.57 29.3743L105.571 29.3764L106.479 28.9583ZM106.658 29.3652L105.735 29.7498L105.735 29.7504L106.658 29.3652ZM106.66 38.8051L107.581 39.1943L107.583 39.1887L106.66 38.8051ZM106.479 39.212L105.575 38.786L105.57 38.7952L106.479 39.212ZM106.902 41.7405L107.59 41.0146L107.59 41.0143L106.902 41.7405ZM106.902 44.626L107.59 45.3522L107.59 45.3519L106.902 44.626ZM105.146 46.2891L104.458 45.563L104.458 45.5631L105.146 46.2891ZM104.446 46.7318L104.081 45.8009L104.081 45.8009L104.446 46.7318ZM102.796 46.7318L103.161 45.8009L103.161 45.8009L102.796 46.7318ZM102.097 46.2891L102.784 45.5631L102.784 45.563L102.097 46.2891ZM99.4278 45.8902L99.8076 46.8153L99.81 46.8143L99.4278 45.8902ZM98.998 46.0575L98.653 45.1189L98.6475 45.1209L98.998 46.0575ZM89.026 46.0591L88.6719 46.9943L88.6771 46.9963L89.026 46.0591ZM88.5962 45.8886L88.9851 44.9673L88.9765 44.9637L88.5962 45.8886ZM85.9257 46.2891L86.613 47.0155L86.6133 47.0153L85.9257 46.2891ZM82.8781 46.2891L82.1906 47.0153L82.1908 47.0155L82.8781 46.2891ZM81.1215 44.626L80.4338 45.3519L80.434 45.3522L81.1215 44.626ZM81.1215 41.7405L81.8093 42.4664L81.81 42.4658L81.1215 41.7405ZM81.5428 39.212L80.6293 39.619L80.6342 39.6295L81.5428 39.212ZM81.5299 39.183L82.4434 38.776L82.4433 38.776L81.5299 39.183ZM81.3645 38.8051L80.441 39.1887L80.4433 39.1943L81.3645 38.8051ZM81.3645 29.3636L80.4415 28.9786L80.441 28.98L81.3645 29.3636ZM81.5428 28.9567L80.6346 28.5383L80.6343 28.5389L81.5428 28.9567ZM81.1215 26.4282L80.4338 27.1541L80.434 27.1543L81.1215 26.4282ZM81.1215 23.5427L80.434 22.8165L80.4338 22.8168L81.1215 23.5427ZM82.8781 21.8795L82.1908 21.1531L82.1906 21.1534L82.8781 21.8795ZM85.9257 21.8795L85.2385 22.6059L85.2391 22.6065L85.9257 21.8795ZM88.5962 22.28L88.9757 23.2053L88.9761 23.2051L88.5962 22.28ZM89.026 22.1095L88.677 21.1724L88.6719 21.1744L89.026 22.1095ZM98.4096 20.0411C98.4096 18.3105 96.9448 17 95.2538 17V19C95.9446 19 96.4096 19.5167 96.4096 20.0411H98.4096ZM98.4096 20.0427V20.0411H96.4096V20.0427H98.4096ZM99.3484 21.1746C98.7258 20.9416 98.4096 20.4583 98.4096 20.0427H96.4096C96.4096 21.4833 97.4388 22.5955 98.6475 23.0477L99.3484 21.1746ZM99.812 21.3584C99.6595 21.2949 99.5059 21.234 99.3512 21.1756L98.6448 23.0467C98.7787 23.0973 98.9116 23.15 99.0436 23.2049L99.812 21.3584ZM101.411 21.155C101.053 21.4937 100.42 21.6085 99.808 21.3568L99.0475 23.2065C100.243 23.6979 101.751 23.5875 102.786 22.6073L101.411 21.155ZM103.622 20.2838C102.803 20.2838 102.006 20.5914 101.411 21.1548L102.786 22.6076C102.999 22.406 103.299 22.2838 103.622 22.2838V20.2838ZM105.833 21.1548C105.238 20.5914 104.442 20.2838 103.622 20.2838V22.2838C103.946 22.2838 104.246 22.406 104.459 22.6076L105.833 21.1548ZM107.59 22.8181L105.833 21.155L104.458 22.6073L106.215 24.2704L107.59 22.8181ZM108.533 24.987C108.533 24.1627 108.187 23.3839 107.59 22.8184L106.215 24.2702C106.426 24.4701 106.533 24.7292 106.533 24.987H108.533ZM107.59 27.1557C108.187 26.5902 108.533 25.8114 108.533 24.987H106.533C106.533 25.2448 106.426 25.5039 106.215 25.7039L107.59 27.1557ZM107.389 28.5422C107.148 28.0163 107.252 27.4771 107.591 27.1551L106.214 25.7045C105.164 26.7014 105.029 28.192 105.57 29.3743L107.389 28.5422ZM107.581 28.9806C107.519 28.8327 107.455 28.6858 107.388 28.5401L105.571 29.3764C105.628 29.5 105.683 29.6245 105.735 29.7498L107.581 28.9806ZM108.844 29.8691C108.309 29.8691 107.804 29.5162 107.581 28.98L105.735 29.7504C106.235 30.9481 107.416 31.8691 108.844 31.8691V29.8691ZM112 32.9102C112 31.1796 110.535 29.8691 108.844 29.8691V31.8691C109.535 31.8691 110 32.3858 110 32.9102H112ZM112 35.2601V32.9102H110V35.2601H112ZM108.844 38.3012C110.535 38.3012 112 36.9907 112 35.2601H110C110 35.7845 109.535 36.3012 108.844 36.3012V38.3012ZM107.583 39.1887C107.805 38.6542 108.309 38.3012 108.844 38.3012V36.3012C107.416 36.3012 106.234 37.2221 105.736 38.4215L107.583 39.1887ZM107.384 39.638C107.455 39.4872 107.521 39.3366 107.581 39.1943L105.738 38.4159C105.683 38.547 105.629 38.6699 105.575 38.7861L107.384 39.638ZM107.59 41.0143C107.25 40.6925 107.147 40.156 107.388 39.6289L105.57 38.7952C105.027 39.9794 105.162 41.4695 106.215 42.4666L107.59 41.0143ZM108.533 43.1832C108.533 42.3589 108.187 41.5801 107.59 41.0146L106.215 42.4664C106.426 42.6664 106.533 42.9254 106.533 43.1832H108.533ZM107.59 45.3519C108.187 44.7864 108.533 44.0076 108.533 43.1832H106.533C106.533 43.4411 106.426 43.7001 106.215 43.9001L107.59 45.3519ZM105.833 47.0153L107.59 45.3522L106.215 43.8999L104.458 45.563L105.833 47.0153ZM104.812 47.6627C105.191 47.5141 105.538 47.2949 105.834 47.0151L104.458 45.5631C104.353 45.6626 104.226 45.7443 104.081 45.8009L104.812 47.6627ZM103.621 47.8873C104.028 47.8873 104.433 47.8114 104.812 47.6627L104.081 45.8009C103.937 45.8575 103.78 45.8873 103.621 45.8873V47.8873ZM102.431 47.6627C102.81 47.8114 103.214 47.8873 103.621 47.8873V45.8873C103.462 45.8873 103.306 45.8575 103.161 45.8009L102.431 47.6627ZM101.409 47.0151C101.704 47.2949 102.052 47.5141 102.431 47.6627L103.161 45.8009C103.017 45.7443 102.889 45.6626 102.784 45.5631L101.409 47.0151ZM99.81 46.8143C100.419 46.5626 101.052 46.6777 101.409 47.0153L102.784 45.563C101.751 44.5849 100.241 44.4716 99.0455 44.9662L99.81 46.8143ZM99.343 46.9961C99.4995 46.9386 99.6555 46.8777 99.8076 46.8153L99.0479 44.9652C98.918 45.0186 98.7852 45.0703 98.653 45.1189L99.343 46.9961ZM98.4096 48.1276C98.4096 47.71 98.7263 47.2269 99.3484 46.9941L98.6475 45.1209C97.4384 45.5733 96.4096 46.6858 96.4096 48.1276H98.4096ZM95.2538 51.1687C96.9448 51.1687 98.4096 49.8582 98.4096 48.1276H96.4096C96.4096 48.652 95.9446 49.1687 95.2538 49.1687V51.1687ZM92.7702 51.1687H95.2538V49.1687H92.7702V51.1687ZM89.6144 48.1276C89.6144 49.8582 91.0793 51.1687 92.7702 51.1687V49.1687C92.0794 49.1687 91.6144 48.652 91.6144 48.1276H89.6144ZM88.6771 46.9963C89.2977 47.2274 89.6144 47.7099 89.6144 48.1276H91.6144C91.6144 46.6859 90.5857 45.5728 89.375 45.122L88.6771 46.9963ZM88.2074 46.8099C88.3648 46.8764 88.5222 46.9376 88.6719 46.9943L89.3802 45.1239C89.2411 45.0713 89.1097 45.0199 88.9851 44.9673L88.2074 46.8099ZM86.6133 47.0153C86.971 46.6766 87.6036 46.5618 88.216 46.8135L88.9765 44.9637C87.7813 44.4724 86.2735 44.5828 85.2382 45.563L86.6133 47.0153ZM84.4019 47.8864C85.2214 47.8864 86.0176 47.5789 86.613 47.0155L85.2385 45.5627C85.0254 45.7643 84.7254 45.8864 84.4019 45.8864V47.8864ZM82.1908 47.0155C82.7862 47.5789 83.5824 47.8864 84.4019 47.8864V45.8864C84.0784 45.8864 83.7784 45.7643 83.5654 45.5627L82.1908 47.0155ZM80.434 45.3522L82.1906 47.0153L83.5656 45.563L81.8091 43.8999L80.434 45.3522ZM79.4907 43.1832C79.4907 44.0076 79.8369 44.7864 80.4338 45.3519L81.8093 43.9001C81.5983 43.7001 81.4907 43.4411 81.4907 43.1832H79.4907ZM80.4338 41.0146C79.8369 41.5801 79.4907 42.3589 79.4907 43.1832H81.4907C81.4907 42.9254 81.5983 42.6664 81.8093 42.4664L80.4338 41.0146ZM80.6342 39.6295C80.8754 40.1546 80.7723 40.6932 80.4331 41.0152L81.81 42.4658C82.8604 41.4688 82.9951 39.9776 82.4515 38.7945L80.6342 39.6295ZM80.6164 39.5899L80.6294 39.6189L82.4563 38.8051L82.4434 38.776L80.6164 39.5899ZM80.4433 39.1943C80.5013 39.3315 80.5618 39.4672 80.6165 39.5899L82.4433 38.776C82.3873 38.6503 82.3348 38.5323 82.2856 38.4159L80.4433 39.1943ZM79.1798 38.3012C79.7152 38.3012 80.2189 38.6542 80.441 39.1887L82.288 38.4215C81.7897 37.2221 80.6082 36.3012 79.1798 36.3012V38.3012ZM76.024 35.2601C76.024 36.9907 77.4889 38.3012 79.1798 38.3012V36.3012C78.489 36.3012 78.024 35.7845 78.024 35.2601H76.024ZM76.024 32.9086V35.2601H78.024V32.9086H76.024ZM79.1798 29.8675C77.4889 29.8675 76.024 31.178 76.024 32.9086H78.024C78.024 32.3841 78.489 31.8675 79.1798 31.8675V29.8675ZM80.441 28.98C80.2189 29.5145 79.7152 29.8675 79.1798 29.8675V31.8675C80.6082 31.8675 81.7897 30.9466 82.288 29.7472L80.441 28.98ZM80.6343 28.5389C80.5674 28.6844 80.5031 28.831 80.4416 28.9786L82.2874 29.7486C82.3398 29.623 82.3944 29.4983 82.4514 29.3744L80.6343 28.5389ZM80.434 27.1543C80.7738 27.4761 80.877 28.012 80.6346 28.5383L82.4511 29.375C82.997 28.1899 82.8623 26.6992 81.8091 25.702L80.434 27.1543ZM79.4907 24.9854C79.4907 25.8098 79.8369 26.5886 80.4338 27.1541L81.8093 25.7023C81.5983 25.5023 81.4907 25.2432 81.4907 24.9854H79.4907ZM80.4338 22.8168C79.8369 23.3823 79.4907 24.1611 79.4907 24.9854H81.4907C81.4907 24.7276 81.5983 24.4685 81.8093 24.2686L80.4338 22.8168ZM82.1906 21.1534L80.434 22.8165L81.8091 24.2688L83.5656 22.6057L82.1906 21.1534ZM84.4019 20.2822C83.5824 20.2822 82.7862 20.5898 82.1908 21.1531L83.5654 22.6059C83.7784 22.4043 84.0784 22.2822 84.4019 22.2822V20.2822ZM86.613 21.1531C86.0176 20.5898 85.2214 20.2822 84.4019 20.2822V22.2822C84.7254 22.2822 85.0254 22.4043 85.2385 22.6059L86.613 21.1531ZM88.2168 21.3548C87.6058 21.6054 86.9705 21.4907 86.6124 21.1525L85.2391 22.6065C86.274 23.584 87.7826 23.6946 88.9757 23.2053L88.2168 21.3548ZM88.6719 21.1744C88.5158 21.2335 88.3622 21.2951 88.2164 21.355L88.9761 23.2051C89.1123 23.1492 89.2475 23.095 89.3802 23.0447L88.6719 21.1744ZM89.6144 20.0411C89.6144 20.4588 89.2977 20.9413 88.6771 21.1724L89.375 23.0467C90.5857 22.5958 91.6144 21.4827 91.6144 20.0411H89.6144ZM92.7719 17C91.0798 17 89.6144 18.31 89.6144 20.0411H91.6144C91.6144 19.5172 92.0789 19 92.7719 19V17ZM95.2538 17H92.7719V19H95.2538V17ZM100.487 34.0842C100.487 37.3897 97.6401 40.1613 94.012 40.1613V42.1613C98.6402 42.1613 102.487 38.5958 102.487 34.0842H100.487ZM94.012 28.0071C97.6401 28.0071 100.487 30.7787 100.487 34.0842H102.487C102.487 29.5725 98.6402 26.0071 94.012 26.0071V28.0071ZM87.5373 34.0842C87.5373 30.7787 90.3839 28.0071 94.012 28.0071V26.0071C89.3837 26.0071 85.5373 29.5725 85.5373 34.0842H87.5373ZM94.012 40.1613C90.3839 40.1613 87.5373 37.3897 87.5373 34.0842H85.5373C85.5373 38.5958 89.3837 42.1613 94.012 42.1613V40.1613Z" fill="#323232"/>
</svg>
